/* XPM */
static char * C:\Users\illacertus\Desktop\SPARK BASE\Wallet\share\pixmaps\bitcoin128_xpm[] = {
"128 128 58 1",
" 	c None",
".	c #122C54",
"+	c #122D55",
"@	c #142F56",
"#	c #153057",
"$	c #132E55",
"%	c #112D55",
"&	c #112C53",
"*	c #132E56",
"=	c #142F57",
"-	c #112C54",
";	c #122E55",
">	c #142E56",
",	c #112D54",
"'	c #102B54",
")	c #122D54",
"!	c #112B53",
"~	c #122E54",
"{	c #132D55",
"]	c #143057",
"^	c #122C53",
"/	c #102C54",
"(	c #102C53",
"_	c #153056",
":	c #132F56",
"<	c #112B54",
"[	c #152F57",
"}	c #152F56",
"|	c #102B52",
"1	c #132D56",
"2	c #112B52",
"3	c #112C55",
"4	c #122D53",
"5	c #122C55",
"6	c #112C52",
"7	c #102B51",
"8	c #0F2C53",
"9	c #102B53",
"0	c #0F2B52",
"a	c #102A53",
"b	c #122E56",
"c	c #142E55",
"d	c #143056",
"e	c #142F55",
"f	c #0F2C54",
"g	c #132E54",
"h	c #0F2B53",
"i	c #132F55",
"j	c #102B55",
"k	c #112A53",
"l	c #0F2B54",
"m	c #132D54",
"n	c #102D54",
"o	c #122D56",
"p	c #122B53",
"q	c #102C52",
"r	c #112D53",
"s	c #102C55",
"                                                                                                                                ",
"                                                                                                                                ",
"                                                                                                                                ",
"                                                                                                                                ",
"                                                                                                                                ",
"                                                                                                                                ",
"                                                                                                                                ",
"                                                                                                                                ",
"                                                                                                                                ",
"                                                          .+@@####@@$%                                                          ",
"                                                       &*=############@@-                                                       ",
"                                                     &$##################@-                                                     ",
"                                                    ;######################$                                                    ",
"                                                   >########################=,                                                  ",
"                                                   $########################@'                                                  ",
"                                                    )######################$                                                    ",
"                                                     !@###################;                                                     ",
"                                      ~*               *################@&              {@+                                     ",
"                                   &$]@                 $##############*                 *#]$                                   ",
"                                  $##@                   ^@##########@$                   $##@$                                 ",
"                                +@##@                      @########=,                     $###@/                               ",
"                               $###@                        ;######@                        $####;                              ",
"                             -@###@          (,$;;$-         ,@###{         ',+,,(           *####$                             ",
"                            +####@        +*=######_#=:-      &@@+      <;=[######[@{%        *####@                            ",
"                           $####=      ,:}##############@&            '@##############@:-      $####@                           ",
"                          +####@     +$###################$          ;###################:-     $####@                          ",
"                         {####{     >######################*        )######################$|    $####@                         ",
"                        $####$    ,@######################@          *######################]+    $####>                        ",
"                       )####*    ~#######################$            +#######################:    *####{                       ",
"                      (=###$    @#######################:              +#######################>    -####+                      ",
"                      @###$    @#######################$                +#######################>    %###=<                     ",
"                     $###$    @#######################$                  )#######################>    ,###@                     ",
"                    -###$    *#######################$                    )#######################>    )###$                    ",
"                    @##$    )#######################$                      )#######################+    ,###%                   ",
"                   )##$    !@######################*                        ;#######################.    ,##@                   ",
"                   @#$     @######################*                          ;######################@     %##,                  ",
"                  ~#$     )######################$                            %######################;     %#@                  ",
"                  >$      $#####################*                              ;#####################=      +}(                 ",
"                  1      .#####################;                                %#####################$      )%                 ",
"                         @####################$           ,$$@====@$:+|          )####################]       2                 ",
"                        ^####################$         ;@##############@;-        ,####################)                        ",
"                        )###################$        +@##################}$-       %###################@                        ",
"                        =##################)       )@#######################$       )###################                        ",
"                        ##################,      &@##########################@)      3##################{                       ",
"                       -#################,      )]#############################$      ,#################{                       ",
"                       +################%      %################################$      3################@                       ",
"                       {###############,      +##################################$      %###############@                       ",
"                       *##############+      +####################################$      )##############]                       ",
"                       *#############+      &######################################{      -#############]                       ",
"                       *############%       @#######################################4      )############=                       ",
"              @5       *###########)       *########################################@       -@##########@       6@7             ",
"             *##.      +##########%       (##########################################+       8@#########$       *#@             ",
"            )###@      )#########,        $##########################################@        9@########+      ;###;            ",
"            @####$      ########)         ############################################+        |@#######      ,#####-           ",
"           )######$     @######,         +############################################@         (@#####@     &######*           ",
"           @#######%    5#####.          }#############################################&         0@####-     @#######(          ",
"          !########@     @###,          /##############################################;          9@##@     $########$          ",
"          +#########@    &@#<           +##############################################@           a@#(    $#########@          ",
"          @##########*    ;-            $##############################################=            9{    -###########          ",
"          @###########,                 @###############################################                  @###########/         ",
"          [############&                ################################################&                @############{         ",
"         &#############@                ################################################+               ;#############b         ",
"         &##############@              )################################################+              -##############b         ",
"         &##############@              )################################################+              $##############b         ",
"         &##############(               ################################################+               @#############b         ",
"          #############+                ################################################)               ,#############;         ",
"          ############>                 ]###############################################/                +############4         ",
"          @##########@                  c##############################################[             '    $###########          ",
"          @##########.    $@            $##############################################=            *=     @#########[          ",
"          ,#########+    3##@           +##############################################$           >##@    ']########*          ",
"           d#######*     >###@           ##############################################.          :####)    +########)          ",
"           e######@     ,#####@          @############################################d          @#####@     >######=           ",
"           <#####@f     :######@         %############################################$         $#######-     @#####+           ",
"            *####,      =#######@         @##########################################}&        :########)     3####d            ",
"             d##;      -#########@        +##########################################>        :#########@      )###,            ",
"             +#@       $##########@        @########################################]9       :##########@       $#$             ",
"              ;        $###########@       -########################################g       :###########]        $              ",
"                       *############@       $######################################@       :############]                       ",
"                       *#############@(      @#####################################       :#############]                       ",
"                       *##############@(      @##################################@.      *##############@                       ",
"                       ;###############@&      @################################@&      *###############@                       ",
"                       $################@h      @##############################@,      $################$                       ",
"                       2#################@-      $############################@9      *#################+                       ",
"                        =#################=(      +=#########################;       *##################                        ",
"                        @##################@(       $######################@/       :##################@                        ",
"                        {###################@/        i=#################*-        *###################$                        ",
"                         ####################=f         )c=##########=@)          :####################                         ",
"                  (      $####################@&            ^%$$$$+-             *####################*       -                 ",
"                  @/     j#####################@9                               :#####################!      c-                 ",
"                  @@&     $#####################@k                             :#####################$      c@                  ",
"                  -#@&     d#####################=&                           >######################'     >#;                  ",
"                   @#@(    ~######################@(                         @######################;     @#]                   ",
"                   )##@/    >######################@9                       @######################@     e##;                   ",
"                    :##@(    @######################@l                     @######################](    @##@                    ",
"                    '@##='   -#######################=%                   @#######################;    @###(                    ",
"                     m###@(   +#######################@&                 @#######################$    c###*                     ",
"                      :###@/   +#######################@-               @#######################$    e###:                      ",
"                       @###@&   )d######################=&             @#######################$   (=###@                       ",
"                        @###=(   9@######################]%           @#######################;   -=###@&                       ",
"                        nd###@<    :######################@3         @######################@,   !@####n                        ",
"                         -@###],    -@#####################+        !d####################@o    (@####)                         ",
"                          (=###@-     ,@#################>&           $@################=$(    8@####+                          ",
"                           p@####+      9g@############@)      +$       )@###########_@+      '@###@,                           ",
"                             *####)        (-$$$*@$**+        $##@        q.*$$$$$*$-        '@###@&                            ",
"                              $[###+                         *####@,                        /@###>                              ",
"                               &@###+                      ,@#######;                      &@###>                               ",
"                                 +###+                    +##########$                    &@##@%                                ",
"                                  -*=#+                  *############@&                 -]#])                                  ",
"                                    0+:)               (@###############+               <_=;                                    ",
"                                                      )=#################$              )-                                      ",
"                                                     :####################@k                                                    ",
"                                                   '*######################@%                                                   ",
"                                                  !d#########################+                                                  ",
"                                                   )}#######################$                                                   ",
"                                                     @####################=-                                                    ",
"                                                      j$=###############@;                                                      ",
"                                                         +@@#########@:,                                                        ",
"                                                            (r$$$$$rs                                                           ",
"                                                                                                                                ",
"                                                                                                                                ",
"                                                                                                                                ",
"                                                                                                                                ",
"                                                                                                                                ",
"                                                                                                                                ",
"                                                                                                                                ",
"                                                                                                                                ",
"                                                                                                                                ",
"                                                                                                                                "};
