/* XPM */
static char * C:\Users\illacertus\Desktop\SPARK BASE\Wallet\share\pixmaps\bitcoin16_xpm[] = {
"16 16 9 1",
" 	c None",
".	c #143057",
"+	c #153057",
"@	c #132F56",
"#	c #152F57",
"$	c #142F56",
"%	c #142F57",
"&	c #153056",
"*	c #142F55",
"                ",
"       .+       ",
"    @  #+  $    ",
"   +$++  ++$$   ",
"   $++    ++$   ",
"   ++ $++$ ++   ",
"   + +++++% +   ",
" ++  ++++++  ++ ",
" $+  ++++++  +# ",
"   + ++++++ +   ",
"   ++ %&.. ++   ",
"  $$++$   ++$*  ",
"   $$$+  ++$+   ",
"       ++  *    ",
"       $.       ",
"                "};
