/* XPM */
static char * C:\Users\illacertus\Desktop\SPARK BASE\Wallet\share\pixmaps\bitcoin64_xpm[] = {
"64 64 25 1",
" 	c None",
".	c #132D55",
"+	c #142F56",
"@	c #132E55",
"#	c #142F57",
"$	c #153057",
"%	c #143057",
"&	c #122D55",
"*	c #132E56",
"=	c #132D54",
"-	c #122D54",
";	c #122E55",
">	c #132F56",
",	c #112D54",
"'	c #142E56",
")	c #122C54",
"!	c #142F55",
"~	c #122E54",
"{	c #143056",
"]	c #152F57",
"^	c #112C53",
"/	c #112C54",
"(	c #153056",
"_	c #142E55",
":	c #132F55",
"                                                                ",
"                                                                ",
"                                                                ",
"                                                                ",
"                              .++@                              ",
"                           @#$$$$$$$@                           ",
"                          %$$$$$$$$$$$&                         ",
"                          +$$$$$$$$$$$                          ",
"                           *$$$$$$$$+       =                   ",
"                 @%         .$$$$$$@         $@                 ",
"                +$            %$$$-           $$;               ",
"              &$$     @+++*    ++    **>>@     $$@              ",
"             @$$   ;$$$$$$$$+      +$$$$$$$%@   $$+             ",
"            @$$  ,$$$$$$$$$$$+    @$$$$$$$$$$$&  $$'            ",
"           -$$  @$$$$$$$$$$$@      &$$$$$$$$$$$>  +$@           ",
"           $$  +$$$$$$$$$$$@        &$$$$$$$$$$$'  +$)          ",
"          +$  @$$$$$$$$$$$@          -$$$$$$$$$$$*  +$          ",
"         -$   $$$$$$$$$$$*            ;$$$$$$$$$$$   %@         ",
"         +   +$$$$$$$$$$*              ;$$$$$$$$$$#   +         ",
"             $$$$$$$$$$@      -**-      &$$$$$$$$$$;            ",
"            !$$$$$$$$$@    *$$$$$$$$+    ;$$$$$$$$$+            ",
"            $$$$$$$$$~   @$$$$$$$$$$$$*   &$$$$$$$$$            ",
"            $$$$$$$$&   {$$$$$$$$$$$$$$$   &$$$$$$$$            ",
"            $$$$$$$&   ]$$$$$$$$$$$$$$$$$   &$$$$$$$*           ",
"            $$$$$$&   +$$$$$$$$$$$$$$$$$$]   &$$$$$$*           ",
"       #    $$$$$;   @$$$$$$$$$$$$$$$$$$$$*   ,$$$$$-   +       ",
"      +$@   $$$$;    $$$$$$$$$$$$$$$$$$$$$$    ^$$$$   ;$%      ",
"      $$$@  +$$&    -$$$$$$$$$$$$$$$$$$$$$$@    ,$$+   $$$;     ",
"     '$$$$   $&     >$$$$$$$$$$$$$$$$$$$$$$+     /$   $$$$+     ",
"     $$$$$$         +$$$$$$$$$$$$$$$$$$$$$$$         +$$$$$     ",
"     $$$$$$+        $$$$$$$$$$$$$$$$$$$$$$$$        >$$$$$$     ",
"     $$$$$$$@       $$$$$$$$$$$$$$$$$$$$$$$$        $$$$$$$     ",
"     $$$$$$#        $$$$$$$$$$$$$$$$$$$$$$$$        +$$$$$$     ",
"     $$$$$$         $$$$$$$$$$$$$$$$$$$$$$$$         $$$$$$     ",
"     +$$$$.  (      +$$$$$$$$$$$$$$$$$$$$$$#      %  /$$$$]     ",
"     ~$$$*  @$$     @$$$$$$$$$$$$$$$$$$$$$$@     $$+  *$$$*     ",
"      $$+   %$$$     $$$$$$$$$$$$$$$$$$$$$$     $$$$   +$$      ",
"      -$    $$$$$    @$$$$$$$$$$$$$$$$$$$$+    $$$$$@   $;      ",
"            $$$$$$    $$$$$$$$$$$$$$$$$$$$    $$$$$$>           ",
"            $$$$$$$,   $$$$$$$$$$$$$$$$$$.   $$$$$$$*           ",
"            $$$$$$$$,   $$$$$$$$$$$$$$$$-   $$$$$$$$            ",
"            $$$$$$$$$&   #$$$$$$$$$$$$%    $$$$$$$$$            ",
"            +$$$$$$$$$,   .%$$$$$$$$$@    $$$$$$$$$+            ",
"            .$$$$$$$$$$,     **++**      $$$$$$$$$$@            ",
"         +   $$$$$$$$$$$)               $$$$$$$$$$$   _         ",
"         @+  ~$$$$$$$$$$$-             $$$$$$$$$$$;  '>         ",
"          $+  '$$$$$$$$$$$/           $$$$$$$$$$$+  !$          ",
"          -$+  $$$$$$$$$$$$-         $$$$$$$$$$$$  _$;          ",
"           >$+  {$$$$$$$$$$$)       $$$$$$$$$$$$  +$>           ",
"            +$+  >$$$$$$$$$$$&     $$$$$$$$$$$+  +$+            ",
"             +$+   +$$$$$$$$$.     +$$$$$$$$#&  +$$             ",
"              *$$    @++#++@   @_   -@++++@&   +$+              ",
"               =$#            *$$+            +$'               ",
"                 +#          #$$$$$          ++,                ",
"                   &       -$$$$$$$$@       @&                  ",
"                          *$$$$$$$$$$'                          ",
"                         -$$$$$$$$$$$$@                         ",
"                           +$$$$$$$$+&                          ",
"                             @:+++@                             ",
"                                                                ",
"                                                                ",
"                                                                ",
"                                                                ",
"                                                                "};
