/* XPM */
static char * C:\Users\illacertus\Desktop\SPARK BASE\Wallet\share\pixmaps\bitcoin32_xpm[] = {
"32 32 13 1",
" 	c None",
".	c #132F56",
"+	c #142F56",
"@	c #153057",
"#	c #132E56",
"$	c #152F57",
"%	c #132E55",
"&	c #143056",
"*	c #142F57",
"=	c #143057",
"-	c #122D54",
";	c #122E55",
">	c #142E56",
"                                ",
"                                ",
"              .+++              ",
"             @@@@@@             ",
"         #    $@@@    %         ",
"       %&      ++      @.       ",
"      +@ +@@@@+  +@@@@+ @+      ",
"      @ @@@@@@    *@@@@@ +%     ",
"     + @@@@@@      =@@@@@ +     ",
"      +@@@@@        *@@@@. -    ",
"      @@@@&  +@@@@+  $@@@@      ",
"      @@@*  @@@@@@@@  @@@@      ",
"      @@@  @@@@@@@@@@  =@@      ",
"   @+ @$  +@@@@@@@@@@+  =@ %@   ",
"   @@     *@@@@@@@@@@@   % @@+  ",
"  +@@@    @@@@@@@@@@@@    @@@*  ",
"  +@@*    @@@@@@@@@@@@    +@@+  ",
"   @@ +   +@@@@@@@@@@*   + @@   ",
"   @  @@  #@@@@@@@@@@+  @@  =   ",
"      @@@% @@@@@@@@@@  @@@      ",
"      @@@@% *@@@@@@=  @@@@      ",
"      +@@@@;  ++++   @@@@+      ",
"    %  @@@@@%       @@@@@  %    ",
"     + +@@@@@%     @@@@@+ &     ",
"      @ +@@@@@%   @@@@@+ @      ",
"       *  ++=+    +@@+  @       ",
"        +      @@      +        ",
"             #@@@@>             ",
"             +@@@@+             ",
"                                ",
"                                ",
"                                "};
