/* XPM */
static char *_ee3016d1e7a4c40c1c3c4e27b7d307961cLRSOE6Oq5nQJe[] = {
/* columns rows colors chars-per-pixel */
"128 128 2 1 ",
"  c None",
". c #E32435",
/* pixels */
"                                                                                                                                ",
"                                                                                                                                ",
"                                                                                                                                ",
"                                                                                                                                ",
"                                                                                                                                ",
"                                                                                                                                ",
"                                                                                                                                ",
"                                                                                                                                ",
"                                                                                                                                ",
"                                                                                                                                ",
"                                                                                                                                ",
"                                                                                                                                ",
"                                                                                                                                ",
"                                                                                                                                ",
"                                                                                                                                ",
"                                                                                                                                ",
"                                                                                                                                ",
"                                                            ........                                                            ",
"                                                         ..............                                                         ",
"                                                       ..................                                                       ",
"                                                     ......................                                                     ",
"                                                    ........................                                                    ",
"                                                     ......................                                                     ",
"                                                      ....................                                                      ",
"                                          ..            ................            ...                                         ",
"                                        ...              ..............              ....                                       ",
"                                      ....                ............                .....                                     ",
"                                    .....                  .........                   .....                                    ",
"                                   .....                     ......                     .....                                   ",
"                                  .....       ..........      ....      ..........       .....                                  ",
"                                ......     ...............     ..     ...............     ......                                ",
"                               ......    ...................        ...................    ......                               ",
"                              ......    .....................      .....................    ......                              ",
"                              .....   ......................        ......................   .....                              ",
"                             .....   ......................          ......................   .....                             ",
"                            .....   ......................            ......................   .....                            ",
"                           .....   ......................              ......................   .....                           ",
"                           ....   ......................                ......................   ....                           ",
"                          ....   ......................                  ......................   ....                          ",
"                         ....   ......................                    .....................    ....                         ",
"                         ...    ....................                       .....................    ...                         ",
"                         ..    ....................                         .....................    ...                        ",
"                        ..     ...................                           ....................     ..                        ",
"                        .     ...................          ..........          ...................     .                        ",
"                              ..................        ................        ..................                              ",
"                              .................       ....................       .................                              ",
"                             .................      ........................      .................                             ",
"                             ................      ..........................      ................                             ",
"                             ...............      ............................      ...............                             ",
"                             ..............      ..............................      ..............                             ",
"                             .............      ................................      .............                             ",
"                             ............      ..................................      ............                             ",
"                     .       ...........      ....................................      ...........                             ",
"                     ..      ..........       ....................................       ..........      ..                     ",
"                    ....     .........       ......................................       .........     ....                    ",
"                   ......    ........        ......................................        ........     .....                   ",
"                   ......     ......        ........................................        ......     ......                   ",
"                  ........    .....         ........................................         .....    ........                  ",
"                  .........   ....          ........................................          ...    .........                  ",
"                  ..........   ..          ..........................................          ..   ..........                  ",
"                 ...........               ..........................................               ...........                 ",
"                 ............              ..........................................              ............                 ",
"                 .............             ..........................................             .............                 ",
"                 ..............            ..........................................            ..............                 ",
"                 ..............            ..........................................            ..............                 ",
"                 .............             ..........................................             .............                 ",
"                 ............              ..........................................              ............                 ",
"                 ...........               ..........................................               ...........                 ",
"                  ..........   ..          ..........................................          ..   ..........                  ",
"                  .........    ...          ........................................          ....   .........                  ",
"                  ........    .....         ........................................         .....    ........                  ",
"                   ......     ......        ........................................        ......     ......                   ",
"                   .....     ........        ......................................        ........    ......                   ",
"                    ....     .........       ......................................       .........     ....                    ",
"                     ..      ..........       ....................................       ..........      ..                     ",
"                     .       ...........      ....................................      ...........       .                     ",
"                             ............      ..................................      ............                             ",
"                             .............      ................................      .............                             ",
"                             ..............      ..............................      ..............                             ",
"                             ...............      ............................      ...............                             ",
"                             ................      ..........................      ................                             ",
"                             .................      ........................      .................                             ",
"                              .................       ....................       .................                              ",
"                              ..................        ................        ..................                              ",
"                        .     ...................          ..........          ..................      .                        ",
"                        ..     ...................                            ...................     ..                        ",
"                        ...    ....................                          ...................     ...                        ",
"                         ...    ....................                        ....................    ...                         ",
"                         ....    ....................                      ....................    ....                         ",
"                          ....   .....................                    .....................   ....                          ",
"                          .....   .....................                  .....................   ....                           ",
"                           .....   .....................               ......................   .....                           ",
"                            .....   .....................             ......................   .....                            ",
"                             .....   ......................          ......................   .....                             ",
"                              .....   ......................        ......................   .....                              ",
"                              ......   .....................        .....................   .....                               ",
"                               ......    ...................         ..................    .....                                ",
"                                ......     ...............     ..     ...............     .....                                 ",
"                                  .....       ..........      ....       .........       .....                                  ",
"                                   .....                     ......                     .....                                   ",
"                                    .....                   ........                   .....                                    ",
"                                      ....                ............                ....                                      ",
"                                        ...              ..............              ....                                       ",
"                                           .            ................            ...                                         ",
"                                                      ....................                                                      ",
"                                                     ......................                                                     ",
"                                                    ........................                                                    ",
"                                                     ......................                                                     ",
"                                                       ..................                                                       ",
"                                                         ..............                                                         ",
"                                                             .......                                                            ",
"                                                                                                                                ",
"                                                                                                                                ",
"                                                                                                                                ",
"                                                                                                                                ",
"                                                                                                                                ",
"                                                                                                                                ",
"                                                                                                                                ",
"                                                                                                                                ",
"                                                                                                                                ",
"                                                                                                                                ",
"                                                                                                                                ",
"                                                                                                                                ",
"                                                                                                                                ",
"                                                                                                                                ",
"                                                                                                                                ",
"                                                                                                                                ",
"                                                                                                                                "
};
