/* XPM */
static char *_d05b855aa194865b7da0945855e88e3fE00fNpJc3UDXMaC[] = {
/* columns rows colors chars-per-pixel */
"16 16 2 1 ",
"  c None",
". c #E32435",
/* pixels */
"      ...       ",
"       ..       ",
"   ....  .....  ",
"  ....   .....  ",
"  .... .. ....  ",
"  ............  ",
". .  ...... .. .",
"..  ........  ..",
"..  ........  ..",
"  .. ...... .. .",
"  ............  ",
"  .... .. ....  ",
"  .....  ....   ",
"  .....  .....  ",
"       ..       ",
"      ....      "
};
