/* XPM */
static char *_7adac30b38244ab8aae3e5760863a52gLn7bA1lS7dPUxzD[] = {
/* columns rows colors chars-per-pixel */
"64 64 2 1 ",
"  c None",
". c #E32435",
/* pixels */
"                                                                ",
"                                                                ",
"                                                                ",
"                                                                ",
"                                                                ",
"                                                                ",
"                                                                ",
"                                                                ",
"                                                                ",
"                            ........                            ",
"                          ............                          ",
"                           ..........                           ",
"                    ..      ........      ..                    ",
"                   ..        ......        ...                  ",
"                 ...    ...    ..    ..     ...                 ",
"                ...  ........      ........  ...                ",
"               ... ...........    ..........  ...               ",
"              ... ...........      ........... ...              ",
"             ... ...........        ........... ...             ",
"             .. ...........          ..........  ..             ",
"            ..  ..........            ..........  ..            ",
"            .  ..........      .       ..........  .            ",
"               .........    ........    .........               ",
"               ........   ............   ........               ",
"               .......   ..............   .......               ",
"              .......   ................   .......              ",
"              ......   ..................   .....               ",
"          ..   ....   ...................    ....   ..          ",
"         ....  ...    ....................    ...  ....         ",
"         ..... ..     ....................     .  .....         ",
"         .....        ....................        .....         ",
"         ......      ......................      ......         ",
"         ......      ......................      ......         ",
"         .....        ....................        .....         ",
"         .....  .     ....................     .. .....         ",
"         ....  ...    ....................    ...  ....         ",
"          ..   ....   ....................   ....   ..          ",
"          .    .....   ..................   ......              ",
"              .......   ................   .......              ",
"               .......   ..............   .......               ",
"               ........   ............   ........               ",
"               .........   ..........   .........               ",
"            .  ..........      ..      ..........  .            ",
"            ..  ..........            ..........  ..            ",
"             .. ...........          ..........  ..             ",
"             ... ...........        ........... ...             ",
"              ... ...........      ........... ...              ",
"               ... ...........    ........... ...               ",
"                ...  .........     ........  ...                ",
"                 ...    ...    ..     ..    ...                 ",
"                  ...         ....         ...                  ",
"                    ..      ........      ..                    ",
"                           ..........                           ",
"                          ............                          ",
"                            ........                            ",
"                              ....                              ",
"                                                                ",
"                                                                ",
"                                                                ",
"                                                                ",
"                                                                ",
"                                                                ",
"                                                                ",
"                                                                "
};
