/* XPM */
static char *_3703ec4061d4fb7e3e03ddc56e18230D7lLc2wQfSplmV7f[] = {
/* columns rows colors chars-per-pixel */
"32 32 2 1 ",
"  c None",
". c #E32435",
/* pixels */
"              ....              ",
"            ........            ",
"             ......             ",
"       .      ....      ..      ",
"     ..  .....    .....  ..     ",
"    .. .......   ........ ..    ",
"    . ........    ........ .    ",
"   . ........      ........ .   ",
"     .......        .......     ",
"    .......  ......  .......    ",
"    ...... ..........  .....    ",
"    ..... ............ .....    ",
" .  ...   ............   ...  . ",
" .. ..   ..............  ... ...",
"....     ..............     ....",
"....     ..............     ....",
"....     ..............     ....",
"....     ..............     ....",
" .. ...  ..............  ... ...",
" .  ....  ............  ....  . ",
"    ..... ............ .....    ",
"    ...... .......... ......    ",
"    .......  ......  .......    ",
"     .......        .......     ",
"   . ........      ........ .   ",
"   .. ........    ........ .    ",
"    .. .......    ....... ..    ",
"     ..  .....    .....  ..     ",
"       .      ....      .       ",
"             ......             ",
"            ........            ",
"              ....              "
};
