<?xml version="1.0" encoding="UTF-8" standalone="no"?><!DOCTYPE svg PUBLIC "-//W3C//DTD SVG 1.1//EN" "http://www.w3.org/Graphics/SVG/1.1/DTD/svg11.dtd"><svg width="100%" height="100%" viewBox="0 0 1250 417" version="1.1" xmlns="http://www.w3.org/2000/svg" xmlns:xlink="http://www.w3.org/1999/xlink" xml:space="preserve" xmlns:serif="http://www.serif.com/" style="fill-rule:evenodd;clip-rule:evenodd;stroke-linejoin:round;stroke-miterlimit:2;"><g><g id="Artboard"><g id="RED-Sparkbase-Logo-SVG.svg" serif:id="RED Sparkbase Logo SVG.svg"><g><g><path d="M211.968,294.307c47.154,-0.015 85.949,-38.82 85.949,-85.974c0,-47.164 -38.809,-85.973 -85.973,-85.973c-47.164,-0 -85.974,38.809 -85.974,85.973c0,0.28 0.002,0.557 0.004,0.837c0.39,46.88 39.112,85.216 85.994,85.137Z" style="fill:#e32435;"/></g><g><path d="M198.363,79.139c-27.087,-24.599 -74.612,-17.603 -106.513,18.357c-27.821,31.289 -30.595,78.202 -10.198,96.151l116.711,-114.508Z" style="fill:#e32435;"/></g><g><path d="M341.306,193.851c23.273,-26.271 16.501,-72.878 -18.806,-104.942c-31.249,-28.372 -76.917,-31.309 -97.111,-9.607l115.917,114.549Z" style="fill:#e32435;"/></g><g><path d="M82.284,222.326c-23.701,27.536 -16.685,74.469 19.071,106.554c30.453,27.332 76.285,29.8 96.417,8.607l-115.488,-115.161Z" style="fill:#e32435;"/></g><g><path d="M225.593,337.61c27.373,23.007 74.449,17.317 102.985,-15.176c30.595,-34.858 34.532,-80.058 12.666,-99.945l-115.651,115.121Z" style="fill:#e32435;"/></g><g><path d="M383.976,256.756c25.68,-23.865 24.15,-76.489 -0.326,-96.56c-12.238,16.114 -24.538,32.228 -36.898,48.341c11.748,15.522 23.375,30.902 35.021,46.22c0.661,0.742 1.4,1.413 2.203,1.999Z" style="fill:#e32435;"/></g><g><path d="M39.512,159.707c-24.722,24.741 -24.885,72.878 -0,97.334l37.449,-48.952l-37.449,-48.382Z" style="fill:#e32435;"/></g><g><path d="M163.036,381.198c27.923,24.701 73.143,24.476 97.151,-0.286l-48.423,-37.183l-48.728,37.469Z" style="fill:#e32435;"/></g><g><path d="M163.077,35.591l48.687,37.449l48.668,-37.592c-27.455,-24.476 -70.86,-24.476 -97.355,0.143Z" style="fill:#e32435;"/></g><g><path d="M292.353,45.361l82.057,81.119c2.366,-23.558 -53.359,-83.199 -82.057,-81.119Z" style="fill:#e32435;"/></g><g><path d="M130.727,45.647c-31.105,2.346 -80.262,51.931 -81.282,80.711l81.282,-80.711Z" style="fill:#e32435;"/></g><g><path d="M374.471,290.186l-81.955,80.773c23.579,3.793 82.975,-53.522 81.955,-80.773Z" style="fill:#e32435;"/></g><g><path d="M130.217,370.449l-81.078,-79.875c-0.551,27.006 50.544,78.223 81.078,79.875Z" style="fill:#e32435;"/></g><g><path d="M211.968,294.307c-0.175,0.002 -0.351,0.002 -0.526,0.002c-47.164,-0 -85.973,-38.81 -85.973,-85.974c-0,-47.164 38.809,-85.973 85.973,-85.973c46.848,0 85.512,38.289 85.969,85.135c0.004,0.381 0.008,0.761 0.008,1.142c0,46.913 -38.538,85.549 -85.451,85.668Z" style="fill:#e32435;"/></g><g><path d="M198.363,79.139l-116.589,114.468c-20.397,-17.95 -17.664,-64.863 10.199,-96.152c31.778,-35.919 79.303,-42.915 106.39,-18.316Z" style="fill:#e32435;"/></g><g><path d="M341.306,193.851l-115.917,-114.549c20.194,-21.702 65.862,-18.765 97.111,9.607c35.307,32.064 42.079,78.671 18.806,104.942Z" style="fill:#e32435;"/></g><g><path d="M82.284,222.326l115.488,115.161c-20.132,21.193 -65.964,18.725 -96.417,-8.607c-35.756,-32.085 -42.772,-79.018 -19.071,-106.554Z" style="fill:#e32435;"/></g><g><path d="M225.593,337.61l115.651,-115.223c21.866,19.989 17.929,65.27 -12.666,99.945c-28.556,32.595 -75.612,38.285 -102.985,15.278Z" style="fill:#e32435;"/></g><g><path d="M383.976,256.756c-0.82,-0.598 -1.572,-1.281 -2.244,-2.04c-11.646,-15.318 -23.272,-30.697 -35.021,-46.219c12.238,-16.141 24.537,-32.254 36.898,-48.341c24.517,20.111 26.047,72.735 0.367,96.6Z" style="fill:#e32435;"/></g><g><path d="M39.512,159.707l37.449,48.3l-37.449,48.953c-24.885,-24.375 -24.722,-72.512 -0,-97.253Z" style="fill:#e32435;"/></g><g><path d="M163.036,381.198l48.728,-37.469l48.423,37.183c-24.008,24.681 -69.228,24.987 -97.151,0.286Z" style="fill:#e32435;"/></g><g><path d="M163.077,35.591c26.516,-24.619 69.9,-24.68 97.355,0l-48.668,37.531l-48.687,-37.531Z" style="fill:#e32435;"/></g><g><path d="M292.353,45.361c28.698,-2.039 84.423,57.561 82.057,81.119l-82.057,-81.119Z" style="fill:#e32435;"/></g><g><path d="M130.727,45.647l-81.343,80.67c1.02,-28.78 50.176,-78.365 81.343,-80.67Z" style="fill:#e32435;"/></g><g><path d="M374.471,290.186c1.02,27.251 -58.376,84.566 -81.955,80.773l81.955,-80.773Z" style="fill:#e32435;"/></g><g><path d="M130.217,370.449c-30.595,-1.652 -81.588,-52.869 -81.037,-79.875l81.037,79.875Z" style="fill:#e32435;"/></g><g><path d="M476.517,142.206c6.752,5.875 15.563,9.974 23.498,9.974c8.974,0 13.38,-3.528 13.38,-9.239c0,-6.12 -5.446,-7.935 -13.809,-11.464l-12.238,-5.282c-9.994,-3.978 -19.397,-12.239 -19.397,-26.149c-0,-15.869 14.278,-28.556 34.083,-28.556c11.526,0.039 22.596,4.571 30.84,12.626l-10.871,13.666c-6.303,-4.855 -12.239,-7.629 -19.969,-7.629c-7.73,0 -12.238,3.223 -12.238,8.648c-0,5.875 6.323,7.935 14.686,11.321l12.238,4.997c11.606,4.691 18.949,12.483 18.949,25.986c-0,15.869 -13.218,29.677 -35.981,29.677c-13.148,-0.046 -25.82,-4.968 -35.552,-13.808l12.381,-14.768Z" style="fill:#231f20;fill-rule:nonzero;"/></g><g><path d="M572.118,73.305l34.961,0c20.866,0 37.448,7.649 37.448,30.861c0,22.437 -17.174,32.451 -37.448,32.451l-13.218,0l0,32.452l-21.743,0l0,-95.764Zm33.635,46.138c11.891,0 17.623,-5.303 17.623,-15.277c-0,-9.974 -6.119,-13.666 -17.623,-13.666l-11.892,-0l0,28.943l11.892,0Z" style="fill:#231f20;fill-rule:nonzero;"/></g><g><path d="M719.282,146.306l-29.371,0l-5.875,22.763l-22.028,0l30.106,-95.764l25.843,0l30.106,95.866l-22.906,0l-5.875,-22.865Zm-4.405,-16.889l-2.346,-8.811c-2.652,-9.546 -5.14,-20.846 -7.792,-30.84l-0.591,-0c-2.203,10.198 -4.834,21.294 -7.486,30.84l-2.345,8.811l20.56,0Z" style="fill:#231f20;fill-rule:nonzero;"/></g><g><path d="M830.446,169.069l-18.357,-34.512l-11.749,0l0,34.512l-21.723,0l0,-95.764l34.512,0c20.254,0 37,7.058 37,29.821c0,14.114 -6.894,23.069 -17.031,27.617l21.58,38.326l-24.232,0Zm-30.106,-51.686l11.014,0c11.321,0 17.481,-4.854 17.481,-14.278c-0,-9.423 -6.119,-12.626 -17.481,-12.626l-11.014,0l0,26.904Z" style="fill:#231f20;fill-rule:nonzero;"/></g><g><path d="M889.495,73.305l21.723,0l0,39.224l0.449,-0l28.556,-39.224l23.721,0l-28.922,38.204l34.368,57.56l-23.803,0l-23.212,-40.386l-11.157,14.686l0,25.7l-21.723,0l0,-95.764Z" style="fill:#231f20;fill-rule:nonzero;"/></g><g><path d="M475.946,197.503l49.565,-0c30.249,-0 53.583,8.158 53.583,36.021c0.179,14.832 -10.042,27.915 -24.477,31.329l0,0.898c20.683,3.773 31.575,14.665 31.575,34.022c0,29.555 -24.905,42.671 -56.479,42.671l-53.767,-0l0,-144.941Zm48.015,58.457c16.011,0 23.11,-6.873 23.11,-17.765c-0,-10.892 -7.547,-15.359 -22.662,-15.359l-15.562,-0l-0,33.124l15.114,0Zm3.121,61.191c17.786,0 27.107,-6.669 27.107,-19.785c0,-12.687 -9.117,-18.235 -27.107,-18.235l-18.235,0l-0,38.02l18.235,0Z" style="fill:#231f20;fill-rule:nonzero;"/></g><g><path d="M678.468,307.993l-44.465,0l-8.894,34.451l-33.41,-0l45.567,-144.941l39.122,-0l45.587,144.941l-34.675,-0l-8.832,-34.451Zm-6.67,-25.557l-3.549,-13.34c-4.079,-14.461 -7.792,-31.575 -11.789,-46.689l-0.877,0c-3.346,15.339 -7.343,32.228 -11.341,46.689l-3.59,13.34l31.146,-0Z" style="fill:#231f20;fill-rule:nonzero;"/></g><g><path d="M746.716,301.772c10.199,8.893 23.559,15.114 35.573,15.114c13.543,0 20.213,-5.344 20.213,-14.013c0,-9.117 -8.159,-11.993 -20.886,-17.337l-18.582,-7.996c-15.114,-6.017 -29.331,-18.459 -29.331,-39.57c0,-24.007 21.56,-43.139 51.564,-43.139c17.453,0.055 34.216,6.922 46.688,19.132l-16.44,20.662c-9.566,-7.343 -18.683,-11.565 -30.248,-11.565c-11.117,-0 -18.358,4.895 -18.358,13.115c0,8.893 9.546,12.014 22.233,17.134l18.357,7.547c17.562,7.118 28.679,18.908 28.679,39.345c-0,24.028 -20.01,44.874 -54.46,44.874c-19.898,-0.065 -39.079,-7.51 -53.808,-20.887l18.806,-22.416Z" style="fill:#231f20;fill-rule:nonzero;"/></g><g><path d="M860.348,197.503l90.91,-0l-0,27.637l-58.01,0l0,29.127l49.28,0l-0,27.353l-49.28,-0l0,33.267l60.233,0l-0,27.557l-93.133,-0l0,-144.941Z" style="fill:#231f20;fill-rule:nonzero;"/></g></g></g></g></g></svg>