<?xml version="1.0" encoding="UTF-8" standalone="no"?>
<!DOCTYPE svg PUBLIC "-//W3C//DTD SVG 1.1//EN" "http://www.w3.org/Graphics/SVG/1.1/DTD/svg11.dtd">
<svg width="100%" height="100%" viewBox="0 0 24 24" version="1.1" xmlns="http://www.w3.org/2000/svg" xmlns:xlink="http://www.w3.org/1999/xlink" xml:space="preserve" xmlns:serif="http://www.serif.com/" style="fill-rule:evenodd;clip-rule:evenodd;stroke-linejoin:round;stroke-miterlimit:2;">
    <rect id="Rectangle_4527" x="0.4" y="0" width="24" height="24" style="fill:none;fill-rule:nonzero;"/>
    <g id="Bitcoin_Dark">
        <g>
            <path d="M7.8,8C4.1,8 1.1,11 1.1,14.7C1.1,18.4 4.1,21.4 7.8,21.4C11.5,21.4 14.5,18.4 14.5,14.7C14.5,11 11.4,8 7.8,8ZM12.8,14.6C12.8,17.4 10.5,19.6 7.8,19.6C5,19.6 2.8,17.3 2.8,14.6C2.8,11.9 5.1,9.6 7.8,9.6C10.5,9.6 12.8,11.8 12.8,14.6Z" style="fill:white;fill-rule:nonzero;"/>
            <path d="M22.2,5.5C22,4.6 19.4,3.8 16.2,3.8C13,3.8 10.4,4.5 10.2,5.5L10.2,6.9C10.4,7.8 13,8.6 16.2,8.6C19.4,8.6 22,7.9 22.2,6.9L22.2,5.5Z" style="fill:white;fill-rule:nonzero;"/>
            <path d="M16.2,9.1C14.8,9.1 13.5,9 12.3,8.7C12.9,9.2 13.4,9.8 13.9,10.4C14.6,10.5 15.4,10.5 16.2,10.5C19.4,10.5 22,9.8 22.2,8.8L22.2,7.7C21.4,8.6 18.8,9.1 16.2,9.1Z" style="fill:white;fill-rule:nonzero;"/>
            <path d="M16.2,11.2C15.6,11.2 15,11.2 14.4,11.1C14.6,11.5 14.8,12 14.9,12.4L16.2,12.4C19.4,12.4 22,11.7 22.2,10.7L22.2,9.8C21.4,10.8 18.8,11.2 16.2,11.2Z" style="fill:white;fill-rule:nonzero;"/>
            <path d="M16.2,13.3L15.1,13.3C15.2,13.7 15.2,14.2 15.2,14.6L16.2,14.6C19.4,14.6 22,13.9 22.2,12.9L22.2,11.8C21.4,12.8 18.8,13.3 16.2,13.3Z" style="fill:white;fill-rule:nonzero;"/>
            <path d="M16.2,15.2L15.2,15.2C15.2,15.7 15.1,16.1 15,16.5L16.3,16.5C19.5,16.5 22.1,15.8 22.3,14.8L22.3,13.7C21.4,14.7 18.8,15.2 16.2,15.2Z" style="fill:white;fill-rule:nonzero;"/>
            <path d="M16.2,17.3C15.7,17.3 15.2,17.3 14.7,17.2C14.5,17.6 14.3,18 14.1,18.4C14.8,18.5 15.5,18.5 16.2,18.5C19.4,18.5 22,17.8 22.2,16.8L22.2,15.7C21.4,16.8 18.8,17.3 16.2,17.3Z" style="fill:white;fill-rule:nonzero;"/>
            <path d="M10.6,15C10.3,14.7 9.9,14.5 9.5,14.4L9.5,14.3C9.8,14.2 10.1,14.1 10.4,13.8C10.6,13.5 10.8,13.2 10.8,12.8C10.8,12.3 10.6,11.8 10.2,11.5C9.8,11.2 9.3,11 8.7,11L8.4,11L8.4,10.3L7.7,10.3L7.7,11L6.9,11L6.9,10.3L6.2,10.3L6.2,11L5.2,11L5.2,11.9L5.9,11.9L5.9,17.2L5.1,17.2L5.1,18.1L6.1,18.1L6.1,18.7L6.8,18.7L6.8,18.1L7.6,18.1L7.6,18.7L8.3,18.7L8.3,18.1L8.5,18.1C9.2,18.1 9.8,17.9 10.2,17.6C10.6,17.3 10.8,16.8 10.8,16.2C11,15.6 10.8,15.3 10.6,15ZM8.4,11.8C8.8,11.8 9.2,11.9 9.4,12.1C9.6,12.3 9.8,12.6 9.8,12.9C9.8,13.3 9.7,13.6 9.4,13.7C9.1,13.9 8.7,14 8.2,14L6.9,14L6.9,11.8L8.4,11.8ZM9.7,17C9.4,17.2 9,17.3 8.5,17.3L6.9,17.3L6.9,14.8L8.4,14.8C9,14.8 9.4,14.9 9.7,15.1C10,15.3 10.1,15.6 10.1,16C10.1,16.5 10,16.8 9.7,17Z" style="fill:white;fill-rule:nonzero;"/>
        </g>
    </g>
    <path d="M9.3,5.5L8.7,5.1L9.3,5C9.4,5 9.5,4.9 9.4,4.8C9.4,4.7 9.3,4.6 9.2,4.7L8.2,4.9L7.6,4.6L8.2,4.3L9.1,4.5L9.2,4.5C9.3,4.5 9.4,4.4 9.4,4.4C9.4,4.3 9.3,4.2 9.3,4.2L8.7,4L9.3,3.7C9.4,3.6 9.4,3.5 9.4,3.5C9.3,3.4 9.2,3.3 9.2,3.4L8.5,3.7L8.7,3.2C8.7,3.1 8.6,3 8.6,3C8.5,3 8.4,3 8.4,3.1L8.1,3.9L7.5,4.2L7.5,3.5L8.2,2.9C8.3,2.8 8.3,2.7 8.2,2.7C8.1,2.7 8,2.6 7.9,2.7L7.5,3.1L7.5,2.4C7.5,2.3 7.4,2.2 7.3,2.2C7.2,2.2 7.1,2.3 7.1,2.4L7.1,3.1L6.7,2.6C6.6,2.5 6.5,2.5 6.4,2.6C6.3,2.7 6.3,2.8 6.4,2.8L7.1,3.4L7.1,4.1L6.4,3.9L6.2,3C6.2,2.9 6.1,2.8 6,2.9C5.9,2.9 5.8,3 5.9,3.1L6,3.6L5.4,3.3C5.3,3.2 5.2,3.3 5.2,3.4C5.1,3.5 5.2,3.6 5.3,3.6L5.9,3.9L5.3,4.1C5.2,4.1 5.1,4.2 5.2,4.3C5.2,4.3 5.3,4.4 5.4,4.4L5.5,4.4L6.4,4.2L7,4.5L6.3,4.8L5.4,4.6C5.3,4.6 5.2,4.7 5.2,4.7C5.2,4.8 5.3,4.9 5.3,4.9L5.8,5L5.2,5.4C5.1,5.4 5.1,5.6 5.1,5.6C5.2,5.7 5.2,5.7 5.3,5.7L5.4,5.7L6,5.4L5.8,6C5.8,6.1 5.9,6.2 5.9,6.2L6,6.2C6.1,6.2 6.2,6.1 6.2,6.1L6.4,5.2L7,4.9L7,5.6L6.3,6.2C6.2,6.3 6.2,6.4 6.3,6.4C6.4,6.5 6.5,6.5 6.6,6.4L7,6L7,6.7C7,6.8 7.1,6.9 7.2,6.9C7.3,6.9 7.4,6.8 7.4,6.7L7.4,6L7.8,6.4C7.9,6.5 7.9,6.5 8,6.5C8.1,6.5 8.1,6.5 8.1,6.4C8.2,6.3 8.2,6.2 8.1,6.2L7.3,5.6L7.3,4.8L8,5.2L8.2,6C8.2,6.1 8.3,6.1 8.4,6.1L8.5,6.1C8.6,6.1 8.7,6 8.6,5.9L8.6,5.4L9.2,5.7L9.3,5.7C9.4,5.7 9.4,5.6 9.5,5.6C9.5,5.7 9.5,5.5 9.3,5.5Z" style="fill:white;fill-rule:nonzero;"/>
</svg>
