<?xml version="1.0" encoding="UTF-8" standalone="no"?>
<!DOCTYPE svg PUBLIC "-//W3C//DTD SVG 1.1//EN" "http://www.w3.org/Graphics/SVG/1.1/DTD/svg11.dtd">
<svg width="100%" height="100%" viewBox="0 0 24 24" version="1.1" xmlns="http://www.w3.org/2000/svg" xmlns:xlink="http://www.w3.org/1999/xlink" xml:space="preserve" xmlns:serif="http://www.serif.com/" style="fill-rule:evenodd;clip-rule:evenodd;stroke-linejoin:round;stroke-miterlimit:2;">
    <g transform="matrix(0.106478,0,0,0.106478,2.03632,2.01662)">
        <g id="Sparkbase-Symbol-SVG.svg" serif:id="Sparkbase Symbol SVG.svg">
            <g>
                <g>
                    <g transform="matrix(1,0,0,1,-52.16,-51)">
                        <path d="M145.83,186.91C168.948,186.903 187.968,167.878 187.968,144.76C187.968,121.637 168.941,102.61 145.818,102.61C122.695,102.61 103.668,121.637 103.668,144.76C103.668,144.897 103.669,145.033 103.67,145.17C103.861,168.154 122.845,186.949 145.83,186.91Z" style="fill:rgb(227,36,53);"/>
                    </g>
                    <g transform="matrix(1,0,0,1,-52.16,-51)">
                        <path d="M139.16,81.42C125.88,69.36 102.58,72.79 86.94,90.42C73.3,105.76 71.94,128.76 81.94,137.56L139.16,81.42Z" style="fill:rgb(227,36,53);"/>
                    </g>
                    <g transform="matrix(1,0,0,1,-52.16,-51)">
                        <path d="M209.24,137.66C220.65,124.78 217.33,101.93 200.02,86.21C184.7,72.3 162.31,70.86 152.41,81.5L209.24,137.66Z" style="fill:rgb(227,36,53);"/>
                    </g>
                    <g transform="matrix(1,0,0,1,-52.16,-51)">
                        <path d="M82.25,151.62C70.63,165.12 74.07,188.13 91.6,203.86C106.53,217.26 129,218.47 138.87,208.08L82.25,151.62Z" style="fill:rgb(227,36,53);"/>
                    </g>
                    <g transform="matrix(1,0,0,1,-52.16,-51)">
                        <path d="M152.51,208.14C165.93,219.42 189.01,216.63 203,200.7C218,183.61 219.93,161.45 209.21,151.7L152.51,208.14Z" style="fill:rgb(227,36,53);"/>
                    </g>
                    <g transform="matrix(1,0,0,1,-52.16,-51)">
                        <path d="M230.16,168.5C242.75,156.8 242,131 230,121.16C224,129.06 217.97,136.96 211.91,144.86C217.67,152.47 223.37,160.01 229.08,167.52C229.404,167.884 229.766,168.213 230.16,168.5Z" style="fill:rgb(227,36,53);"/>
                    </g>
                    <g transform="matrix(1,0,0,1,-52.16,-51)">
                        <path d="M61.28,120.92C49.16,133.05 49.08,156.65 61.28,168.64L79.64,144.64L61.28,120.92Z" style="fill:rgb(227,36,53);"/>
                    </g>
                    <g transform="matrix(1,0,0,1,-52.16,-51)">
                        <path d="M121.84,229.51C135.53,241.62 157.7,241.51 169.47,229.37L145.73,211.14L121.84,229.51Z" style="fill:rgb(227,36,53);"/>
                    </g>
                    <g transform="matrix(1,0,0,1,-52.16,-51)">
                        <path d="M121.86,60.07L145.73,78.43L169.59,60C156.13,48 134.85,48 121.86,60.07Z" style="fill:rgb(227,36,53);"/>
                    </g>
                    <g transform="matrix(1,0,0,1,-52.16,-51)">
                        <path d="M185.24,64.86L225.47,104.63C226.63,93.08 199.31,63.84 185.24,64.86Z" style="fill:rgb(227,36,53);"/>
                    </g>
                    <g transform="matrix(1,0,0,1,-52.16,-51)">
                        <path d="M106,65C90.75,66.15 66.65,90.46 66.15,104.57L106,65Z" style="fill:rgb(227,36,53);"/>
                    </g>
                    <g transform="matrix(1,0,0,1,-52.16,-51)">
                        <path d="M225.5,184.89L185.32,224.49C196.88,226.35 226,198.25 225.5,184.89Z" style="fill:rgb(227,36,53);"/>
                    </g>
                    <g transform="matrix(1,0,0,1,-52.16,-51)">
                        <path d="M105.75,224.24L66,185.08C65.73,198.32 90.78,223.43 105.75,224.24Z" style="fill:rgb(227,36,53);"/>
                    </g>
                    <g transform="matrix(1,0,0,1,-52.16,-51)">
                        <path d="M145.83,186.91C145.744,186.911 145.658,186.911 145.572,186.911C122.449,186.911 103.422,167.884 103.422,144.761C103.422,121.638 122.449,102.611 145.572,102.611C168.54,102.611 187.496,121.383 187.72,144.35C187.722,144.537 187.724,144.723 187.724,144.91C187.724,167.91 168.83,186.852 145.83,186.91Z" style="fill:rgb(227,36,53);"/>
                    </g>
                    <g transform="matrix(1,0,0,1,-52.16,-51)">
                        <path d="M139.16,81.42L82,137.54C72,128.74 73.34,105.74 87,90.4C102.58,72.79 125.88,69.36 139.16,81.42Z" style="fill:rgb(227,36,53);"/>
                    </g>
                    <g transform="matrix(1,0,0,1,-52.16,-51)">
                        <path d="M209.24,137.66L152.41,81.5C162.31,70.86 184.7,72.3 200.02,86.21C217.33,101.93 220.65,124.78 209.24,137.66Z" style="fill:rgb(227,36,53);"/>
                    </g>
                    <g transform="matrix(1,0,0,1,-52.16,-51)">
                        <path d="M82.25,151.62L138.87,208.08C129,218.47 106.53,217.26 91.6,203.86C74.07,188.13 70.63,165.12 82.25,151.62Z" style="fill:rgb(227,36,53);"/>
                    </g>
                    <g transform="matrix(1,0,0,1,-52.16,-51)">
                        <path d="M152.51,208.14L209.21,151.65C219.93,161.45 218,183.65 203,200.65C189,216.63 165.93,219.42 152.51,208.14Z" style="fill:rgb(227,36,53);"/>
                    </g>
                    <g transform="matrix(1,0,0,1,-52.16,-51)">
                        <path d="M230.16,168.5C229.758,168.207 229.389,167.872 229.06,167.5C223.35,159.99 217.65,152.45 211.89,144.84C217.89,136.927 223.92,129.027 229.98,121.14C242,131 242.75,156.8 230.16,168.5Z" style="fill:rgb(227,36,53);"/>
                    </g>
                    <g transform="matrix(1,0,0,1,-52.16,-51)">
                        <path d="M61.28,120.92L79.64,144.6L61.28,168.6C49.08,156.65 49.16,133.05 61.28,120.92Z" style="fill:rgb(227,36,53);"/>
                    </g>
                    <g transform="matrix(1,0,0,1,-52.16,-51)">
                        <path d="M121.84,229.51L145.73,211.14L169.47,229.37C157.7,241.47 135.53,241.62 121.84,229.51Z" style="fill:rgb(227,36,53);"/>
                    </g>
                    <g transform="matrix(1,0,0,1,-52.16,-51)">
                        <path d="M121.86,60.07C134.86,48 156.13,47.97 169.59,60.07L145.73,78.47L121.86,60.07Z" style="fill:rgb(227,36,53);"/>
                    </g>
                    <g transform="matrix(1,0,0,1,-52.16,-51)">
                        <path d="M185.24,64.86C199.31,63.86 226.63,93.08 225.47,104.63L185.24,64.86Z" style="fill:rgb(227,36,53);"/>
                    </g>
                    <g transform="matrix(1,0,0,1,-52.16,-51)">
                        <path d="M106,65L66.12,104.55C66.62,90.44 90.72,66.13 106,65Z" style="fill:rgb(227,36,53);"/>
                    </g>
                    <g transform="matrix(1,0,0,1,-52.16,-51)">
                        <path d="M225.5,184.89C226,198.25 196.88,226.35 185.32,224.49L225.5,184.89Z" style="fill:rgb(227,36,53);"/>
                    </g>
                    <g transform="matrix(1,0,0,1,-52.16,-51)">
                        <path d="M105.75,224.24C90.75,223.43 65.75,198.32 66.02,185.08L105.75,224.24Z" style="fill:rgb(227,36,53);"/>
                    </g>
                </g>
            </g>
        </g>
    </g>
    <g transform="matrix(1,0,0,1,9.2555,15.5867)">
        <g transform="matrix(1,0,0,1,0.7673,-0.0148189)">
            <text x="0px" y="0px" style="font-family:'NotoSans', 'Noto Sans', sans-serif;font-size:10px;fill:white;">S</text>
        </g>
        <g transform="matrix(1,0,0,1,-8.68052,-12.7544)">
            <text x="7.294px" y="11.011px" style="font-family:'NotoSans', 'Noto Sans', sans-serif;font-size:6px;fill:white;">z</text>
        </g>
    </g>
</svg>
