<?xml version="1.0" encoding="utf-8"?>
<!-- Generator: Adobe Illustrator 25.4.1, SVG Export Plug-In . SVG Version: 6.00 Build 0)  -->
<svg version="1.1" id="ic-transaction-staked" xmlns="http://www.w3.org/2000/svg" xmlns:xlink="http://www.w3.org/1999/xlink"
	 x="0px" y="0px" viewBox="0 0 24 24" style="enable-background:new 0 0 24 24;" xml:space="preserve">
<style type="text/css">
	.st0{fill:#FFFFFF;}
</style>
<path id="Rectangle_4527" class="st0" d="M0.4,0h24v24h-24C0.4,24,0.4,0,0.4,0z"/>
<g id="Bitcoin_Dark">
	<g>
		<path class="st0" d="M7.8,8c-3.7,0-6.7,3-6.7,6.7s3,6.7,6.7,6.7s6.7-3,6.7-6.7S11.4,8,7.8,8z M12.8,14.6c0,2.8-2.3,5-5,5
			c-2.8,0-5-2.3-5-5s2.3-5,5-5S12.8,11.8,12.8,14.6z"/>
		<path class="st0" d="M22.2,5.5c-0.2-0.9-2.8-1.7-6-1.7s-5.8,0.7-6,1.7l0,0v1.4l0,0c0.2,0.9,2.8,1.7,6,1.7s5.8-0.7,6-1.7l0,0V5.5
			L22.2,5.5z"/>
		<path class="st0" d="M16.2,9.1c-1.4,0-2.7-0.1-3.9-0.4c0.6,0.5,1.1,1.1,1.6,1.7c0.7,0.1,1.5,0.1,2.3,0.1c3.2,0,5.8-0.7,6-1.7l0,0
			V7.7C21.4,8.6,18.8,9.1,16.2,9.1z"/>
		<path class="st0" d="M16.2,11.2c-0.6,0-1.2,0-1.8-0.1c0.2,0.4,0.4,0.9,0.5,1.3c0.4,0,0.9,0,1.3,0c3.2,0,5.8-0.7,6-1.7l0,0V9.8
			C21.4,10.8,18.8,11.2,16.2,11.2z"/>
		<path class="st0" d="M16.2,13.3c-0.4,0-0.8,0-1.1,0c0.1,0.4,0.1,0.9,0.1,1.3c0.3,0,0.7,0,1,0c3.2,0,5.8-0.7,6-1.7l0,0v-1.1
			C21.4,12.8,18.8,13.3,16.2,13.3z"/>
		<path class="st0" d="M16.2,15.2c-0.3,0-0.7,0-1,0c0,0.5-0.1,0.9-0.2,1.3c0.4,0,0.8,0,1.3,0c3.2,0,5.8-0.7,6-1.7l0,0v-1.1
			C21.4,14.7,18.8,15.2,16.2,15.2z"/>
		<path class="st0" d="M16.2,17.3c-0.5,0-1,0-1.5-0.1c-0.2,0.4-0.4,0.8-0.6,1.2c0.7,0.1,1.4,0.1,2.1,0.1c3.2,0,5.8-0.7,6-1.7l0,0
			v-1.1C21.4,16.8,18.8,17.3,16.2,17.3z"/>
		<path class="st0" d="M10.6,15c-0.3-0.3-0.7-0.5-1.1-0.6v-0.1c0.3-0.1,0.6-0.2,0.9-0.5c0.2-0.3,0.4-0.6,0.4-1c0-0.5-0.2-1-0.6-1.3
			C9.8,11.2,9.3,11,8.7,11H8.4v-0.7H7.7V11H6.9v-0.7H6.2V11h-1v0.9h0.7v5.3H5.1v0.9h1v0.6h0.7v-0.6c0.3,0,0.5,0,0.8,0l0,0v0.6h0.7
			v-0.6c0.1,0,0.1,0,0.2,0c0.7,0,1.3-0.2,1.7-0.5s0.6-0.8,0.6-1.4C11,15.6,10.8,15.3,10.6,15z M8.4,11.8c0.4,0,0.8,0.1,1,0.3
			s0.4,0.5,0.4,0.8c0,0.4-0.1,0.7-0.4,0.8C9.1,13.9,8.7,14,8.2,14H6.9v-2.2C6.9,11.8,8.4,11.8,8.4,11.8z M9.7,17
			c-0.3,0.2-0.7,0.3-1.2,0.3c-0.3,0-0.6,0-0.9,0c-0.2,0-0.4,0-0.7,0v-2.5h1.5c0.6,0,1,0.1,1.3,0.3s0.4,0.5,0.4,0.9
			C10.1,16.5,10,16.8,9.7,17z"/>
	</g>
</g>
</svg>
