<?xml version="1.0" encoding="utf-8"?>
<!-- Generator: Adobe Illustrator 25.4.1, SVG Export Plug-In . SVG Version: 6.00 Build 0)  -->
<svg version="1.1" id="ic_error_sync" shape-rendering="geometricPrecision"
	 xmlns="http://www.w3.org/2000/svg" xmlns:xlink="http://www.w3.org/1999/xlink" x="0px" y="0px" viewBox="0 0 24 24"
	 style="enable-background:new 0 0 24 24;" xml:space="preserve">
<style type="text/css">
	.st0{fill:#FFFFFF;}
	.st1{fill:none;}
</style>
<g id="Group_8889">
	<g id="Group_8887">
		<path id="Path_18905" class="st0" d="M19.6,16.8c0.9-1.4,1.4-3.1,1.4-4.8h-2c0,1.2-0.3,2.3-0.8,3.3L19.6,16.8z"/>
		<path id="Path_18906" class="st0" d="M15.3,18.2c-3.1,1.7-7,0.8-9.1-2.2H9v-2H3v6h2v-2.4c2.8,3.6,7.9,4.4,11.8,2L15.3,18.2z"/>
	</g>
	<g id="Group_8888">
		<path id="Path_18907" class="st0" d="M8.7,5.8c3.1-1.7,7-0.8,9.1,2.2H15v2h6V4h-2v2.4c-2.8-3.6-7.9-4.4-11.8-2L8.7,5.8z"/>
		<path id="Path_18908" class="st0" d="M4.4,7.2C3.5,8.6,3,10.3,3,12h2c0-1.2,0.3-2.3,0.8-3.3L4.4,7.2z"/>
	</g>
</g>
<g id="Group_8890">
	<path id="Rectangle_4442" class="st0" d="M3.3,4.7l1.4-1.4l16,16l-1.4,1.4L3.3,4.7z"/>
</g>
<path id="Rectangle_4443" class="st1" d="M0,0h24v24H0V0z"/>
</svg>
