<?xml version="1.0" encoding="utf-8"?>
<!-- Generator: Adobe Illustrator 25.4.1, SVG Export Plug-In . SVG Version: 6.00 Build 0)  -->
<svg version="1.1" id="ic_zsparks" xmlns="http://www.w3.org/2000/svg" xmlns:xlink="http://www.w3.org/1999/xlink" x="0px" y="0px"
	 viewBox="0 0 24 24" style="enable-background:new 0 0 24 24;" xml:space="preserve">
<style type="text/css">
	.st0{fill:none;}
	.st1{fill-rule:evenodd;clip-rule:evenodd;fill:#E32435;}
	.st2{fill:#FFFFFF;}
	.st3{font-family:'MyriadPro-Regular';}
	.st4{font-size:7.857px;}
</style>
<path id="Rectangle_4542" class="st0" d="M0,0h24v24H0V0z"/>
<path id="Rectangle_4543" class="st0" d="M0.2-0.1h24v24h-24V-0.1z"/>
<path class="st1" d="M12,16c2.2,0,3.9-1.8,3.9-3.9S14.1,8.2,12,8.2c-2.2,0-3.9,1.8-3.9,3.9c0,0,0,0,0,0C8.1,14.3,9.8,16,12,16z"/>
<path class="st1" d="M11.4,6.2C10.1,5.1,8,5.4,6.5,7.1C5.2,8.5,5.1,10.6,6,11.5L11.4,6.2z"/>
<path class="st1" d="M17.9,11.5c1.1-1.2,0.8-3.3-0.9-4.8c-1.4-1.3-3.5-1.4-4.4-0.4L17.9,11.5z"/>
<path class="st1" d="M6.1,12.8C5,14,5.3,16.2,6.9,17.6c1.4,1.2,3.5,1.4,4.4,0.4L6.1,12.8z"/>
<path class="st1" d="M12.6,18c1.2,1,3.4,0.8,4.7-0.7c1.4-1.6,1.6-3.6,0.6-4.6L12.6,18z"/>
<path class="st1" d="M19.8,14.3c1.2-1.1,1.1-3.5,0-4.4c-0.6,0.7-1.1,1.5-1.7,2.2c0.5,0.7,1.1,1.4,1.6,2.1
	C19.7,14.3,19.8,14.3,19.8,14.3z"/>
<path class="st1" d="M4.1,9.9C3,11,3,13.2,4.1,14.3l1.7-2.2L4.1,9.9z"/>
<path class="st1" d="M9.7,20c1.3,1.1,3.3,1.1,4.4,0L12,18.3L9.7,20z"/>
<path class="st1" d="M9.7,4.3L12,6l2.2-1.7C12.9,3.1,11,3.1,9.7,4.3z"/>
<path class="st1" d="M15.6,4.7l3.7,3.7C19.5,7.3,16.9,4.6,15.6,4.7z"/>
<path class="st1" d="M8.3,4.7C6.9,4.8,4.6,7.1,4.6,8.4L8.3,4.7z"/>
<path class="st1" d="M19.4,15.9l-3.7,3.7C16.7,19.7,19.4,17.1,19.4,15.9z"/>
<path class="st1" d="M8.2,19.5l-3.7-3.6C4.5,17.1,6.9,19.4,8.2,19.5z"/>
<path class="st1" d="M12,16c-2.2,0-3.9-1.7-3.9-3.9c0-2.2,1.7-3.9,3.9-3.9c2.2,0,3.9,1.7,3.9,3.9C15.9,14.2,14.2,16,12,16
	C12,16,12,16,12,16z"/>
<path class="st1" d="M11.4,6.2L6,11.5c-0.9-0.8-0.8-3,0.5-4.4C8,5.4,10.1,5.1,11.4,6.2z"/>
<path class="st1" d="M17.9,11.5l-5.3-5.2c0.9-1,3-0.9,4.4,0.4C18.6,8.1,18.9,10.3,17.9,11.5z"/>
<path class="st1" d="M6.1,12.8l5.3,5.2c-0.9,1-3,0.9-4.4-0.4C5.3,16.2,5,14,6.1,12.8z"/>
<path class="st1" d="M12.6,18l5.3-5.2c1,0.9,0.8,3-0.6,4.6C16,18.8,13.8,19.1,12.6,18z"/>
<path class="st1" d="M19.8,14.3c0,0-0.1-0.1-0.1-0.1c-0.5-0.7-1.1-1.4-1.6-2.1c0.6-0.7,1.1-1.5,1.7-2.2C20.9,10.8,21,13.2,19.8,14.3
	z"/>
<path class="st1" d="M4.1,9.9l1.7,2.2l-1.7,2.2C3,13.2,3,11,4.1,9.9z"/>
<path class="st1" d="M9.7,20l2.2-1.7l2.2,1.7C13.1,21.1,11,21.1,9.7,20z"/>
<path class="st1" d="M9.7,4.3c1.2-1.1,3.2-1.1,4.4,0L12,6L9.7,4.3z"/>
<path class="st1" d="M15.6,4.7c1.3-0.1,3.8,2.6,3.7,3.7L15.6,4.7z"/>
<path class="st1" d="M8.3,4.7L4.6,8.4C4.6,7.1,6.9,4.8,8.3,4.7z"/>
<path class="st1" d="M19.4,15.9c0,1.2-2.7,3.9-3.7,3.7L19.4,15.9z"/>
<path class="st1" d="M8.2,19.5c-1.4-0.1-3.7-2.4-3.7-3.6L8.2,19.5z"/>
<text transform="matrix(1 0 0 1 9.7434 14.6437)" class="st2 st3 st4">Z</text>
</svg>
