<?xml version="1.0" encoding="utf-8"?>
<!-- Generator: Adobe Illustrator 25.4.1, SVG Export Plug-In . SVG Version: 6.00 Build 0)  -->
<svg version="1.1" id="Ebene_1" xmlns="http://www.w3.org/2000/svg" xmlns:xlink="http://www.w3.org/1999/xlink" x="0px" y="0px"
	 viewBox="0 0 24 24" style="enable-background:new 0 0 24 24;" xml:space="preserve">
<style type="text/css">
	.st0{fill:#FFFFFF;}
</style>
<desc>Created with Sketch.</desc>
<g id="Link_Light">
	<g>
		<path class="st0" d="M12.8,10.3c0.1,0,0.3,0.1,0.4,0.2l1.7,1.8c0.4,0.4,0.6,1,0.6,1.6c0,0.6-0.3,1.1-0.8,1.5l-6.3,5.4
			c-0.4,0.3-0.9,0.5-1.4,0.5c-0.6,0-1.2-0.3-1.6-0.7l-1.2-1.3c-0.4-0.4-0.6-1-0.5-1.6c0-0.6,0.3-1.1,0.7-1.5l3.2-2.9
			c0.1-0.1,0.2-0.1,0.3-0.1c0.1,0,0.3,0.1,0.4,0.2c0.2,0.2,0.2,0.5,0,0.7L4.9,17c-0.2,0.2-0.4,0.5-0.4,0.8c0,0.3,0.1,0.6,0.3,0.9
			L6,20c0.2,0.3,0.6,0.4,0.9,0.4c0.3,0,0.6-0.1,0.8-0.3l6.3-5.4c0.3-0.2,0.4-0.5,0.4-0.9c0-0.3-0.1-0.7-0.3-0.9l-1.7-1.8
			c-0.2-0.2-0.2-0.5,0-0.7C12.5,10.4,12.7,10.3,12.8,10.3 M12.8,9.9c-0.2,0-0.5,0.1-0.6,0.3c-0.4,0.4-0.4,1-0.1,1.3l1.7,1.8
			c0.1,0.2,0.2,0.3,0.2,0.6c0,0.2-0.1,0.4-0.3,0.5l-6.3,5.4C7.3,19.9,7.1,20,6.9,20c-0.2,0-0.4-0.1-0.6-0.3l-1.2-1.3
			C5,18.2,5,18,5,17.8c0-0.2,0.1-0.4,0.3-0.5l3.2-2.9c0.4-0.3,0.4-0.9,0.1-1.3c-0.2-0.2-0.4-0.3-0.7-0.3c-0.2,0-0.4,0.1-0.6,0.2
			L4,15.9c-0.5,0.5-0.8,1.1-0.9,1.8c0,0.7,0.2,1.4,0.7,1.9L4.9,21c0.5,0.6,1.3,0.9,2,0.9c0.6,0,1.2-0.2,1.7-0.6l6.3-5.4
			c0.6-0.5,0.9-1.1,0.9-1.9c0-0.7-0.2-1.4-0.7-2l-1.7-1.8C13.3,10,13,9.9,12.8,9.9L12.8,9.9z"/>
	</g>
	<g>
		<path class="st0" d="M17.5,3.3c0.6,0,1.2,0.3,1.7,0.7l1.2,1.3c0.8,0.9,0.7,2.3-0.2,3.1l-3.3,2.8c-0.1,0.1-0.2,0.1-0.3,0.1
			c-0.1,0-0.3-0.1-0.4-0.2c-0.1-0.1-0.1-0.2-0.1-0.4c0-0.1,0.1-0.2,0.2-0.3l3.3-2.8C20,7.3,20.1,6.5,19.6,6l-1.2-1.3
			c-0.2-0.3-0.6-0.4-0.9-0.4c-0.3,0-0.6,0.1-0.8,0.3l-6.4,5.4c-0.3,0.2-0.4,0.5-0.4,0.8c0,0.3,0.1,0.7,0.3,0.9l1.7,1.8
			c0.1,0.1,0.1,0.2,0.1,0.3c0,0.1-0.1,0.2-0.2,0.3c-0.1,0.1-0.2,0.1-0.3,0.1c-0.1,0-0.3-0.1-0.4-0.2l-1.7-1.8
			c-0.4-0.4-0.6-1-0.6-1.6c0-0.6,0.3-1.1,0.8-1.5l6.4-5.4C16.5,3.4,17,3.3,17.5,3.3 M17.5,2.8c-0.6,0-1.2,0.2-1.7,0.6L9.4,8.8
			c-0.6,0.5-0.9,1.1-0.9,1.8c0,0.7,0.2,1.4,0.7,2l1.7,1.8c0.2,0.2,0.4,0.3,0.7,0.3c0.2,0,0.5-0.1,0.6-0.2c0.4-0.4,0.4-1,0.1-1.3
			l-1.7-1.8c-0.1-0.2-0.2-0.3-0.2-0.6c0-0.2,0.1-0.4,0.3-0.5L17,4.9c0.1-0.1,0.3-0.2,0.5-0.2c0.2,0,0.4,0.1,0.6,0.3l1.2,1.3
			c0.3,0.3,0.2,0.8-0.1,1.1l-3.3,2.8c-0.4,0.3-0.4,0.9-0.1,1.3c0.2,0.2,0.5,0.3,0.7,0.3c0.2,0,0.4-0.1,0.6-0.2l3.3-2.8
			c1.1-1,1.2-2.6,0.3-3.7l-1.2-1.3C19,3.1,18.3,2.8,17.5,2.8L17.5,2.8z"/>
	</g>
</g>
</svg>
