<?xml version="1.0" encoding="utf-8"?>
<!-- Generator: Adobe Illustrator 25.4.1, SVG Export Plug-In . SVG Version: 6.00 Build 0)  -->
<svg version="1.1" id="ic_error_connection" shape-rendering="geometricPrecision"
	 xmlns="http://www.w3.org/2000/svg" xmlns:xlink="http://www.w3.org/1999/xlink" x="0px" y="0px" viewBox="0 0 24 24"
	 style="enable-background:new 0 0 24 24;" xml:space="preserve">
<style type="text/css">
	.st0{fill:#474747;}
	.st1{fill:#FFB600;}
</style>
<g>
	<path class="st0" d="M1456.8,6.4l11.5-47.7c0.3-1.3-0.1-2.7-1-3.7c-1-1-2.4-1.4-3.7-1l-47.8,11.4l-29.6-29.6c-1.5-1.5-4-1.5-5.5,0
		c-12.5,12.5-18.7,29.8-17.4,48.7c1.3,18.7,9.7,36.7,23.7,50.8c1.2,1.2,3,2.4,4.3,3.6c0,0.1,0.4,0.3,0.4,0.4v46h-47.8
		c-2.2,0-3.2,1.3-3.2,3.5v13.6c0,2.2,1,3.9,3.2,3.9h119c2.2,0,4.8-1.7,4.8-3.9V88.8c0-2.2-2.7-3.5-4.8-3.5h-46.2V54
		c6,2.8,14.1,4.5,21.7,5c1.6,0.1,2.9,0.2,4.5,0.2c17,0,32.3-6.2,43.7-17.6c1.5-1.5,1.4-4-0.1-5.5L1456.8,6.4z M1459.3-36.9
		l-8.9,36.8l-28-28L1459.3-36.9z M1459.8,98.3h-111v-4h111V98.3z M1407.8,85.3h-9V45c3,2,7,3.8,9,5.4V85.3z M1438.3,51.3
		c-16.8-1.1-33-8.7-45.8-21.5c-12.7-12.7-20.3-29-21.5-45.8c-1-15.2,3.4-29.2,12.5-39.8l94.5,94.5
		C1467.5,47.8,1453.5,52.3,1438.3,51.3z"/>
	<path class="st0" d="M1453.8-63.5c-1.9,1-2.7,3.3-1.7,5.3c1,1.9,3.3,2.7,5.3,1.7c6.2-3.1,13.7-1.9,18.6,3c4.8,4.8,6,12,3.2,18.1
		c-0.9,2-0.1,4.3,1.9,5.2c0.5,0.2,1.1,0.4,1.6,0.4c1.5,0,2.9-0.8,3.5-2.3c4.2-9.1,2.3-19.9-4.8-26.9
		C1474.1-66.4,1463-68.1,1453.8-63.5z"/>
	<path class="st0" d="M1494.2-71.8c-10.7-10.7-26.5-14.8-41.1-10.7c-2.1,0.6-3.3,2.8-2.7,4.8c0.6,2.1,2.8,3.3,4.8,2.7
		c11.9-3.4,24.7-0.1,33.5,8.7c8.7,8.7,12.1,21.5,8.7,33.4c-0.6,2.1,0.6,4.2,2.7,4.8c0.4,0.1,0.7,0.1,1.1,0.1c1.7,0,3.3-1.1,3.8-2.8
		C1509-45.4,1504.9-61.1,1494.2-71.8z"/>
</g>
<line class="st1" x1="2518" y1="114.2" x2="-2482" y2="114.2"/>
<g>
	<path class="st0" d="M1456.8,6.4l11.5-47.7c0.3-1.3-0.1-2.7-1-3.7c-1-1-2.4-1.4-3.7-1l-47.8,11.4l-29.6-29.6c-1.5-1.5-4-1.5-5.5,0
		c-12.5,12.5-18.7,29.8-17.4,48.7c1.3,18.7,9.7,36.7,23.7,50.8c1.2,1.2,3,2.4,4.3,3.6c0,0.1,0.4,0.3,0.4,0.4v46h-47.8
		c-2.2,0-3.2,1.3-3.2,3.5v13.6c0,2.2,1,3.9,3.2,3.9h119c2.2,0,4.8-1.7,4.8-3.9V88.8c0-2.2-2.7-3.5-4.8-3.5h-46.2V54
		c6,2.8,14.1,4.5,21.7,5c1.6,0.1,2.9,0.2,4.5,0.2c17,0,32.3-6.2,43.7-17.6c1.5-1.5,1.4-4-0.1-5.5L1456.8,6.4z M1459.3-36.9
		l-8.9,36.8l-28-28L1459.3-36.9z M1459.8,98.3h-111v-4h111V98.3z M1407.8,85.3h-9V45c3,2,7,3.8,9,5.4V85.3z M1438.3,51.3
		c-16.8-1.1-33-8.7-45.8-21.5c-12.7-12.7-20.3-29-21.5-45.8c-1-15.2,3.4-29.2,12.5-39.8l94.5,94.5
		C1467.5,47.8,1453.5,52.3,1438.3,51.3z"/>
	<path class="st0" d="M1453.8-63.5c-1.9,1-2.7,3.3-1.7,5.3c1,1.9,3.3,2.7,5.3,1.7c6.2-3.1,13.7-1.9,18.6,3c4.8,4.8,6,12,3.2,18.1
		c-0.9,2-0.1,4.3,1.9,5.2c0.5,0.2,1.1,0.4,1.6,0.4c1.5,0,2.9-0.8,3.5-2.3c4.2-9.1,2.3-19.9-4.8-26.9
		C1474.1-66.4,1463-68.1,1453.8-63.5z"/>
	<path class="st0" d="M1494.2-71.8c-10.7-10.7-26.5-14.8-41.1-10.7c-2.1,0.6-3.3,2.8-2.7,4.8c0.6,2.1,2.8,3.3,4.8,2.7
		c11.9-3.4,24.7-0.1,33.5,8.7c8.7,8.7,12.1,21.5,8.7,33.4c-0.6,2.1,0.6,4.2,2.7,4.8c0.4,0.1,0.7,0.1,1.1,0.1c1.7,0,3.3-1.1,3.8-2.8
		C1509-45.4,1504.9-61.1,1494.2-71.8z"/>
</g>
<line class="st1" x1="2518" y1="114.2" x2="-2482" y2="114.2"/>
<g>
	<path class="st0" d="M16.3,11.5L17.6,6c0-0.2,0-0.3-0.1-0.4c-0.1-0.1-0.3-0.2-0.4-0.1l-5.5,1.3L8.1,3.3C8,3.2,7.7,3.2,7.5,3.3
		c-1.4,1.4-2.2,3.4-2,5.6c0.1,2.1,1.1,4.2,2.7,5.8c0.1,0.1,0.3,0.3,0.5,0.4c0,0,0.1,0,0.1,0.1v5.3H3.3c-0.2,0-0.4,0.2-0.4,0.4v1.6
		C2.9,22.8,3,23,3.3,23H17c0.2,0,0.6-0.2,0.6-0.4v-1.6c0-0.2-0.3-0.4-0.6-0.4h-5.3v-3.6c0.7,0.3,1.6,0.5,2.5,0.6c0.2,0,0.3,0,0.5,0
		c2,0,3.7-0.7,5-2c0.2-0.2,0.2-0.5,0-0.6L16.3,11.5z M16.5,6.5l-1,4.2l-3.2-3.2L16.5,6.5z M16.6,22H3.8v-0.5h12.8V22z M10.6,20.5h-1
		v-4.6c0.3,0.2,0.8,0.4,1,0.6V20.5z M14.1,16.6c-1.9-0.1-3.8-1-5.3-2.5c-1.5-1.5-2.3-3.3-2.5-5.3C6.3,7.1,6.8,5.5,7.8,4.3l10.9,10.9
		C17.5,16.2,15.9,16.7,14.1,16.6z"/>
	<path class="st0" d="M15.9,3.4c-0.2,0.1-0.3,0.4-0.2,0.6c0.1,0.2,0.4,0.3,0.6,0.2C17,3.9,17.9,4,18.4,4.6c0.5,0.5,0.7,1.4,0.4,2.1
		c-0.1,0.2,0,0.5,0.2,0.6c0.1,0,0.1,0,0.2,0c0.2,0,0.3-0.1,0.4-0.3c0.5-1,0.3-2.3-0.5-3.1C18.2,3.1,17,2.9,15.9,3.4z"/>
	<path class="st0" d="M20.6,2.5c-1.2-1.2-3.1-1.7-4.7-1.2c-0.2,0.1-0.4,0.3-0.3,0.6c0.1,0.2,0.3,0.4,0.6,0.3c1.4-0.4,2.8,0,3.9,1
		c1,1,1.4,2.5,1,3.8c-0.1,0.2,0.1,0.5,0.3,0.6c0,0,0.1,0,0.1,0c0.2,0,0.4-0.1,0.4-0.3C22.3,5.5,21.8,3.7,20.6,2.5z"/>
</g>
</svg>
