<?xml version="1.0" encoding="utf-8"?>
<!-- Generator: Adobe Illustrator 25.4.1, SVG Export Plug-In . SVG Version: 6.00 Build 0)  -->
<svg version="1.1" id="Ebene_1" shape-rendering="geometricPrecision"
	 xmlns="http://www.w3.org/2000/svg" xmlns:xlink="http://www.w3.org/1999/xlink" x="0px" y="0px" viewBox="0 0 24 24"
	 style="enable-background:new 0 0 24 24;" xml:space="preserve">
<style type="text/css">
	.st0{fill:#00F3FF;}
</style>
<desc>Created with Sketch.</desc>
<g>
	<path class="st0" d="M8.7,19.9c-1.6-0.6-2.9-1.7-3.9-3.1s-1.5-3.1-1.5-4.9c0-4.6,3.6-8.3,8.1-8.5l-1,1c-0.2,0.2-0.2,0.5,0,0.7
		c0.1,0.1,0.2,0.1,0.3,0.1s0.2,0,0.3-0.1l2-1.8c0.2-0.2,0.2-0.5,0-0.7l-1.8-1.8c-0.2-0.2-0.5-0.2-0.7,0s-0.2,0.5,0,0.7l1,1
		C6.4,2.7,2.3,6.9,2.3,12c0,2,0.6,3.8,1.7,5.4s2.6,2.7,4.4,3.4c0.1,0,0.1,0,0.2,0c0.2,0,0.4-0.1,0.5-0.3C9.1,20.3,9,20,8.7,19.9z"/>
	<path class="st0" d="M21.2,12c0-2-0.6-4-1.8-5.6c-1.2-1.6-2.8-2.8-4.7-3.4c-0.3-0.1-0.5,0.1-0.6,0.3c-0.1,0.3,0.1,0.5,0.3,0.6
		c1.7,0.6,3.1,1.6,4.2,3c1.1,1.5,1.7,3.2,1.7,5c0,4.6-3.6,8.3-8.1,8.5l1-1c0.2-0.2,0.2-0.5,0-0.7s-0.5-0.2-0.7,0l-1.9,1.9
		c-0.1,0.1-0.1,0.2-0.1,0.3c0,0.1,0.1,0.3,0.1,0.3l1.8,1.8c0.1,0.1,0.2,0.1,0.3,0.1s0.2,0,0.3-0.1c0.2-0.2,0.2-0.5,0-0.7l-1-1
		C17.1,21.3,21.2,17.1,21.2,12z"/>
</g>
</svg>
