<?xml version="1.0" encoding="utf-8"?>
<!-- Generator: Adobe Illustrator 25.4.1, SVG Export Plug-In . SVG Version: 6.00 Build 0)  -->
<svg version="1.1" id="ic_check" shape-rendering="geometricPrecision"
	 xmlns="http://www.w3.org/2000/svg" xmlns:xlink="http://www.w3.org/1999/xlink" x="0px" y="0px" viewBox="0 0 16 16"
	 style="enable-background:new 0 0 16 16;" xml:space="preserve">
<style type="text/css">
	.st0{fill:#FFFFFF;}
</style>
<path id="Rectangle_3779" class="st0" d="M9.6,11.8h16v16h-16V11.8z"/>
<g id="Rocket_Dark">
	<path class="st0" d="M6.9,10.7c-0.1,0-0.2,0-0.3-0.1c-0.6,0.3-1,0.5-1,0.5L5,11.4l0.1-0.5c0-0.1,0.2-0.5,0.4-1.1
		c-0.1-0.3-0.2-0.6-0.3-1C5,8.9,4.6,9.2,4.3,9.6c-1,1.2,0.1,2.9-1,3.8c1.1-0.8,2.8-0.2,3.8-1.3c0.4-0.4,0.6-0.9,0.7-1.2
		C7.5,10.8,7.2,10.8,6.9,10.7z"/>
	<path class="st0" d="M12.2,3.2L12.2,3.2L12.2,3.2c-1.1-0.3-2.3-0.1-3.4,0.5C8,4.1,7.3,4.7,6.7,5.4l0,0l0,0C6.2,5.3,5.5,5.6,4.5,6.2
		c-0.7,0.5-1.3,1-1.3,1l0,0h0.1c0,0,1.1,0,1.9,0.1c0.3,0.1,0.5,0.2,0.6,0.3c0,0.3-0.1,0.6,0,0.9c0,0.4,0.1,0.7,0.3,1v0.1v0.1
		C6,10,5.9,10.3,5.8,10.5c0.2-0.1,0.4-0.2,0.7-0.4h0.1h0.1c0.1,0,0.2,0.1,0.3,0.1c0.3,0.1,0.6,0.1,0.9,0.1c0.2,0,0.5-0.1,0.7-0.1
		l0,0c0.6,0.4,0.8,2.5,0.8,2.5v0.1v-0.1c0,0,0.4-0.7,0.8-1.5c0.5-1.1,0.7-1.9,0.5-2.3l0,0c0.1-0.1,0.2-0.2,0.3-0.3
		C12.1,7.4,13,5.3,12.2,3.2z M6.9,9.3C6,6.1,9,3.9,11,3.7C8.4,4.7,7.2,6.1,6.9,9.3z"/>
</g>
</svg>
