<?xml version="1.0" encoding="utf-8"?>
<!-- Generator: Adobe Illustrator 25.4.1, SVG Export Plug-In . SVG Version: 6.00 Build 0)  -->
<svg version="1.1" id="ic_light_theme" shape-rendering="geometricPrecision"
	 xmlns="http://www.w3.org/2000/svg" xmlns:xlink="http://www.w3.org/1999/xlink" x="0px" y="0px" viewBox="0 0 24 24"
	 style="enable-background:new 0 0 24 24;" xml:space="preserve">
<style type="text/css">
	.st0{fill:#FFFFFF;}
</style>
<g>
	<g>
		<path class="st0" d="M14.7,19.3H9.3C9.1,19.3,9,19.2,9,19v-0.3c0-1.9-0.6-3.7-1.6-5.2c-0.7-1.1-1-2.4-0.9-3.7
			c0.3-2.7,2.5-4.8,5.2-5c1.6-0.1,3,0.4,4.2,1.5c1.1,1,1.8,2.5,1.8,4c0,1.1-0.3,2.1-0.9,3c-1.1,1.7-1.7,3.5-1.7,5.3V19
			C15,19.2,14.8,19.3,14.7,19.3z M9.6,18.7h4.7c0-1.9,0.6-3.9,1.8-5.6c0.5-0.8,0.8-1.7,0.8-2.7c0-1.4-0.5-2.6-1.5-3.6
			c-1-0.9-2.3-1.4-3.7-1.3c-2.4,0.2-4.3,2-4.6,4.4C7,11,7.3,12.2,7.9,13.1C9,14.8,9.6,16.7,9.6,18.7z"/>
	</g>
</g>
<g>
	<g>
		<path class="st0" d="M12,23.1L12,23.1c-1.7,0-3-1.3-3-3V19c0-0.2,0.1-0.3,0.3-0.3h5.4c0.2,0,0.3,0.1,0.3,0.3v1.2
			C15,21.8,13.6,23.1,12,23.1z M9.6,19.3v0.8c0,1.3,1,2.3,2.3,2.3h0c1.3,0,2.3-1,2.3-2.3v-0.8H9.6z"/>
	</g>
</g>
<g>
	<g>
		<path class="st0" d="M12,3.6c-0.2,0-0.3-0.1-0.3-0.3V1.2c0-0.2,0.1-0.3,0.3-0.3s0.3,0.1,0.3,0.3v2.1C12.3,3.5,12.2,3.6,12,3.6z"/>
	</g>
</g>
<g>
	<g>
		<path class="st0" d="M6.9,5.7c-0.1,0-0.2,0-0.2-0.1L5.2,4.2C5.1,4,5.1,3.8,5.2,3.7c0.1-0.1,0.3-0.1,0.5,0l1.5,1.5
			c0.1,0.1,0.1,0.3,0,0.5C7.1,5.7,7,5.7,6.9,5.7z"/>
	</g>
</g>
<g>
	<g>
		<path class="st0" d="M18.5,17.3c-0.1,0-0.2,0-0.2-0.1l-1.5-1.5c-0.1-0.1-0.1-0.3,0-0.5c0.1-0.1,0.3-0.1,0.5,0l1.5,1.5
			c0.1,0.1,0.1,0.3,0,0.5C18.7,17.3,18.6,17.3,18.5,17.3z"/>
	</g>
</g>
<g>
	<g>
		<path class="st0" d="M4.8,10.8H2.7c-0.2,0-0.3-0.1-0.3-0.3s0.1-0.3,0.3-0.3h2.1c0.2,0,0.3,0.1,0.3,0.3S5,10.8,4.8,10.8z"/>
	</g>
</g>
<g>
	<g>
		<path class="st0" d="M21.3,10.8h-2.1c-0.2,0-0.3-0.1-0.3-0.3s0.1-0.3,0.3-0.3h2.1c0.2,0,0.3,0.1,0.3,0.3S21.4,10.8,21.3,10.8z"/>
	</g>
</g>
<g>
	<g>
		<path class="st0" d="M5.5,17.3c-0.1,0-0.2,0-0.2-0.1c-0.1-0.1-0.1-0.3,0-0.5l1.5-1.5c0.1-0.1,0.3-0.1,0.5,0c0.1,0.1,0.1,0.3,0,0.5
			l-1.5,1.5C5.6,17.3,5.5,17.3,5.5,17.3z"/>
	</g>
</g>
<g>
	<g>
		<path class="st0" d="M17.1,5.7c-0.1,0-0.2,0-0.2-0.1c-0.1-0.1-0.1-0.3,0-0.5l1.5-1.5c0.1-0.1,0.3-0.1,0.5,0c0.1,0.1,0.1,0.3,0,0.5
			l-1.5,1.5C17.2,5.7,17.2,5.7,17.1,5.7z"/>
	</g>
</g>
<g>
	<g>
		<path class="st0" d="M14.7,4.2c0,0-0.1,0-0.1,0c-0.2-0.1-0.2-0.3-0.2-0.4l0.8-1.9c0.1-0.2,0.3-0.2,0.4-0.2
			c0.2,0.1,0.2,0.3,0.2,0.4L15.1,4C15,4.1,14.9,4.2,14.7,4.2z"/>
	</g>
</g>
<g>
	<g>
		<path class="st0" d="M9.3,4.2C9.1,4.2,9,4.1,8.9,4L8.2,2c-0.1-0.2,0-0.4,0.2-0.4c0.2-0.1,0.4,0,0.4,0.2l0.8,1.9
			c0.1,0.2,0,0.4-0.2,0.4C9.3,4.2,9.3,4.2,9.3,4.2z"/>
	</g>
</g>
<g>
	<g>
		<path class="st0" d="M20.6,14.3c0,0-0.1,0-0.1,0l-1.9-0.8c-0.2-0.1-0.2-0.3-0.2-0.4c0.1-0.2,0.3-0.2,0.4-0.2l1.9,0.8
			c0.2,0.1,0.2,0.3,0.2,0.4C20.8,14.3,20.7,14.3,20.6,14.3z"/>
	</g>
</g>
<g>
	<g>
		<path class="st0" d="M5.4,8c0,0-0.1,0-0.1,0L3.3,7.2C3.2,7.2,3.1,7,3.1,6.8c0.1-0.2,0.3-0.2,0.4-0.2l1.9,0.8
			c0.2,0.1,0.2,0.3,0.2,0.4C5.6,8,5.5,8,5.4,8z"/>
	</g>
</g>
<g>
	<g>
		<path class="st0" d="M18.6,8c-0.1,0-0.2-0.1-0.3-0.2c-0.1-0.2,0-0.4,0.2-0.4l1.9-0.8c0.2-0.1,0.4,0,0.4,0.2c0.1,0.2,0,0.4-0.2,0.4
			L18.8,8C18.7,8,18.7,8,18.6,8z"/>
	</g>
</g>
<g>
	<g>
		<path class="st0" d="M3.4,14.3c-0.1,0-0.2-0.1-0.3-0.2c-0.1-0.2,0-0.4,0.2-0.4l1.9-0.8c0.2-0.1,0.4,0,0.4,0.2
			c0.1,0.2,0,0.4-0.2,0.4l-1.9,0.8C3.5,14.3,3.5,14.3,3.4,14.3z"/>
	</g>
</g>
<g>
	<g>
		<path class="st0" d="M11.9,13.5c-0.1,0-0.2-0.1-0.3-0.2l-1-2.1c-0.1-0.2,0-0.4,0.2-0.4c0.2-0.1,0.4,0,0.4,0.2l0.7,1.5l1.1-2.5
			c0.1-0.2,0.3-0.2,0.4-0.2c0.2,0.1,0.2,0.3,0.2,0.4l-1.3,3.1C12.1,13.5,12,13.5,11.9,13.5C11.9,13.5,11.9,13.5,11.9,13.5z"/>
	</g>
</g>
</svg>
