<?xml version="1.0" encoding="utf-8"?>
<!-- Generator: Adobe Illustrator 25.4.1, SVG Export Plug-In . SVG Version: 6.00 Build 0)  -->
<svg version="1.1" id="ic_sparks" xmlns="http://www.w3.org/2000/svg" xmlns:xlink="http://www.w3.org/1999/xlink" x="0px" y="0px"
	 viewBox="0 0 24 24" style="enable-background:new 0 0 24 24;" xml:space="preserve">
<style type="text/css">
	.st0{fill:none;}
	.st1{fill-rule:evenodd;clip-rule:evenodd;fill:#E32435;}
</style>
<path id="Rectangle_4543" class="st0" d="M0,0h24v24H0V0z"/>
<path class="st1" d="M11.8,16.1c2.2,0,3.9-1.8,3.9-3.9S14,8.3,11.8,8.3c-2.2,0-3.9,1.8-3.9,3.9c0,0,0,0,0,0
	C7.9,14.4,9.7,16.1,11.8,16.1z"/>
<path class="st1" d="M11.2,6.3C10,5.2,7.8,5.5,6.3,7.2c-1.3,1.4-1.4,3.6-0.5,4.4L11.2,6.3z"/>
<path class="st1" d="M17.7,11.6c1.1-1.2,0.8-3.3-0.9-4.8c-1.4-1.3-3.5-1.4-4.4-0.4L17.7,11.6z"/>
<path class="st1" d="M5.9,12.8c-1.1,1.3-0.8,3.4,0.9,4.9c1.4,1.2,3.5,1.4,4.4,0.4L5.9,12.8z"/>
<path class="st1" d="M12.4,18.1c1.2,1,3.4,0.8,4.7-0.7c1.4-1.6,1.6-3.6,0.6-4.6L12.4,18.1z"/>
<path class="st1" d="M19.7,14.4c1.2-1.1,1.1-3.5,0-4.4c-0.6,0.7-1.1,1.5-1.7,2.2c0.5,0.7,1.1,1.4,1.6,2.1
	C19.6,14.4,19.6,14.4,19.7,14.4z"/>
<path class="st1" d="M4,10c-1.1,1.1-1.1,3.3,0,4.4l1.7-2.2L4,10z"/>
<path class="st1" d="M9.6,20.1c1.3,1.1,3.3,1.1,4.4,0l-2.2-1.7L9.6,20.1z"/>
<path class="st1" d="M9.6,4.3L11.8,6L14,4.3C12.8,3.2,10.8,3.2,9.6,4.3z"/>
<path class="st1" d="M15.5,4.8l3.7,3.7C19.3,7.4,16.8,4.7,15.5,4.8z"/>
<path class="st1" d="M8.1,4.8C6.7,4.9,4.5,7.2,4.4,8.5L8.1,4.8z"/>
<path class="st1" d="M19.2,15.9l-3.7,3.7C16.6,19.8,19.3,17.2,19.2,15.9z"/>
<path class="st1" d="M8.1,19.6L4.4,16C4.4,17.2,6.7,19.5,8.1,19.6z"/>
<path class="st1" d="M11.8,16.1c-2.2,0-3.9-1.7-3.9-3.9c0-2.2,1.7-3.9,3.9-3.9c2.2,0,3.9,1.7,3.9,3.9C15.7,14.3,14,16.1,11.8,16.1
	C11.8,16.1,11.8,16.1,11.8,16.1z"/>
<path class="st1" d="M11.2,6.3l-5.3,5.2c-0.9-0.8-0.8-3,0.5-4.4C7.8,5.5,10,5.2,11.2,6.3z"/>
<path class="st1" d="M17.7,11.6l-5.3-5.2c0.9-1,3-0.9,4.4,0.4C18.5,8.2,18.8,10.4,17.7,11.6z"/>
<path class="st1" d="M5.9,12.8l5.3,5.2c-0.9,1-3,0.9-4.4-0.4C5.1,16.2,4.8,14.1,5.9,12.8z"/>
<path class="st1" d="M12.4,18.1l5.3-5.2c1,0.9,0.8,3-0.6,4.6C15.8,18.9,13.7,19.1,12.4,18.1z"/>
<path class="st1" d="M19.7,14.4c0,0-0.1-0.1-0.1-0.1c-0.5-0.7-1.1-1.4-1.6-2.1c0.6-0.7,1.1-1.5,1.7-2.2
	C20.8,10.9,20.8,13.3,19.7,14.4z"/>
<path class="st1" d="M4,10l1.7,2.2L4,14.4C2.8,13.3,2.8,11.1,4,10z"/>
<path class="st1" d="M9.6,20.1l2.2-1.7l2.2,1.7C12.9,21.2,10.9,21.2,9.6,20.1z"/>
<path class="st1" d="M9.6,4.3c1.2-1.1,3.2-1.1,4.4,0l-2.2,1.7L9.6,4.3z"/>
<path class="st1" d="M15.5,4.8c1.3-0.1,3.8,2.6,3.7,3.7L15.5,4.8z"/>
<path class="st1" d="M8.1,4.8L4.4,8.5C4.5,7.2,6.7,4.9,8.1,4.8z"/>
<path class="st1" d="M19.2,15.9c0,1.2-2.7,3.9-3.7,3.7L19.2,15.9z"/>
<path class="st1" d="M8.1,19.6c-1.4-0.1-3.7-2.4-3.7-3.6L8.1,19.6z"/>
</svg>
