<?xml version="1.0" encoding="utf-8"?>
<!-- Generator: Adobe Illustrator 25.4.1, SVG Export Plug-In . SVG Version: 6.00 Build 0)  -->
<svg version="1.1" id="ic_information" xmlns="http://www.w3.org/2000/svg" xmlns:xlink="http://www.w3.org/1999/xlink" x="0px"
	 y="0px" viewBox="0 0 30 30" style="enable-background:new 0 0 30 30;" xml:space="preserve">
<style type="text/css">
	.st0{fill:#FFFFFF;stroke:#FFFFFF;stroke-linejoin:round;stroke-miterlimit:10;}
	.st1{fill:#FFFFFF;stroke:#FFFFFF;stroke-miterlimit:10;}
</style>
<g id="Chatbot_Dark">
	<path class="st0" d="M23.7,25.9c-0.4-3.6-1.2-7.2-2.1-8.2c-0.7-0.8-3.4-4.2-3.4-4.2v7c-3.1,0.1-4.3-3.1-6-3.8
		c-0.8-0.4-2.2,0.6-1.5,2.1c3.3,3.2,3.9,6.1,3.9,6.1s2.1,3.3,3.9,3.3l0.4,1.6"/>
	<g>
		<path class="st1" d="M14.5,6.8h-2.8c-0.6,0-1.2,0.5-1.2,1.2v2.8c0,0.6,0.5,1.2,1.2,1.2h2.8c0.6,0,1.2-0.5,1.2-1.2V7.9
			C15.6,7.3,15.1,6.8,14.5,6.8z M11.2,8.4c0-0.4,0.3-0.7,0.7-0.7s0.7,0.3,0.7,0.7s-0.3,0.7-0.7,0.7C11.5,9.1,11.2,8.7,11.2,8.4z
			 M14.1,10.9c0,0.2-0.1,0.3-0.3,0.3h-1.6c-0.2,0-0.3-0.1-0.3-0.3v-0.1c0-0.2,0.1-0.3,0.3-0.3h1.6c0.2,0,0.3,0.1,0.3,0.3V10.9z
			 M14.1,9.1c-0.4,0-0.7-0.3-0.7-0.7s0.3-0.7,0.7-0.7s0.7,0.3,0.7,0.7C14.8,8.7,14.5,9.1,14.1,9.1z"/>
		<path class="st1" d="M16.7,1.5H9.4c-1,0-1.8,0.8-1.8,1.8v18c0,1,0.8,1.8,1.8,1.8l4.5,0.2l-0.3-0.5l-0.5-0.9c-1-1.1-1-2-2.1-3.1
			c-0.2-0.5-0.1-1,0.2-1.4c0.3-0.3,0.6-0.4,0.9-0.3c0.5,0.2,1,0.8,1.6,1.3c0.4,0.4,0.8,0.9,1.4,1.3c0.2,0.1,2.1,1.3,3.2,1.1h0.3V3.2
			C18.5,2.3,17.7,1.5,16.7,1.5z M15.7,17.9c0,0.3-0.3,0.6-0.6,0.6h-0.8l-1.5-1.4l-1.2-0.4L11,17c-0.3,0-0.5,1.3-0.5,0.9v-0.3v-2.3
			c0-0.3,0.3-0.6,0.6-0.6h4c0.3,0,0.6,0.3,0.6,0.6C15.7,15.3,15.7,17.9,15.7,17.9z M16.3,10.7c0,1-0.8,1.9-1.9,1.9h-1.1v2h-0.7v-2
			h-1.1c-1,0-1.9-0.8-1.9-1.9V7.9c0-0.9,0.6-1.6,1.4-1.8l-0.9-2c0-0.1-0.2-0.3-0.2-0.6s0.3-0.6,0.6-0.6C10.8,3,11,3.2,11,3.5
			c0,0.1,0,0.2-0.1,0.3L11.8,6h2.4l0.9-2.3C15,3.6,15,3.5,15,3.4c0-0.3,0.3-0.6,0.6-0.6s0.6,0.3,0.6,0.6S16,3.9,15.8,4l-0.9,2.1
			c0.8,0.2,1.4,0.9,1.4,1.8V10.7z"/>
	</g>
</g>
</svg>
