<?xml version="1.0" encoding="utf-8"?>
<!-- Generator: Adobe Illustrator 25.4.1, SVG Export Plug-In . SVG Version: 6.00 Build 0)  -->
<svg version="1.1" id="Ebene_1" xmlns="http://www.w3.org/2000/svg" xmlns:xlink="http://www.w3.org/1999/xlink" x="0px" y="0px"
	 viewBox="0 0 24 40" style="enable-background:new 0 0 24 40;" xml:space="preserve">
<style type="text/css">
	.st0{fill:#FFFFFF;}
</style>
<desc>Created with Sketch.</desc>
<g>
	<path class="st0" d="M21.3,21.1H20c-0.4,0-0.5-0.3-0.5-0.4s-0.1-0.4,0.1-0.7l0.9-0.9c0.6-0.6,0.6-1.6,0-2.2l-1.7-1.7
		c-0.3-0.3-0.7-0.4-1.1-0.4l0,0c-0.4,0-0.8,0.1-1.1,0.4l-0.9,0.9c-0.3,0.3-0.6,0.2-0.7,0.1c-0.1,0-0.4-0.2-0.4-0.6v-1.3
		c0-0.8-0.7-1.5-1.5-1.5h-2.4c-0.8,0-1.5,0.7-1.5,1.5v1.3c0,0.4-0.3,0.5-0.4,0.5c-0.1,0-0.4,0.1-0.7-0.1l-0.9-0.9
		c-0.6-0.6-1.6-0.6-2.2,0L3.3,17c-0.6,0.6-0.6,1.6,0,2.2l0.9,0.9c0.3,0.3,0.2,0.6,0.1,0.7c0,0.1-0.2,0.4-0.5,0.4H2.5
		c-0.8,0-1.4,0.6-1.4,1.4v2.7c0,0.8,0.6,1.4,1.4,1.4h1.3c0.4,0,0.5,0.3,0.5,0.4s0.1,0.4-0.1,0.6l-0.9,0.9c-0.3,0.3-0.5,0.7-0.5,1.1
		s0.2,0.8,0.5,1.1L5,32.5c0.6,0.6,1.6,0.6,2.2,0l0.9-0.9c0.3-0.3,0.6-0.2,0.7-0.1c0.1,0,0.4,0.2,0.4,0.5v1.3c0,0.9,0.8,1.7,1.7,1.7
		h2.2c0.8,0,1.5-0.7,1.5-1.5V32c0-0.4,0.3-0.5,0.4-0.5c0.1,0,0.4-0.1,0.7,0.1l0.9,0.9c0.3,0.3,0.7,0.5,1.1,0.5l0,0
		c0.4,0,0.8-0.2,1.1-0.5l1.7-1.7c0.3-0.3,0.5-0.7,0.5-1.1s-0.2-0.8-0.5-1.1l-0.9-0.9c-0.3-0.3-0.2-0.5-0.1-0.6
		c0-0.1,0.2-0.4,0.5-0.4h1.2c0.8,0,1.5-0.7,1.5-1.5v-2.5C22.8,21.8,22.1,21.1,21.3,21.1z M21.9,25.1c0,0.4-0.3,0.7-0.7,0.7H20
		c-0.6,0-1.1,0.3-1.4,0.9s-0.1,1.2,0.3,1.7l0.9,0.9c0.1,0.1,0.2,0.3,0.2,0.4c0,0.2-0.1,0.3-0.2,0.4l-1.7,1.7
		C18,31.9,17.9,32,17.7,32l0,0c-0.2,0-0.3-0.1-0.4-0.2l-0.9-0.9c-0.6-0.6-1.6-0.6-2.3,0c-0.3,0.3-0.4,0.7-0.4,1.2v1.4
		c0,0.3-0.2,0.5-0.5,0.5h-2.4c-0.3,0-0.5-0.2-0.5-0.5V32c0-0.6-0.4-1.2-1-1.4c-0.2-0.1-0.4-0.1-0.6-0.1c-0.4,0-0.8,0.2-1.1,0.5
		l-0.9,0.9C6.3,32,6,32,5.7,31.8L4,30.1c-0.2-0.2-0.2-0.4-0.1-0.6c0-0.1,0.1-0.1,0.1-0.2l0.9-0.9c0.4-0.4,0.6-1,0.4-1.6
		s-0.8-1-1.5-1H2.5c-0.3,0-0.6-0.3-0.6-0.6v-2.6c0-0.3,0.2-0.5,0.5-0.5h1.2c0.6,0,1.2-0.3,1.5-0.9s0.2-1.3-0.3-1.8L4,18.5
		c-0.2-0.2-0.2-0.6,0-0.8L5.7,16c0.2-0.2,0.6-0.2,0.8,0l0.9,0.9c0.4,0.4,1.1,0.6,1.6,0.4c0.7-0.2,1.2-0.8,1.2-1.5v-1.3
		c0-0.3,0.3-0.6,0.6-0.6h2.3c0.3,0,0.5,0.2,0.5,0.5v1.3c0,0.6,0.3,1.1,0.8,1.4c0.6,0.4,1.4,0.3,2-0.2l0.9-0.9
		c0.1-0.1,0.3-0.1,0.4-0.1l0,0c0.2,0,0.3,0,0.4,0.1l1.7,1.7c0.2,0.2,0.2,0.6,0,0.8l-0.9,0.9c-0.5,0.5-0.6,1.3-0.2,1.9
		c0.3,0.5,0.8,0.8,1.4,0.8h1.3c0.3,0,0.5,0.2,0.5,0.5V25.1z"/>
	<path class="st0" d="M12.2,20.3c-2.2-0.2-4,1.6-3.8,3.8c0.1,1.7,1.5,3.1,3.2,3.2c2.2,0.2,4-1.6,3.8-3.8
		C15.3,21.8,13.9,20.5,12.2,20.3z M12.2,26.4c-1.6,0.2-3-1.2-2.8-2.8c0.1-1.2,1.1-2.2,2.3-2.3c1.6-0.2,3,1.2,2.8,2.8
		C14.3,25.3,13.4,26.2,12.2,26.4z"/>
</g>
</svg>
