<?xml version="1.0" encoding="utf-8"?>
<!-- Generator: Adobe Illustrator 25.4.1, SVG Export Plug-In . SVG Version: 6.00 Build 0)  -->
<svg version="1.1" id="Ebene_1" xmlns="http://www.w3.org/2000/svg" xmlns:xlink="http://www.w3.org/1999/xlink" x="0px" y="0px"
	 viewBox="0 0 24 40" style="enable-background:new 0 0 24 40;" xml:space="preserve">
<style type="text/css">
	.st0{fill:#FFFFFF;}
</style>
<desc>Created with Sketch.</desc>
<g id="Data_Light">
	<g>
		<path class="st0" d="M13.4,11.3V17H7.7v-5.7H13.4 M13.9,10.8H7.1v6.8h6.8V10.8L13.9,10.8z"/>
	</g>
	<g>
		<path class="st0" d="M13.4,19.1v5.7H7.7v-5.7L13.4,19.1 M13.9,18.6H7.1v6.8h6.8V18.6L13.9,18.6z"/>
	</g>
	<g>
		<path class="st0" d="M13.4,27v5.7H7.7V27H13.4 M14,26.4H7.2v6.8H14V26.4L14,26.4z"/>
	</g>
	<g>
		<path class="st0" d="M5.6,11.9v4.4H1.2v-4.4H5.6 M6.2,11.4H0.6v5.5h5.5L6.2,11.4L6.2,11.4z"/>
	</g>
	<g>
		<rect x="14.7" y="10.8" class="st0" width="3" height="3"/>
		<rect x="14.7" y="14.6" class="st0" width="3" height="3"/>
	</g>
	<g>
		<rect x="3.2" y="18.6" class="st0" width="3" height="3"/>
		<rect x="3.2" y="22.4" class="st0" width="3" height="3"/>
	</g>
	<rect x="18.5" y="10.8" class="st0" width="3" height="3"/>
	<rect x="18.5" y="14.6" class="st0" width="3" height="3"/>
	<g>
		<path class="st0" d="M19.7,19.8v4.4h-4.4v-4.4H19.7 M20.2,19.3h-5.5v5.5h5.5V19.3L20.2,19.3z"/>
	</g>
	<rect x="14.7" y="26.4" class="st0" width="3" height="3"/>
	<rect x="14.7" y="30.2" class="st0" width="3" height="3"/>
	<g>
		<path class="st0" d="M5.6,27.6V32H1.2v-4.4H5.6 M6.2,27.1H0.6v5.5h5.5L6.2,27.1L6.2,27.1z"/>
	</g>
	<g>
		<rect x="21.6" y="26.4" class="st0" width="1.3" height="1.3"/>
		<rect x="21.6" y="28.1" class="st0" width="1.3" height="1.3"/>
	</g>
	<g>
		<rect x="18.1" y="30.2" class="st0" width="1.3" height="1.3"/>
		<rect x="18.1" y="31.9" class="st0" width="1.3" height="1.3"/>
	</g>
	<g>
		<rect x="20.9" y="19.3" class="st0" width="2.4" height="2.4"/>
		<rect x="20.9" y="22.4" class="st0" width="2.4" height="2.4"/>
	</g>
	<g>
		<rect x="1.3" y="18.6" class="st0" width="1.3" height="1.3"/>
		<rect x="1.3" y="20.3" class="st0" width="1.3" height="1.3"/>
	</g>
	<g>
		<rect x="22.1" y="14.6" class="st0" width="1.3" height="1.3"/>
		<rect x="22.1" y="16.3" class="st0" width="1.3" height="1.3"/>
	</g>
	<rect x="18.1" y="26.4" class="st0" width="3" height="3"/>
</g>
</svg>
