<?xml version="1.0" encoding="utf-8"?>
<!-- Generator: Adobe Illustrator 25.4.1, SVG Export Plug-In . SVG Version: 6.00 Build 0)  -->
<svg version="1.1" id="Ebene_1" xmlns="http://www.w3.org/2000/svg" xmlns:xlink="http://www.w3.org/1999/xlink" x="0px" y="0px"
	 viewBox="0 0 24 40" style="enable-background:new 0 0 24 40;" xml:space="preserve">
<desc>Created with Sketch.</desc>
<g>
	<path d="M21.7,24.8l-1.1-0.5c-0.3-0.1-0.4-0.5-0.4-0.6c0-0.1,0-0.4,0.4-0.6l1.2-0.5c0.8-0.3,1.2-1.3,0.8-2l-1-2.2
		c-0.2-0.4-0.5-0.7-0.9-0.8c0,0,0,0,0,0c-0.4-0.2-0.8-0.2-1.2,0l-1.2,0.5C18,18.2,17.7,18,17.7,18c-0.1-0.1-0.3-0.3-0.2-0.7l0.5-1.2
		c0.3-0.8-0.1-1.6-0.8-1.9l-2.3-0.9c-0.8-0.3-1.6,0.1-1.9,0.8l-0.5,1.2c-0.1,0.3-0.5,0.4-0.6,0.4c-0.1,0-0.4,0-0.6-0.4l-0.5-1.2
		c-0.3-0.8-1.3-1.2-2.1-0.8l-2.2,1c-0.8,0.3-1.2,1.3-0.8,2l0.5,1.2c0.1,0.3-0.1,0.6-0.1,0.7c-0.1,0.1-0.3,0.3-0.7,0.1l-1.2-0.5
		c-0.7-0.3-1.6,0.1-1.9,0.8l-1,2.5c-0.3,0.7,0.1,1.6,0.8,1.9l1.2,0.5c0.3,0.1,0.4,0.4,0.4,0.5c0,0.1,0,0.4-0.4,0.5L2.2,25
		c-0.4,0.2-0.7,0.5-0.8,0.9c-0.2,0.4-0.1,0.8,0,1.2l1,2.2c0.3,0.8,1.3,1.2,2,0.8l1.2-0.5c0.3-0.1,0.6,0.1,0.7,0.1
		c0.1,0.1,0.3,0.3,0.2,0.7L6,31.6c-0.3,0.9,0.1,1.9,1,2.2L9,34.6c0.8,0.3,1.6-0.1,2-0.8l0.5-1.4c0.1-0.3,0.5-0.4,0.6-0.4
		c0.1,0,0.4,0,0.6,0.4l0.5,1.2c0.2,0.4,0.5,0.7,0.8,0.9c0,0,0,0,0,0c0.4,0.2,0.8,0.1,1.2,0l2.2-1c0.4-0.2,0.7-0.5,0.8-0.9
		c0.2-0.4,0.1-0.8,0-1.2l-0.5-1.2c-0.1-0.3,0-0.6,0.1-0.6c0.1-0.1,0.3-0.3,0.6-0.1l1.2,0.5c0.8,0.3,1.6-0.1,2-0.8l0.9-2.3
		C22.8,26,22.4,25.1,21.7,24.8z M20.8,28.7c-0.1,0.4-0.6,0.6-0.9,0.4l-1.1-0.4c-0.5-0.2-1.2-0.1-1.6,0.3c-0.5,0.5-0.6,1.1-0.3,1.7
		l0.5,1.1c0.1,0.1,0.1,0.3,0,0.4c-0.1,0.1-0.2,0.3-0.3,0.3l-2.2,1c-0.1,0.1-0.3,0.1-0.5,0c0,0,0,0,0,0c-0.1-0.1-0.3-0.2-0.3-0.3
		L13.5,32c-0.3-0.8-1.3-1.2-2.1-0.8c-0.4,0.2-0.7,0.5-0.8,0.9L10,33.4c-0.1,0.3-0.4,0.4-0.7,0.3l-2.3-0.9c-0.3-0.1-0.4-0.4-0.3-0.7
		l0.5-1.4C7.6,30.2,7.4,29.5,7,29c-0.2-0.2-0.3-0.3-0.5-0.3c-0.4-0.1-0.8-0.1-1.2,0l-1.2,0.5c-0.3,0.1-0.7,0-0.8-0.3l-1-2.2
		c-0.1-0.2-0.1-0.5,0.1-0.6c0.1-0.1,0.1-0.1,0.2-0.1l1.1-0.5c0.5-0.2,0.9-0.7,0.9-1.3c0-0.7-0.4-1.2-1-1.4l-1.2-0.5
		c-0.3-0.1-0.4-0.5-0.3-0.8l1-2.4c0.1-0.3,0.4-0.4,0.7-0.3L5,19.2c0.6,0.2,1.2,0.1,1.7-0.3c0.5-0.5,0.7-1.2,0.4-1.8l-0.5-1.2
		c-0.1-0.3,0-0.7,0.3-0.8l2.2-1c0.3-0.1,0.7,0,0.8,0.3l0.5,1.1c0.2,0.6,0.8,1,1.4,1c0.7,0.1,1.4-0.3,1.6-1l0.5-1.2
		c0.1-0.3,0.5-0.5,0.8-0.3l2.2,0.9c0.3,0.1,0.4,0.4,0.3,0.7l-0.5,1.2c-0.2,0.5-0.2,1.1,0.2,1.6c0.5,0.6,1.2,0.8,1.9,0.5l1.2-0.5
		c0.1-0.1,0.3,0,0.5,0c0,0,0,0,0,0c0.1,0.1,0.3,0.1,0.3,0.3l1,2.2c0.1,0.3,0,0.6-0.3,0.8l-1.2,0.5c-0.7,0.3-1,1-0.9,1.7
		c0.1,0.6,0.5,1,1,1.2l1.2,0.5c0.3,0.1,0.4,0.4,0.3,0.7L20.8,28.7z"/>
	<path d="M13.5,20.7c-1.9-1-4.3,0-4.9,2.1c-0.5,1.6,0.3,3.4,1.8,4.2c1.9,1,4.3,0,4.9-2.1C15.8,23.2,15.1,21.4,13.5,20.7z M11.3,26.3
		c-1.6-0.4-2.3-2.2-1.6-3.6c0.6-1.1,1.8-1.6,3-1.3c1.6,0.4,2.3,2.2,1.6,3.6C13.7,26.1,12.4,26.6,11.3,26.3z"/>
</g>
</svg>
