<?xml version="1.0" encoding="utf-8"?>
<!-- Generator: Adobe Illustrator 25.4.1, SVG Export Plug-In . SVG Version: 6.00 Build 0)  -->
<svg version="1.1" id="Ebene_1" xmlns="http://www.w3.org/2000/svg" xmlns:xlink="http://www.w3.org/1999/xlink" x="0px" y="0px"
	 viewBox="0 0 24 30" style="enable-background:new 0 0 24 30;" xml:space="preserve">
<style type="text/css">
	.st0{fill:#00F3FF;}
</style>
<desc>Created with Sketch.</desc>
<g id="Network_Dark_1_">
	<path class="st0" d="M8.3,12.2c0.3,0.2,0.6,0.6,0.6,1.1c0,0.1,0,0.2,0,0.3c2.2,0.9,4.1,2.3,5.6,3.9c0.2-0.1,0.4-0.2,0.6-0.2
		c0.1,0,0.2,0,0.3,0C17,14,17,10.6,15.6,7.9c-0.9-0.3-1.8-0.5-2.7-0.6C11,8.7,9.4,10.4,8.3,12.2z"/>
	<path class="st0" d="M9.9,28.5c-0.6-0.7-1.1-1.5-1.5-2.2c-0.1,0-0.2,0.1-0.4,0.1c-0.6,0-1.1-0.4-1.2-0.9c-0.7,0.2-1.4,0.3-2.1,0.3
		C6.1,27.1,7.9,28.1,9.9,28.5z"/>
	<path class="st0" d="M12.7,25.2c1.4-0.1,2.9-0.4,4.1-0.9c0,0,0,0,0-0.1c0-0.5,0.2-0.9,0.6-1.1c-0.2-0.7-0.6-1.5-1.1-2.3
		c-0.2-0.4-0.5-0.8-0.7-1.1c-0.2,0.1-0.4,0.1-0.6,0.1c-0.2,0-0.3,0-0.5-0.1c-1.5,2.1-3.4,3.8-5.5,4.8c0.1,0.1,0.1,0.3,0.1,0.5
		C10.6,25.3,11.8,25.3,12.7,25.2z"/>
	<path class="st0" d="M15.9,17.6c0.3,0.2,0.5,0.6,0.5,1c0,0.3-0.1,0.6-0.3,0.8c0.3,0.4,0.5,0.8,0.8,1.2c0.5,0.8,0.8,1.6,1.1,2.4
		c0.1,0,0.1,0,0.2,0c0.3,0,0.6,0.1,0.8,0.3c1.6-0.9,2.9-2.2,3.6-3.6h0.1c0.1-0.6,0.1-1.1,0.1-1.7c0-4.4-2.7-8.2-6.5-9.8
		C17.6,11,17.4,14.4,15.9,17.6z"/>
	<path class="st0" d="M6.7,24.9c0-0.1,0-0.1,0-0.2c-2-0.8-3.6-2.1-4.9-3.8l0.4-0.3c1.4,1.9,3.1,3,4.8,3.7c0.1-0.1,0.2-0.2,0.3-0.3
		c-1-2.4-1.3-4.9-1-7.3c0.1-0.9,0.3-1.7,0.6-2.6c-0.3-0.2-0.5-0.5-0.5-0.9C5.2,12.9,4,12.9,2.7,13c-0.8,1.5-1.2,3.2-1.2,5
		c0,2.8,1.1,5.3,2.8,7.2C5.1,25.3,5.9,25.2,6.7,24.9z"/>
	<path class="st0" d="M17.9,25.5c-0.4-0.1-0.7-0.3-0.9-0.7c-1.3,0.5-2.8,0.8-4.2,0.9c-0.3,0-0.7,0-1,0c-0.9,0-1.7-0.1-2.5-0.2
		c-0.1,0.2-0.2,0.4-0.4,0.6c0.5,0.9,1.1,1.7,1.8,2.6c0.5,0.1,1,0.1,1.5,0.1c1.9,0,3.7-0.5,5.2-1.4C17.7,26.9,17.8,26.2,17.9,25.5z"
		/>
	<path class="st0" d="M7.7,23.9c0.1,0,0.2,0,0.3,0c0.3,0,0.6,0.1,0.8,0.3c2.1-1,3.9-2.6,5.4-4.7c-0.2-0.2-0.4-0.5-0.4-0.9
		c0-0.3,0.1-0.6,0.3-0.8c-1.5-1.6-3.4-2.9-5.5-3.8c-0.2,0.3-0.6,0.5-1,0.5c-0.1,0-0.2,0-0.3-0.1C7,15.2,6.8,16,6.7,16.9
		C6.4,19.2,6.7,21.6,7.7,23.9z"/>
	<path class="st0" d="M19.2,23.7c0.1,0.2,0.1,0.4,0.1,0.6c0,0.6-0.4,1.1-1,1.2c0,0.5-0.1,1-0.2,1.5c2.1-1.4,3.7-3.6,4.3-6.1
		C21.6,22,20.5,22.9,19.2,23.7z"/>
	<path class="st0" d="M6.5,12.8C6.6,12.3,7.1,12,7.6,12c0.1,0,0.2,0,0.2,0c1-1.8,2.4-3.3,4.2-4.6c-3.9,0-7.3,2.1-9.1,5.2
		C4.2,12.5,5.3,12.6,6.5,12.8z"/>
</g>
</svg>
