<?xml version="1.0" encoding="utf-8"?>
<!-- Generator: Adobe Illustrator 25.4.1, SVG Export Plug-In . SVG Version: 6.00 Build 0)  -->
<svg version="1.1" id="Ebene_1" xmlns="http://www.w3.org/2000/svg" xmlns:xlink="http://www.w3.org/1999/xlink" x="0px" y="0px"
	 viewBox="0 0 24 40" style="enable-background:new 0 0 24 40;" xml:space="preserve">
<style type="text/css">
	.st0{fill:none;stroke:#00F3FF;stroke-miterlimit:10;}
	.st1{fill:#00F3FF;}
</style>
<desc>Created with Sketch.</desc>
<g id="Digital_Ledger_Dark">
	<g>
		<path class="st0" d="M18.8,29.4h0.6c1.3,0,2.3-1,2.3-2.3V15.8v-2.4c0-1.3-1-2.3-2.3-2.3H8.6c-1.3,0-2.3,1-2.3,2.3v1"/>
		<path class="st1" d="M21,11.8L19.5,11H8.6l-1.7,0.9l-0.6,1.4h15.4L21,11.8z M8.4,12.6c-0.3,0-0.6-0.3-0.6-0.6s0.3-0.6,0.6-0.6
			S9,11.7,9,12S8.8,12.6,8.4,12.6z M10.2,12.6c-0.3,0-0.6-0.3-0.6-0.6s0.3-0.6,0.6-0.6s0.6,0.3,0.6,0.6S10.5,12.6,10.2,12.6z
			 M12,12.6c-0.3,0-0.6-0.3-0.6-0.6s0.3-0.6,0.6-0.6s0.6,0.3,0.6,0.6S12.3,12.6,12,12.6z"/>
	</g>
	<path class="st1" d="M15.6,15.1H4.8c-1.4,0-2.6,1.1-2.6,2.6v13.7c0,1.4,1.1,2.6,2.6,2.6h10.8c1.4,0,2.6-1.1,2.6-2.6V17.7
		C18.2,16.3,17,15.1,15.6,15.1z M8.2,15.7c0.3,0,0.6,0.3,0.6,0.6S8.5,17,8.2,17s-0.6-0.3-0.6-0.6S7.8,15.7,8.2,15.7z M6.4,15.7
		C6.8,15.7,7,16,7,16.4S6.8,17,6.4,17c-0.3,0-0.6-0.3-0.6-0.6S6.1,15.7,6.4,15.7z M4.6,15.7c0.3,0,0.6,0.3,0.6,0.6S5,17,4.6,17
		C4.3,17,4,16.7,4,16.4S4.3,15.7,4.6,15.7z M9.6,31.9H3.8v-0.5h5.8V31.9z M9.6,29.8H3.8v-0.5h5.8V29.8z M9.6,27.7H3.8v-0.5h5.8V27.7
		z M9.6,25.6H3.8v-0.5h5.8V25.6z M9.6,23.5H3.8V23h5.8V23.5z M9.6,21.4H3.8v-0.5h5.8V21.4z M16.6,31.9h-5.8v-0.5h5.8V31.9z
		 M16.6,29.8h-5.8v-0.5h5.8V29.8z M16.6,27.7h-5.8v-0.5h5.8V27.7z M16.6,25.6h-5.8v-0.5h5.8V25.6z M16.6,23.5h-5.8V23h5.8V23.5z
		 M16.6,21.4h-5.8v-0.5h5.8V21.4z M16.6,19.3H3.8v-0.5h12.8V19.3z"/>
</g>
</svg>
