<?xml version="1.0" encoding="utf-8"?>
<!-- Generator: Adobe Illustrator 25.4.1, SVG Export Plug-In . SVG Version: 6.00 Build 0)  -->
<svg version="1.1" id="Ebene_1" xmlns="http://www.w3.org/2000/svg" xmlns:xlink="http://www.w3.org/1999/xlink" x="0px" y="0px"
	 viewBox="0 0 24 40" style="enable-background:new 0 0 24 40;" xml:space="preserve">
<style type="text/css">
	.st0{fill:#FFFFFF;}
	.st1{clip-path:url(#SVGID_00000035500289536115162960000011108556938002550173_);fill:none;stroke:#FFFFFF;stroke-miterlimit:10;}
</style>
<desc>Created with Sketch.</desc>
<g id="Forget_Light">
	<g>
		<path class="st0" d="M12.5,25.2c-0.6,0-1.1,0.5-1.1,1.2c0,0.6,0.4,1.1,1.1,1.1c0.7,0,1.1-0.5,1.1-1.1
			C13.6,25.6,13.2,25.2,12.5,25.2z"/>
		<path class="st0" d="M12.8,14.6c-1,0-2,0.3-2.6,0.7l0.4,1.2c0.5-0.3,1.2-0.6,1.9-0.6c1.2,0,1.8,0.6,1.8,1.6c0,0.8-0.5,1.5-1.3,2.5
			c-0.9,1.1-1.3,2.2-1.1,3.2v0.5h1.4v-0.5c-0.1-0.9,0.2-1.7,1.1-2.7c0.9-1.1,1.6-2,1.6-3.2C15.9,16,14.9,14.6,12.8,14.6z"/>
	</g>
	<g>
		<g>
			<defs>
				<circle id="SVGID_1_" cx="13.3" cy="22.4" r="13.8"/>
			</defs>
			<clipPath id="SVGID_00000085232343007740827280000011334238833688227201_">
				<use xlink:href="#SVGID_1_"  style="overflow:visible;"/>
			</clipPath>
			
				<path id="Face_5_" style="clip-path:url(#SVGID_00000085232343007740827280000011334238833688227201_);fill:none;stroke:#FFFFFF;stroke-miterlimit:10;" d="
				M3.7,20.4c0.3,1-2.2,3.8-2.2,4.4c0,1.3,3,1.2,3,1.2S4.2,29.2,5,30c1,1,3.7,1.3,3.7,1.3l3.2,6.4h7c0,0-1.1-9.9,0.2-10.3
				c3.2-1,5.8-14.4-2.7-16.1C4.5,8.7,3.2,18.6,3.7,20.4z"/>
		</g>
	</g>
</g>
</svg>
