<?xml version="1.0" encoding="utf-8"?>
<!-- Generator: Adobe Illustrator 25.4.1, SVG Export Plug-In . SVG Version: 6.00 Build 0)  -->
<svg version="1.1" id="Ebene_1" xmlns="http://www.w3.org/2000/svg" xmlns:xlink="http://www.w3.org/1999/xlink" x="0px" y="0px"
	 viewBox="0 0 24 30" style="enable-background:new 0 0 24 30;" xml:space="preserve">
<desc>Created with Sketch.</desc>
<g id="Network_Light_2_">
	<path d="M12.2,7.2C6.3,7.2,1.4,12,1.4,18s4.8,10.8,10.8,10.8C18.2,28.8,23,23.9,23,18S18.2,7.2,12.2,7.2z M22.5,18
		c0,0.9-0.1,1.8-0.4,2.7c-0.7,1-1.7,1.9-2.9,2.7c-0.2-0.2-0.6-0.4-0.9-0.4c-0.1,0-0.1,0-0.2,0c-0.3-0.9-0.8-1.9-1.4-2.8
		c-0.2-0.3-0.3-0.5-0.5-0.8c0.2-0.2,0.3-0.5,0.3-0.8c0-0.4-0.2-0.8-0.5-1c1.4-3,1.7-6.2,0.7-8.7C20.1,10.4,22.5,13.9,22.5,18z
		 M9.3,25c0-0.1,0-0.3-0.1-0.4c2.1-1,4-2.8,5.5-4.9c0.2,0.1,0.3,0.1,0.5,0.1c0.2,0,0.4-0.1,0.6-0.1c0.2,0.2,0.3,0.5,0.5,0.7
		c0.6,0.9,1,1.9,1.3,2.7c-0.4,0.2-0.6,0.6-0.6,1.1c0,0.1,0,0.1,0,0.2c-1.4,0.5-3,0.8-4.5,0.9C11.4,25.3,10.3,25.2,9.3,25z M6.8,25.5
		C7,26,7.5,26.4,8,26.4c0.1,0,0.2,0,0.3-0.1c0.3,0.5,0.6,1.1,1,1.6c-1.5-0.4-2.8-1.2-3.9-2.1C5.9,25.7,6.4,25.6,6.8,25.5z M12.3,7.7
		c1.3,0,2.6,0.3,3.7,0.7c1.2,2.5,1,5.7-0.5,8.8c-0.1,0-0.2,0-0.3,0c-0.2,0-0.4,0.1-0.6,0.2c-1.5-1.6-3.4-3.1-5.7-4
		c0-0.1,0-0.2,0-0.3c0-0.5-0.2-0.9-0.6-1.1C9.3,10.4,10.6,8.9,12.3,7.7z M7.7,14.4c0.4,0,0.8-0.2,1-0.5c2.1,0.9,4,2.3,5.5,3.9
		c-0.2,0.2-0.3,0.5-0.3,0.8c0,0.3,0.1,0.6,0.4,0.9c-1.5,2.1-3.3,3.8-5.3,4.8C8.7,24,8.4,23.8,8,23.8c-0.1,0-0.2,0-0.3,0
		c-1-2.5-1.3-4.9-0.9-7.4c0.1-0.7,0.3-1.4,0.5-2.1C7.5,14.4,7.6,14.4,7.7,14.4z M11.4,7.7c-1.5,1.2-2.6,2.6-3.5,4.1
		c-0.1,0-0.1,0-0.2,0c-0.5,0-1,0.3-1.2,0.8c-1-0.2-1.9-0.3-3-0.2C5.2,9.8,8.1,8,11.4,7.7z M3.2,13c1.1-0.1,2.2,0,3.2,0.2
		c0,0.4,0.2,0.7,0.5,0.9c-0.3,0.7-0.4,1.5-0.6,2.3c-0.4,2.5-0.1,5.1,1,7.7c-0.1,0.1-0.2,0.2-0.3,0.3c-1.9-0.8-3.5-2-4.7-3.7
		c-0.2-0.8-0.4-1.7-0.4-2.7C1.9,16.2,2.4,14.5,3.2,13z M2.7,21.9c1.2,1.3,2.5,2.2,4.1,2.9c0,0.1,0,0.2,0,0.2
		c-0.6,0.2-1.2,0.2-1.8,0.2C4,24.3,3.2,23.2,2.7,21.9z M10.1,28.1c-0.5-0.7-0.9-1.3-1.3-2c0.2-0.1,0.3-0.3,0.4-0.6
		c0.8,0.2,1.7,0.3,2.6,0.3c0.2,0,0.4,0,0.6,0c1.6-0.1,3.2-0.4,4.7-0.9c0.2,0.3,0.5,0.6,0.9,0.6c0,0.5-0.1,0.9-0.3,1.2
		c-1.6,1-3.5,1.6-5.5,1.6C11.5,28.3,10.8,28.2,10.1,28.1z M18.4,26.2c0.1-0.2,0.1-0.5,0.1-0.7c0.6-0.1,1-0.6,1-1.2
		c0-0.2,0-0.3-0.1-0.5c0.9-0.5,1.6-1.1,2.2-1.7C21,23.7,19.8,25.1,18.4,26.2z"/>
</g>
</svg>
