<?xml version="1.0" encoding="utf-8"?>
<!-- Generator: Adobe Illustrator 25.4.1, SVG Export Plug-In . SVG Version: 6.00 Build 0)  -->
<svg version="1.1" id="Ebene_1" xmlns="http://www.w3.org/2000/svg" xmlns:xlink="http://www.w3.org/1999/xlink" x="0px" y="0px"
	 viewBox="0 0 24 40" style="enable-background:new 0 0 24 40;" xml:space="preserve">
<style type="text/css">
	.st0{fill:none;stroke:#000000;stroke-miterlimit:10;}
</style>
<desc>Created with Sketch.</desc>
<g id="Digital_Ledger_Light">
	<path class="st0" d="M15.6,15.4H4.8c-1.3,0-2.3,1-2.3,2.3v2.4v11.3c0,1.3,1,2.3,2.3,2.3h10.8c1.3,0,2.3-1,2.3-2.3V20.1v-2.4
		C17.9,16.4,16.9,15.4,15.6,15.4z M3.1,17.5"/>
	<g>
		<g>
			<line class="st0" x1="3.8" y1="19" x2="16.6" y2="19"/>
		</g>
	</g>
	<g>
		<g>
			<line class="st0" x1="3.8" y1="21.1" x2="9.6" y2="21.1"/>
		</g>
	</g>
	<g>
		<g>
			<line class="st0" x1="3.8" y1="23.2" x2="9.6" y2="23.2"/>
		</g>
	</g>
	<g>
		<g>
			<line class="st0" x1="3.8" y1="25.3" x2="9.6" y2="25.3"/>
		</g>
	</g>
	<g>
		<g>
			<line class="st0" x1="3.8" y1="29.6" x2="9.6" y2="29.6"/>
		</g>
	</g>
	<g>
		<g>
			<line class="st0" x1="10.8" y1="21.1" x2="16.6" y2="21.1"/>
		</g>
	</g>
	<g>
		<g>
			<line class="st0" x1="10.8" y1="23.2" x2="16.6" y2="23.2"/>
		</g>
	</g>
	<g>
		<g>
			<line class="st0" x1="10.8" y1="25.3" x2="16.6" y2="25.3"/>
		</g>
	</g>
	<g>
		<g>
			<line class="st0" x1="10.8" y1="29.6" x2="16.6" y2="29.6"/>
		</g>
	</g>
	<g>
		<g>
			<line class="st0" x1="3.8" y1="31.7" x2="9.6" y2="31.7"/>
		</g>
	</g>
	<g>
		<g>
			<line class="st0" x1="10.8" y1="31.7" x2="16.6" y2="31.7"/>
		</g>
	</g>
	<g>
		<g>
			<line class="st0" x1="3.8" y1="27.4" x2="9.6" y2="27.4"/>
		</g>
	</g>
	<g>
		<g>
			<line class="st0" x1="10.8" y1="27.4" x2="16.6" y2="27.4"/>
		</g>
	</g>
	<path d="M17.2,16.1l-1.6-0.8H4.8l-1.7,0.9l-0.6,1.4h15.4L17.2,16.1z M4.6,17C4.3,17,4,16.7,4,16.4s0.3-0.6,0.6-0.6
		c0.3,0,0.6,0.3,0.6,0.6S5,17,4.6,17z M6.4,17c-0.3,0-0.6-0.3-0.6-0.6s0.3-0.6,0.6-0.6C6.8,15.7,7,16,7,16.4S6.8,17,6.4,17z M8.2,17
		c-0.3,0-0.6-0.3-0.6-0.6s0.3-0.6,0.6-0.6c0.3,0,0.6,0.3,0.6,0.6S8.5,17,8.2,17z"/>
	<g>
		<path class="st0" d="M18.8,29.4h0.6c1.3,0,2.3-1,2.3-2.3V15.8v-2.4c0-1.3-1-2.3-2.3-2.3H8.6c-1.3,0-2.3,1-2.3,2.3v1 M6.9,13.2"/>
		<path d="M21,11.8L19.5,11H8.6l-1.7,0.9l-0.6,1.4h15.4L21,11.8z M8.4,12.6c-0.3,0-0.6-0.3-0.6-0.6s0.3-0.6,0.6-0.6
			c0.3,0,0.6,0.3,0.6,0.6S8.8,12.6,8.4,12.6z M10.2,12.6c-0.3,0-0.6-0.3-0.6-0.6s0.3-0.6,0.6-0.6c0.3,0,0.6,0.3,0.6,0.6
			S10.5,12.6,10.2,12.6z M12,12.6c-0.3,0-0.6-0.3-0.6-0.6s0.3-0.6,0.6-0.6c0.3,0,0.6,0.3,0.6,0.6S12.3,12.6,12,12.6z"/>
	</g>
</g>
</svg>
