<?xml version="1.0" encoding="utf-8"?>
<!-- Generator: Adobe Illustrator 25.4.1, SVG Export Plug-In . SVG Version: 6.00 Build 0)  -->
<svg version="1.1" id="Ebene_1" xmlns="http://www.w3.org/2000/svg" xmlns:xlink="http://www.w3.org/1999/xlink" x="0px" y="0px"
	 viewBox="0 0 30 30" style="enable-background:new 0 0 30 30;" xml:space="preserve">
<style type="text/css">
	.st0{opacity:0.7;}
	.st1{fill:#FFFFFF;}
	.st2{fill:none;}
</style>
<g id="ic_pending" class="st0">
	<g id="Group_8850">
		<path id="Path_18903" class="st1" d="M15,27C8.4,27,3,21.6,3,15S8.4,3,15,3s12,5.4,12,12C27,21.6,21.6,27,15,27z M15,6
			c-5,0-9,4-9,9s4,9,9,9s9-4,9-9C24,10,20,6,15,6z"/>
	</g>
	<g id="Group_8851">
		<path id="Path_18904" class="st1" d="M21,18h-7.5V9h3v6H21V18z"/>
	</g>
	<path id="Rectangle_4429" class="st2" d="M0,0h30v30H0V0z"/>
</g>
</svg>
