<?xml version="1.0" encoding="utf-8"?>
<!-- Generator: Adobe Illustrator 25.4.1, SVG Export Plug-In . SVG Version: 6.00 Build 0)  -->
<svg version="1.1" id="ic-transaction-staked" xmlns="http://www.w3.org/2000/svg" xmlns:xlink="http://www.w3.org/1999/xlink"
	 x="0px" y="0px" viewBox="0 0 24 24" style="enable-background:new 0 0 24 24;" xml:space="preserve">
<style type="text/css">
	.st0{fill:#2C2C2C;}
</style>
<g id="Handshake_Light_1_">
	<path id="Handshake_Light" class="st0" d="M25.1,14.2l-2.4,1.1c-0.1,0.1-0.3,0.1-0.5,0c-0.1-0.1-0.3-0.2-0.3-0.3l-0.5-1.3l-2.9,1.1
		l0.4-1.2l0-0.1c0-0.2-0.1-0.6-0.3-0.8l-0.7-0.6l-0.4-0.3c-1-0.7-2.9-2.1-4.3-3L13,8.7l-0.4,0.1l-0.1,0.1c-0.3,0.3-0.8,0.6-1,0.7
		l-0.1,0.1c-0.2,0.1-0.6,0.2-0.8,0.2c0,0-0.1,0-0.1,0c-0.1-0.1,0-0.6,0.4-1.3l0.1-0.1c0.2-0.2,0.5-0.2,0.8-0.3c0.1,0,0.2,0,0.2,0
		c0.7-0.1,1.8-0.2,2.3-0.2c0.4,0,1.3,0.3,1.7,0.9l0.1,0.1l0.2,0c0.4-0.1,1.2-0.3,2.4-0.8l0.3-0.1L18.5,7c-0.1-0.1-0.1-0.3,0-0.5
		c0.1-0.2,0.2-0.3,0.3-0.3l5.7-2.5l-0.2-0.5l-5.7,2.5c-0.3,0.1-0.5,0.4-0.6,0.7c-0.1,0.3-0.1,0.6,0,0.9l0.1,0.3
		c-0.8,0.3-1.4,0.5-1.8,0.6c-0.6-0.7-1.6-0.9-2.1-0.9c-0.5,0-1.7,0.1-2.4,0.2c-0.1,0-0.1,0-0.2,0c-0.4,0-0.8,0.1-1.1,0.4
		c-1.2,0-2.9-0.1-3.8-0.1l0.2-0.6C7,6.9,7,6.4,6.8,6.1C6.6,5.7,6.2,5.5,5.8,5.4l-6.1-1.7l0,0.6l6,1.7C5.9,6,6.1,6.2,6.3,6.4
		c0.1,0.2,0.2,0.5,0.1,0.7L6,8.5l0.4,0c0.4,0,2.4,0,3.8,0.1C9.8,9.3,9.7,9.8,10,10.2c0.1,0.1,0.3,0.3,0.6,0.3c0.3,0,0.7-0.2,1.1-0.3
		l0.1,0c0.3-0.1,0.8-0.5,1.1-0.8l0.1,0c1.4,0.9,3.2,2.2,4.2,2.9l1.1,0.8c0.1,0.1,0.1,0.3,0.1,0.5l0,0l-0.5,1.6l0,0.1l0,0.1
		c0,0,0,0.1,0,0.2c-0.1,0.3-0.4,0.6-0.6,0.7l-0.2,0l0,0.2c0,0.2-0.1,0.5-0.3,0.7c-0.2,0.2-0.5,0.3-1,0.1c0,0-0.1,0-0.1,0l-0.4-0.1
		l0,0.4c0,0.2-0.1,0.4-0.2,0.5c-0.2,0.2-0.7,0.2-1.2-0.1c0.2-0.7,0.4-1.5-0.1-1.9c-0.2-0.2-0.5-0.4-0.8-0.4c-0.1,0-0.2,0-0.3,0.1
		c0-0.1-0.1-0.1-0.1-0.1c-0.2-0.3-0.5-0.5-0.8-0.5c-0.1,0-0.2,0-0.3,0c0-0.1-0.1-0.2-0.1-0.2c-0.3-0.4-0.8-0.5-1.3-0.3
		c0,0,0-0.1-0.1-0.1c-0.2-0.4-0.6-0.6-0.9-0.6c-0.3,0-1,0.5-1.4,1.3c-1-0.3-2.1-0.6-2.6-0.8l-0.3-0.1l-0.3,1.2
		c-0.1,0.4-0.5,0.7-0.9,0.7c-0.1,0-0.2,0-0.2,0l-3.9-1.1l0,0.6l3.8,1.1c0.8,0.2,1.7-0.3,1.9-1.1L5,15c0.6,0.2,1.4,0.4,2.2,0.7
		c-0.6,1.6,0.4,2.1,0.6,2.2c0.3,0.1,0.6,0.1,0.9,0c0.1,0.2,0.2,0.3,0.4,0.4c0.3,0.2,0.6,0.2,0.9,0.1c0.1,0.2,0.3,0.3,0.4,0.4
		c0.3,0.2,0.6,0.1,0.9,0c0,0,0,0.1,0.1,0.1c0.2,0.2,0.4,0.4,0.6,0.4c0.1,0,0.1,0,0.2,0c0.7,0,1-0.5,1.2-0.9c0.8,0.4,1.5,0.3,1.9-0.1
		c0.1-0.1,0.2-0.3,0.3-0.5c0.7,0.2,1.1-0.1,1.4-0.3c0.2-0.3,0.3-0.6,0.4-0.9c0.4-0.2,0.7-0.6,0.9-1c0,0,0-0.1,0.1-0.2l2.8-1.1
		l0.3,0.8c0.1,0.3,0.4,0.5,0.6,0.6c0.3,0.1,0.6,0.1,0.9,0l2.4-1.1L25.1,14.2z M12.1,18.7c-0.1,0-0.2-0.1-0.2-0.2
		c-0.1-0.1-0.1-0.2-0.1-0.4l-0.1-0.6l-0.4,0.5c-0.2,0.2-0.4,0.3-0.6,0.2c-0.1-0.1-0.2-0.2-0.3-0.4l-0.1-0.4l-0.3,0.3
		c-0.2,0.1-0.3,0.1-0.6,0c-0.2-0.1-0.2-0.2-0.3-0.4L9,16.9l-0.4,0.4c-0.2,0.2-0.4,0.2-0.6,0.1c-0.2-0.1-0.7-0.4-0.3-1.5
		c0-0.1,0.1-0.1,0.1-0.2l0-0.1c0.3-0.7,0.9-1.1,1-1.1c0.2,0,0.3,0.1,0.5,0.3c0.1,0.1,0.1,0.2,0.1,0.3l0.1,0.5l0.4-0.4
		c0.1-0.1,0.3-0.2,0.4-0.2c0.1,0,0.2,0.1,0.3,0.2c0.1,0.1,0.1,0.2,0.1,0.3l0.1,0.5l0.4-0.3c0.1-0.1,0.2-0.1,0.3-0.1
		c0.2,0,0.3,0.1,0.3,0.2c0.1,0.1,0.1,0.2,0.1,0.3l0.1,0.5l0.4-0.4c0.1-0.1,0.2-0.1,0.3-0.1c0.1,0,0.2,0.1,0.4,0.3
		c0.2,0.1,0.2,0.7-0.2,1.5l0,0l0,0.1C12.8,18.4,12.6,18.8,12.1,18.7z"/>
</g>
</svg>
