<?xml version="1.0" encoding="utf-8"?>
<!-- Generator: Adobe Illustrator 25.4.1, SVG Export Plug-In . SVG Version: 6.00 Build 0)  -->
<svg version="1.1" id="ic-transaction-staked" xmlns="http://www.w3.org/2000/svg" xmlns:xlink="http://www.w3.org/1999/xlink"
	 x="0px" y="0px" viewBox="0 0 24 24" style="enable-background:new 0 0 24 24;" xml:space="preserve">
<style type="text/css">
	.st0{fill:#00F3FF;}
</style>
<g id="Handshake_Light_1_">
	<path id="Handshake_Light" class="st0" d="M25.1,14.2l-2.4,1.1c-0.1,0.1-0.3,0.1-0.5,0c-0.1-0.1-0.3-0.2-0.3-0.3l-0.5-1.3l-2.9,1.1
		l0.4-1.2v-0.1c0-0.2-0.1-0.6-0.3-0.8l-0.7-0.6l-0.4-0.3c-1-0.7-2.9-2.1-4.3-3L13,8.7l-0.4,0.1l-0.1,0.1c-0.3,0.3-0.8,0.6-1,0.7
		l-0.1,0.1c-0.2,0.1-0.6,0.2-0.8,0.2h-0.1c-0.1-0.1,0-0.6,0.4-1.3L11,8.5c0.2-0.2,0.5-0.2,0.8-0.3c0.1,0,0.2,0,0.2,0
		C12.7,8.1,13.8,8,14.3,8c0.4,0,1.3,0.3,1.7,0.9L16.1,9h0.2c0.4-0.1,1.2-0.3,2.4-0.8L19,8.1L18.5,7c-0.1-0.1-0.1-0.3,0-0.5
		s0.2-0.3,0.3-0.3l5.7-2.5l-0.2-0.5l-5.7,2.5c-0.3,0.1-0.5,0.4-0.6,0.7c-0.1,0.3-0.1,0.6,0,0.9l0.1,0.3c-0.8,0.3-1.4,0.5-1.8,0.6
		c-0.6-0.7-1.6-0.9-2.1-0.9s-1.7,0.1-2.4,0.2c-0.1,0-0.1,0-0.2,0c-0.4,0-0.8,0.1-1.1,0.4c-1.2,0-2.9-0.1-3.8-0.1l0.2-0.6
		C7,6.9,7,6.4,6.8,6.1c-0.2-0.4-0.6-0.6-1-0.7l-6.1-1.7v0.6l6,1.7c0.2,0,0.4,0.2,0.6,0.4c0.1,0.2,0.2,0.5,0.1,0.7L6,8.5h0.4
		c0.4,0,2.4,0,3.8,0.1C9.8,9.3,9.7,9.8,10,10.2c0.1,0.1,0.3,0.3,0.6,0.3s0.7-0.2,1.1-0.3h0.1c0.3-0.1,0.8-0.5,1.1-0.8H13
		c1.4,0.9,3.2,2.2,4.2,2.9l1.1,0.8c0.1,0.1,0.1,0.3,0.1,0.5l0,0l-0.5,1.6v0.1v0.1c0,0,0,0.1,0,0.2c-0.1,0.3-0.4,0.6-0.6,0.7h-0.2
		v0.2c0,0.2-0.1,0.5-0.3,0.7c-0.2,0.2-0.5,0.3-1,0.1h-0.1l-0.4-0.1v0.4c0,0.2-0.1,0.4-0.2,0.5c-0.2,0.2-0.7,0.2-1.2-0.1
		c0.2-0.7,0.4-1.5-0.1-1.9c-0.2-0.2-0.5-0.4-0.8-0.4c-0.1,0-0.2,0-0.3,0.1c0-0.1-0.1-0.1-0.1-0.1c-0.2-0.3-0.5-0.5-0.8-0.5
		c-0.1,0-0.2,0-0.3,0c0-0.1-0.1-0.2-0.1-0.2c-0.3-0.4-0.8-0.5-1.3-0.3c0,0,0-0.1-0.1-0.1C9.8,14.2,9.4,14,9.1,14
		c-0.3,0-1,0.5-1.4,1.3c-1-0.3-2.1-0.6-2.6-0.8l-0.3-0.1l-0.3,1.2C4.4,16,4,16.3,3.6,16.3c-0.1,0-0.2,0-0.2,0l-3.9-1.1v0.6l3.8,1.1
		c0.8,0.2,1.7-0.3,1.9-1.1L5,15c0.6,0.2,1.4,0.4,2.2,0.7c-0.6,1.6,0.4,2.1,0.6,2.2c0.3,0.1,0.6,0.1,0.9,0c0.1,0.2,0.2,0.3,0.4,0.4
		c0.3,0.2,0.6,0.2,0.9,0.1c0.1,0.2,0.3,0.3,0.4,0.4c0.3,0.2,0.6,0.1,0.9,0c0,0,0,0.1,0.1,0.1c0.2,0.2,0.4,0.4,0.6,0.4
		c0.1,0,0.1,0,0.2,0c0.7,0,1-0.5,1.2-0.9c0.8,0.4,1.5,0.3,1.9-0.1c0.1-0.1,0.2-0.3,0.3-0.5c0.7,0.2,1.1-0.1,1.4-0.3
		c0.2-0.3,0.3-0.6,0.4-0.9c0.4-0.2,0.7-0.6,0.9-1c0,0,0-0.1,0.1-0.2l2.8-1.1l0.3,0.8c0.1,0.3,0.4,0.5,0.6,0.6c0.3,0.1,0.6,0.1,0.9,0
		l2.4-1.1L25.1,14.2z M12.1,18.7c-0.1,0-0.2-0.1-0.2-0.2c-0.1-0.1-0.1-0.2-0.1-0.4l-0.1-0.6L11.3,18c-0.2,0.2-0.4,0.3-0.6,0.2
		c-0.1-0.1-0.2-0.2-0.3-0.4l-0.1-0.4L10,17.7c-0.2,0.1-0.3,0.1-0.6,0c-0.2-0.1-0.2-0.2-0.3-0.4L9,16.9l-0.4,0.4
		c-0.2,0.2-0.4,0.2-0.6,0.1c-0.2-0.1-0.7-0.4-0.3-1.5c0-0.1,0.1-0.1,0.1-0.2v-0.1c0.3-0.7,0.9-1.1,1-1.1c0.2,0,0.3,0.1,0.5,0.3
		c0.1,0.1,0.1,0.2,0.1,0.3l0.1,0.5l0.4-0.4c0.1-0.1,0.3-0.2,0.4-0.2c0.1,0,0.2,0.1,0.3,0.2c0.1,0.1,0.1,0.2,0.1,0.3l0.1,0.5l0.4-0.3
		c0.1-0.1,0.2-0.1,0.3-0.1c0.2,0,0.3,0.1,0.3,0.2c0.1,0.1,0.1,0.2,0.1,0.3l0.1,0.5l0.4-0.4c0.1-0.1,0.2-0.1,0.3-0.1s0.2,0.1,0.4,0.3
		c0.2,0.1,0.2,0.7-0.2,1.5l0,0V18C12.8,18.4,12.6,18.8,12.1,18.7z"/>
</g>
</svg>
