<?xml version="1.0" encoding="utf-8"?>
<!-- Generator: Adobe Illustrator 25.4.1, SVG Export Plug-In . SVG Version: 6.00 Build 0)  -->
<svg version="1.1" id="ic_empty_multisend" xmlns="http://www.w3.org/2000/svg" xmlns:xlink="http://www.w3.org/1999/xlink" x="0px"
	 y="0px" viewBox="0 0 100 100" style="enable-background:new 0 0 100 100;" xml:space="preserve">
<style type="text/css">
	.st0{fill:#D6D6D6;}
	.st1{fill:#666666;}
	.st2{fill:none;}
	.st3{fill-rule:evenodd;clip-rule:evenodd;}
	.st4{fill-rule:evenodd;clip-rule:evenodd;fill:#353535;}
</style>
<g id="Group_9031">
	<g id="Group_9029">
		<path id="Rectangle_4683" class="st0" d="M45,18h10v9H45V18z"/>
		<g id="Group_9028">
			<path id="Rectangle_4684" class="st0" d="M14,66h6v10h-6V66z"/>
			<path id="Rectangle_4685" class="st0" d="M80,66h6v10h-6V66z"/>
			<path id="Rectangle_4686" class="st0" d="M47,66h6v10h-6V66z"/>
		</g>
	</g>
	<g id="Group_9030">
		<path id="Rectangle_4688" class="st1" d="M67,40h2v4h-2V40z"/>
		<circle id="Ellipse_626" class="st1" cx="50" cy="73" r="1"/>
		<circle id="Ellipse_627" class="st1" cx="83" cy="73" r="1"/>
		<path id="Rectangle_4689" class="st1" d="M32,58h4v2h-4V58z"/>
		<path id="Path_18986" class="st1" d="M16,65h-3v3H7v4h2v-2h4v7h8v-7h4v21H9V76H7v17h20V68h-6v-3h-3v-5h10v-2H16V65z M19,67v8h-4
			v-8H19z"/>
		<circle id="Ellipse_628" class="st1" cx="17" cy="73" r="1"/>
		<path id="Path_18987" class="st1" d="M87,68v-3h-3v-7H51v-5h18v-5h-2v3H33V28h34v8h2v-8h4V17H59.5c2.2-2.5,2-6.3-0.5-8.5
			s-6.3-2-8.5,0.5c-0.2,0.2-0.4,0.5-0.5,0.7c-1.8-2.8-5.5-3.5-8.3-1.7c-2.8,1.8-3.5,5.5-1.7,8.3c0.2,0.3,0.4,0.5,0.6,0.7H27v11h4v25
			h18v5h-9v2h9v5h-3v3h-6v16h2V70h4v7h8v-7h4v21H42v-3h-2v5h20V68h-6v-3h-3v-5h31v5h-3v3h-6v12h2V70h4v7h8v-7h4v21H75v-7h-2v9h20V68
			H87z M71,19v7H56v-7H71z M51,13c0-2.2,1.8-4,4-4s4,1.8,4,4s-1.8,4-4,4h-4V13z M51,19h3v7h-8v-7H51z M45,9c2.2,0,4,1.8,4,4v4h-4
			c-2.2,0-4-1.8-4-4S42.8,9,45,9z M29,26v-7h15v7H29z M52,67v8h-4v-8H52z M85,75h-4v-8h4V75z"/>
	</g>
</g>
<path id="Rectangle_4690" class="st2" d="M0,0h100v100H0V0z"/>
<path class="st3" d="M50,43.4c2.2,0,3.9-1.8,3.9-3.9c0-2.2-1.8-3.9-3.9-3.9s-3.9,1.8-3.9,3.9c0,0,0,0,0,0.1
	C46.1,41.6,47.9,43.4,50,43.4z"/>
<path class="st3" d="M49.4,33.5c-1.3-1.1-3.4-0.8-4.9,0.8c-1.3,1.4-1.4,3.6-0.4,4.4L49.4,33.5z"/>
<path class="st3" d="M55.9,38.7c1.1-1.2,0.8-3.3-0.9-4.8c-1.4-1.3-3.5-1.4-4.4-0.4L55.9,38.7z"/>
<path class="st3" d="M44.1,40c-1.1,1.3-0.8,3.4,0.9,4.9c1.4,1.3,3.5,1.4,4.4,0.4L44.1,40z"/>
<path class="st3" d="M50.6,45.3c1.3,1.1,3.4,0.8,4.7-0.7c1.4-1.6,1.6-3.6,0.6-4.6L50.6,45.3z"/>
<path class="st4" d="M57.8,41.6c1.2-1.1,1.1-3.5,0-4.4c-0.6,0.8-1.1,1.4-1.7,2.2c0.6,0.7,1.1,1.4,1.6,2.1
	C57.8,41.5,57.8,41.6,57.8,41.6z"/>
<path class="st4" d="M42.2,37.2c-1.1,1.1-1.1,3.3,0,4.4l1.7-2.3L42.2,37.2z"/>
<path class="st4" d="M47.8,47.3c1.3,1.1,3.3,1.1,4.4,0L50,45.6L47.8,47.3z"/>
<path class="st4" d="M47.8,31.5l2.2,1.7l2.2-1.7C50.9,30.4,49,30.4,47.8,31.5z"/>
<path class="st4" d="M53.7,31.9l3.8,3.7C57.5,34.6,55,31.9,53.7,31.9z"/>
<path class="st4" d="M46.3,32c-1.4,0.1-3.6,2.4-3.7,3.7L46.3,32z"/>
<path class="st4" d="M57.4,43.2l-3.8,3.7C54.8,47,57.5,44.4,57.4,43.2z"/>
<path class="st4" d="M46.3,46.8l-3.7-3.6C42.5,44.4,44.9,46.7,46.3,46.8z"/>
<path class="st4" d="M50,43.4c-2.2,0-3.9-1.8-3.9-3.9c0-2.2,1.8-3.9,3.9-3.9c2.1,0,3.9,1.8,3.9,3.9C53.9,41.5,52.2,43.3,50,43.4
	C50.1,43.4,50,43.4,50,43.4z"/>
<path class="st4" d="M49.4,33.5L44,38.7c-0.9-0.8-0.8-2.9,0.4-4.4C46,32.7,48.2,32.4,49.4,33.5z"/>
<path class="st4" d="M55.9,38.7l-5.3-5.2c0.9-1,3-0.9,4.4,0.4C56.6,35.4,57,37.5,55.9,38.7z"/>
<path class="st4" d="M44.1,40l5.3,5.3c-0.9,0.9-3,0.9-4.4-0.4C43.4,43.4,43,41.3,44.1,40z"/>
<path class="st4" d="M50.6,45.3l5.3-5.3c1,0.9,0.8,3-0.6,4.6C54,46.1,51.9,46.4,50.6,45.3z"/>
<path class="st4" d="M57.8,41.6c-0.1,0-0.1-0.1-0.1-0.1c-0.5-0.7-1.1-1.4-1.6-2.1c0.6-0.8,1.1-1.4,1.7-2.2
	C59,38.2,59,40.5,57.8,41.6z"/>
<path class="st4" d="M42.2,37.2l1.7,2.2l-1.7,2.3C41,40.5,41,38.3,42.2,37.2z"/>
<path class="st4" d="M47.8,47.3l2.2-1.7l2.2,1.7C51.1,48.4,49.1,48.4,47.8,47.3z"/>
<path class="st4" d="M47.8,31.5c1.2-1.1,3.2-1.1,4.4,0L50,33.3L47.8,31.5z"/>
<path class="st4" d="M53.7,31.9c1.3-0.1,3.8,2.6,3.8,3.7L53.7,31.9z"/>
<path class="st4" d="M46.3,32l-3.7,3.6C42.7,34.3,44.9,32.1,46.3,32z"/>
<path class="st4" d="M57.4,43.2c0.1,1.3-2.7,3.9-3.8,3.7L57.4,43.2z"/>
<path class="st4" d="M46.3,46.8c-1.4-0.1-3.7-2.4-3.7-3.6L46.3,46.8z"/>
</svg>
