<?xml version="1.0" encoding="utf-8"?>
<!-- Generator: Adobe Illustrator 26.0.1, SVG Export Plug-In . SVG Version: 6.00 Build 0)  -->
<svg version="1.1" id="Group_9058" xmlns="http://www.w3.org/2000/svg" xmlns:xlink="http://www.w3.org/1999/xlink" x="0px" y="0px"
	 viewBox="0 0 100 100" style="enable-background:new 0 0 100 100;" xml:space="preserve">
<style type="text/css">
	.st0{fill:none;stroke:#ABABAB;stroke-miterlimit:10;}
	.st1{fill:#ABABAB;}
</style>
<g id="Digital_Ledger_Dark">
	<g>
		<path class="st0" d="M73.6,75.9h2.3c4.9,0,8.6-3.8,8.6-8.6V24.9v-9c0-4.9-3.8-8.6-8.6-8.6H35.4c-4.9,0-8.6,3.8-8.6,8.6v3.8"/>
		<path class="st1" d="M81.9,9.9l-5.6-3H35.4L29,10.2l-2.3,5.3h57.8L81.9,9.9z M34.6,12.9c-1.1,0-2.3-1.1-2.3-2.3s1.1-2.3,2.3-2.3
			s2.3,1.1,2.3,2.3S36.1,12.9,34.6,12.9z M41.4,12.9c-1.1,0-2.3-1.1-2.3-2.3s1.1-2.3,2.3-2.3c1.1,0,2.3,1.1,2.3,2.3
			S42.5,12.9,41.4,12.9z M48.1,12.9c-1.1,0-2.3-1.1-2.3-2.3s1.1-2.3,2.3-2.3s2.3,1.1,2.3,2.3S49.2,12.9,48.1,12.9z"/>
	</g>
	<path class="st1" d="M61.6,22.2H21.1c-5.3,0-9.8,4.1-9.8,9.8v51.4c0,5.3,4.1,9.8,9.8,9.8h40.5c5.3,0,9.8-4.1,9.8-9.8V32
		C71.4,26.7,66.9,22.2,61.6,22.2z M33.9,24.5c1.1,0,2.3,1.1,2.3,2.3s-1.1,2.6-2.3,2.6c-1.1,0-2.3-1.1-2.3-2.3
		C31.6,26,32.4,24.5,33.9,24.5z M27.1,24.5c1.5,0,2.3,1.1,2.3,2.6c0,1.5-0.8,2.3-2.3,2.3c-1.1,0-2.3-1.1-2.3-2.3
		C24.9,26,26,24.5,27.1,24.5z M20.4,24.5c1.1,0,2.3,1.1,2.3,2.3s-0.8,2.6-2.3,2.6c-1.1,0-2.3-1.1-2.3-2.3
		C18.1,26,19.2,24.5,20.4,24.5z M39.1,85.3H17.4v-1.9h21.8V85.3z M39.1,77.4H17.4v-1.9h21.8V77.4z M39.1,69.5H17.4v-1.9h21.8V69.5z
		 M39.1,61.6H17.4v-1.9h21.8V61.6z M39.1,53.8H17.4v-1.9h21.8V53.8z M39.1,45.9H17.4V44h21.8V45.9z M65.4,85.3H43.6v-1.9h21.8V85.3z
		 M65.4,77.4H43.6v-1.9h21.8V77.4z M65.4,69.5H43.6v-1.9h21.8V69.5z M65.4,61.6H43.6v-1.9h21.8V61.6z M65.4,53.8H43.6v-1.9h21.8
		V53.8z M65.4,45.9H43.6V44h21.8V45.9z M65.4,38h-48v-1.9h48V38z"/>
</g>
</svg>
