<?xml version="1.0" encoding="utf-8"?>
<!-- Generator: Adobe Illustrator 25.4.1, SVG Export Plug-In . SVG Version: 6.00 Build 0)  -->
<svg version="1.1" id="ic_empty_zsparks" xmlns="http://www.w3.org/2000/svg" xmlns:xlink="http://www.w3.org/1999/xlink" x="0px"
	 y="0px" viewBox="0 0 100 100" style="enable-background:new 0 0 100 100;" xml:space="preserve">
<style type="text/css">
	.st0{fill:#D6D6D6;}
	.st1{fill:#666666;}
	.st2{fill:none;}
	.st3{fill-rule:evenodd;clip-rule:evenodd;fill:#E32435;}
	.st4{fill:#FFFFFF;}
	.st5{font-family:'MyriadPro-Regular';}
	.st6{font-size:12.9732px;}
</style>
<g id="Group_9086">
	<path id="Path_19031" class="st0" d="M50,26c-13.3,0-24,10.7-24,24s10.7,24,24,24s24-10.7,24-24S63.3,26,50,26z M50,68
		c-9.9,0-18-8.1-18-18s8.1-18,18-18s18,8.1,18,18S59.9,68,50,68z"/>
	<g id="Group_9085">
		<g id="Group_9083">
			<path id="Path_19032" class="st1" d="M50,31c-10.5,0-19,8.5-19,19s8.5,19,19,19s19-8.5,19-19C69,39.5,60.5,31,50,31z M50,67
				c-9.4,0-17-7.6-17-17s7.6-17,17-17s17,7.6,17,17C67,59.4,59.4,67,50,67z"/>
			<path id="Rectangle_4749" class="st1" d="M83,56h2v4h-2V56z"/>
			<path id="Rectangle_4750" class="st1" d="M83,44h2v8h-2V44z"/>
			<path id="Rectangle_4751" class="st1" d="M15,48h2v8h-2V48z"/>
			<path id="Rectangle_4752" class="st1" d="M15,40h2v4h-2V40z"/>
			<path id="Path_19033" class="st1" d="M95.2,71H85v-7h-2v9h7.8L76,90.5L61.2,73H68v-2h-4.5c11.6-7.5,15-22.9,7.5-34.5
				c-6.4-9.9-18.9-14-29.9-9.8L24,6.5L4.8,29H15v7h2v-9H9.2L24,9.5L38.8,27H32v2h4.5c-11.6,7.5-15,22.9-7.5,34.5
				c6.4,9.9,18.9,14,29.9,9.8L76,93.5L95.2,71z M27,50c0-12.7,10.3-23,23-23s23,10.3,23,23S62.7,73,50,73C37.3,73,27,62.7,27,50z"/>
		</g>
	</g>
</g>
<path id="Rectangle_4753" class="st2" d="M0,0h100v100H0V0z"/>
<path id="Rectangle_4542" class="st2" d="M30.1,30h39.6v39.6H30.1V30z"/>
<path id="Rectangle_4543" class="st2" d="M30.4,29.8H70v39.6H30.4V29.8z"/>
<path class="st3" d="M49.9,56.4c3.6,0,6.5-2.9,6.5-6.5c0-3.6-2.9-6.5-6.5-6.5c-3.6,0-6.5,2.9-6.5,6.5c0,0,0,0,0,0.1
	C43.4,53.6,46.3,56.4,49.9,56.4z"/>
<path class="st3" d="M48.9,40.2c-2-1.9-5.6-1.3-8,1.4c-2.1,2.4-2.3,5.9-0.8,7.2L48.9,40.2z"/>
<path class="st3" d="M59.6,48.9c1.8-2,1.2-5.5-1.4-7.9c-2.4-2.1-5.8-2.4-7.3-0.7L59.6,48.9z"/>
<path class="st3" d="M40.1,51c-1.8,2.1-1.3,5.6,1.4,8c2.3,2.1,5.7,2.2,7.3,0.6L40.1,51z"/>
<path class="st3" d="M50.9,59.7c2.1,1.7,5.6,1.3,7.7-1.1c2.3-2.6,2.6-6,1-7.5L50.9,59.7z"/>
<path class="st3" d="M62.8,53.6c1.9-1.8,1.8-5.8,0-7.3c-0.9,1.2-1.8,2.4-2.8,3.6c0.9,1.2,1.8,2.3,2.6,3.5
	C62.7,53.5,62.8,53.6,62.8,53.6z"/>
<path class="st3" d="M36.9,46.3c-1.9,1.9-1.9,5.5,0,7.3l2.8-3.7L36.9,46.3z"/>
<path class="st3" d="M46.2,63c2.1,1.9,5.5,1.8,7.3,0l-3.6-2.8L46.2,63z"/>
<path class="st3" d="M46.2,37l3.7,2.8l3.7-2.8C51.5,35.1,48.2,35.1,46.2,37z"/>
<path class="st3" d="M55.9,37.7l6.2,6.1C62.3,42,58.1,37.6,55.9,37.7z"/>
<path class="st3" d="M43.8,37.7c-2.3,0.2-6,3.9-6.1,6.1L43.8,37.7z"/>
<path class="st3" d="M62.1,56.1l-6.2,6.1C57.7,62.5,62.2,58.2,62.1,56.1z"/>
<path class="st3" d="M43.7,62.2l-6.1-6C37.6,58.2,41.4,62,43.7,62.2z"/>
<path class="st3" d="M49.9,56.4c-3.6,0-6.5-2.9-6.5-6.4c0-3.6,2.9-6.5,6.4-6.5c3.6,0,6.5,2.8,6.5,6.4C56.4,53.5,53.5,56.4,49.9,56.4
	C49.9,56.4,49.9,56.4,49.9,56.4z"/>
<path class="st3" d="M48.9,40.2l-8.8,8.6c-1.5-1.4-1.3-4.9,0.8-7.2C43.2,38.9,46.8,38.4,48.9,40.2z"/>
<path class="st3" d="M59.6,48.9l-8.7-8.6c1.5-1.6,5-1.4,7.3,0.7C60.8,43.4,61.4,46.9,59.6,48.9z"/>
<path class="st3" d="M40.1,51l8.7,8.7c-1.5,1.6-5,1.4-7.3-0.6C38.9,56.6,38.3,53.1,40.1,51z"/>
<path class="st3" d="M50.9,59.7l8.7-8.7c1.6,1.5,1.3,4.9-1,7.5C56.5,61,53,61.4,50.9,59.7z"/>
<path class="st3" d="M62.8,53.6c-0.1,0-0.1-0.1-0.2-0.2c-0.9-1.2-1.8-2.3-2.6-3.5c0.9-1.2,1.8-2.4,2.8-3.6
	C64.6,47.9,64.7,51.8,62.8,53.6z"/>
<path class="st3" d="M36.9,46.3l2.8,3.6l-2.8,3.7C35,51.8,35,48.2,36.9,46.3z"/>
<path class="st3" d="M46.2,63l3.7-2.8l3.6,2.8C51.7,64.8,48.3,64.8,46.2,63z"/>
<path class="st3" d="M46.2,37c2-1.9,5.3-1.9,7.3,0l-3.7,2.8L46.2,37z"/>
<path class="st3" d="M55.9,37.7c2.2-0.2,6.4,4.3,6.2,6.1L55.9,37.7z"/>
<path class="st3" d="M43.8,37.7l-6.1,6.1C37.7,41.6,41.4,37.9,43.8,37.7z"/>
<path class="st3" d="M62.1,56.1c0.1,2-4.4,6.4-6.2,6.1L62.1,56.1z"/>
<path class="st3" d="M43.7,62.2c-2.3-0.1-6.1-4-6.1-6L43.7,62.2z"/>
<text transform="matrix(1 0 0 1 46.1945 54.1314)" class="st4 st5 st6">Z</text>
</svg>
