<?xml version="1.0" encoding="UTF-8" standalone="no"?>
<!DOCTYPE svg PUBLIC "-//W3C//DTD SVG 1.1//EN" "http://www.w3.org/Graphics/SVG/1.1/DTD/svg11.dtd">
<svg width="100%" height="100%" viewBox="0 0 5209 1738" version="1.1" xmlns="http://www.w3.org/2000/svg" xmlns:xlink="http://www.w3.org/1999/xlink" xml:space="preserve" xmlns:serif="http://www.serif.com/" style="fill-rule:evenodd;clip-rule:evenodd;stroke-linejoin:round;stroke-miterlimit:2;">
    <g>
        <g>
            <path d="M852.427,1232.82C1051.5,1232.76 1215.28,1068.94 1215.28,869.866C1215.28,670.755 1051.43,506.912 852.324,506.912C653.213,506.912 489.37,670.755 489.37,869.866C489.37,871.043 489.375,872.22 489.387,873.396C491.032,1071.31 654.506,1233.16 852.427,1232.82Z" style="fill:rgb(227,36,53);"/>
            <path d="M794.992,324.447C680.637,220.598 480.001,250.134 345.324,401.946C227.87,534.039 216.159,732.093 302.269,807.87L794.992,324.447Z" style="fill:rgb(227,36,53);"/>
            <path d="M1398.45,808.731C1496.7,697.821 1468.11,501.059 1319.06,365.694C1187.13,245.915 994.335,233.515 909.086,325.136L1398.45,808.731Z" style="fill:rgb(227,36,53);"/>
            <path d="M304.939,928.94C204.879,1045.19 234.501,1243.33 385.452,1378.78C514.014,1494.17 707.504,1504.59 792.494,1415.12L304.939,928.94Z" style="fill:rgb(227,36,53);"/>
            <path d="M909.949,1415.63C1025.51,1512.76 1224.25,1488.74 1344.72,1351.56C1473.88,1204.4 1490.5,1013.58 1398.19,929.624L909.949,1415.63Z" style="fill:rgb(227,36,53);"/>
            <path d="M1578.59,1074.29C1687,973.541 1680.55,751.377 1577.21,666.645C1525.55,734.672 1473.62,802.699 1421.44,870.726C1471.04,936.256 1520.12,1001.18 1569.29,1065.85C1572.08,1068.99 1575.2,1071.82 1578.59,1074.29Z" style="fill:rgb(227,36,53);"/>
            <path d="M124.366,664.582C20,769.034 19.311,972.254 124.366,1075.5L282.464,868.835L124.366,664.582Z" style="fill:rgb(227,36,53);"/>
            <path d="M645.849,1599.65C763.734,1703.93 954.64,1702.98 1055.99,1598.44L851.566,1441.47L645.849,1599.65Z" style="fill:rgb(227,36,53);"/>
            <path d="M646.021,140.602L851.566,298.7L1057.03,139.999C941.121,36.667 757.878,36.667 646.021,140.602Z" style="fill:rgb(227,36,53);"/>
            <path d="M1191.79,181.849L1538.21,524.309C1548.2,424.852 1312.95,173.065 1191.79,181.849Z" style="fill:rgb(227,36,53);"/>
            <path d="M509.45,183.054C378.132,192.957 170.607,402.291 166.301,523.792L509.45,183.054Z" style="fill:rgb(227,36,53);"/>
            <path d="M1538.47,1215.43L1192.48,1556.43C1292.02,1572.44 1542.78,1330.47 1538.47,1215.43Z" style="fill:rgb(227,36,53);"/>
            <path d="M507.298,1554.27L165.01,1217.06C162.685,1331.07 378.391,1547.3 507.298,1554.27Z" style="fill:rgb(227,36,53);"/>
            <path d="M852.427,1232.82C851.687,1232.83 850.946,1232.83 850.206,1232.83C651.095,1232.83 487.251,1068.98 487.251,869.873C487.251,670.762 651.095,506.918 850.206,506.918C1047.98,506.918 1211.21,668.57 1213.14,866.335C1213.16,867.943 1213.17,869.551 1213.17,871.159C1213.17,1069.21 1050.48,1232.32 852.427,1232.82Z" style="fill:rgb(227,36,53);"/>
            <path d="M794.992,324.447L302.786,807.697C216.676,731.92 228.215,533.867 345.841,401.774C480.001,250.134 680.637,220.598 794.992,324.447Z" style="fill:rgb(227,36,53);"/>
            <path d="M1398.45,808.731L909.086,325.136C994.335,233.515 1187.13,245.915 1319.06,365.694C1468.11,501.059 1496.7,697.821 1398.45,808.731Z" style="fill:rgb(227,36,53);"/>
            <path d="M304.939,928.94L792.494,1415.12C707.504,1504.59 514.014,1494.17 385.452,1378.78C234.501,1243.33 204.879,1045.19 304.939,928.94Z" style="fill:rgb(227,36,53);"/>
            <path d="M909.949,1415.63L1398.19,929.194C1490.5,1013.58 1473.88,1204.75 1344.72,1351.13C1224.16,1488.74 1025.51,1512.76 909.949,1415.63Z" style="fill:rgb(227,36,53);"/>
            <path d="M1578.59,1074.29C1575.13,1071.77 1571.95,1068.88 1569.12,1065.68C1519.95,1001.01 1470.87,936.084 1421.27,870.554C1472.93,802.412 1524.86,734.385 1577.04,666.473C1680.55,751.377 1687,973.541 1578.59,1074.29Z" style="fill:rgb(227,36,53);"/>
            <path d="M124.366,664.582L282.464,868.491L124.366,1075.15C19.311,972.254 20,769.034 124.366,664.582Z" style="fill:rgb(227,36,53);"/>
            <path d="M645.849,1599.65L851.566,1441.47L1055.99,1598.44C954.64,1702.64 763.734,1703.93 645.849,1599.65Z" style="fill:rgb(227,36,53);"/>
            <path d="M646.021,140.602C757.964,36.667 941.121,36.409 1057.03,140.602L851.566,299.045L646.021,140.602Z" style="fill:rgb(227,36,53);"/>
            <path d="M1191.79,181.849C1312.95,173.238 1548.2,424.852 1538.21,524.309L1191.79,181.849Z" style="fill:rgb(227,36,53);"/>
            <path d="M509.45,183.054L166.043,523.62C170.349,402.118 377.874,192.785 509.45,183.054Z" style="fill:rgb(227,36,53);"/>
            <path d="M1538.47,1215.43C1542.78,1330.47 1292.02,1572.44 1192.48,1556.43L1538.47,1215.43Z" style="fill:rgb(227,36,53);"/>
            <path d="M507.298,1554.27C378.132,1547.3 162.857,1331.07 165.182,1217.06L507.298,1554.27Z" style="fill:rgb(227,36,53);"/>
            <path d="M1969.28,590.7C1997.78,615.499 2034.98,632.808 2068.48,632.808C2106.37,632.808 2124.97,617.911 2124.97,593.8C2124.97,567.967 2101.98,560.303 2066.67,545.406L2015,523.103C1972.81,506.312 1933.11,471.437 1933.11,412.71C1933.11,345.716 1993.39,292.156 2077,292.156C2125.66,292.319 2172.4,311.45 2207.2,345.458L2161.31,403.152C2134.7,382.658 2109.64,370.947 2077,370.947C2044.37,370.947 2025.34,384.552 2025.34,407.457C2025.34,432.257 2052.03,440.954 2087.34,455.248L2139,476.345C2188,496.151 2219,529.045 2219,586.05C2219,653.043 2163.2,711.34 2067.1,711.34C2011.6,711.144 1958.1,690.362 1917.01,653.043L1969.28,590.7Z" style="fill:white;fill-rule:nonzero;"/>
            <path d="M2372.87,299.82L2520.46,299.82C2608.55,299.82 2678.56,332.111 2678.56,430.104C2678.56,524.825 2606.06,567.106 2520.46,567.106L2464.66,567.106L2464.66,704.107L2372.87,704.107L2372.87,299.82ZM2514.87,494.601C2565.07,494.601 2589.26,472.212 2589.26,430.104C2589.26,387.996 2563.43,372.41 2514.87,372.41L2464.66,372.41L2464.66,494.601L2514.87,494.601Z" style="fill:white;fill-rule:nonzero;"/>
            <path d="M2994.16,608.008L2870.16,608.008L2845.36,704.107L2752.36,704.107L2879.46,299.82L2988.56,299.82L3115.66,704.537L3018.96,704.537L2994.16,608.008ZM2975.56,536.709L2965.66,499.509C2954.46,459.209 2943.96,411.504 2932.76,369.31L2930.27,369.31C2920.97,412.366 2909.86,459.209 2898.66,499.509L2888.76,536.709L2975.56,536.709Z" style="fill:white;fill-rule:nonzero;"/>
            <path d="M3463.46,704.107L3385.96,558.408L3336.36,558.408L3336.36,704.107L3244.65,704.107L3244.65,299.82L3390.35,299.82C3475.86,299.82 3546.56,329.614 3546.56,425.713C3546.56,485.301 3517.45,523.103 3474.66,542.306L3565.76,704.107L3463.46,704.107ZM3336.36,485.904L3382.86,485.904C3430.65,485.904 3456.66,465.409 3456.66,425.627C3456.66,385.844 3430.83,372.324 3382.86,372.324L3336.36,372.324L3336.36,485.904Z" style="fill:white;fill-rule:nonzero;"/>
            <path d="M3712.75,299.82L3804.46,299.82L3804.46,465.409L3806.35,465.409L3926.91,299.82L4027.05,299.82L3904.95,461.104L4050.04,704.107L3949.55,704.107L3851.56,533.609L3804.46,595.608L3804.46,704.107L3712.75,704.107L3712.75,299.82Z" style="fill:white;fill-rule:nonzero;"/>
            <path d="M1966.87,824.144L2176.12,824.144C2303.82,824.144 2402.33,858.588 2402.33,976.215C2403.09,1038.83 2359.94,1094.06 2299,1108.48L2299,1112.27C2386.31,1128.2 2432.3,1174.18 2432.3,1255.9C2432.3,1380.67 2327.16,1436.04 2193.86,1436.04L1966.87,1436.04L1966.87,824.144ZM2169.57,1070.94C2237.17,1070.94 2267.14,1041.92 2267.14,995.934C2267.14,949.951 2235.28,931.093 2171.47,931.093L2105.76,931.093L2105.76,1070.94L2169.57,1070.94ZM2182.75,1329.27C2257.84,1329.27 2297.19,1301.11 2297.19,1245.74C2297.19,1192.18 2258.7,1168.76 2182.75,1168.76L2105.76,1168.76L2105.76,1329.27L2182.75,1329.27Z" style="fill:white;fill-rule:nonzero;"/>
            <path d="M2821.85,1290.6L2634.13,1290.6L2596.59,1436.04L2455.54,1436.04L2647.91,824.141L2813.07,824.141L3005.52,1436.04L2859.14,1436.04L2821.85,1290.6ZM2793.69,1182.7L2778.71,1126.39C2761.49,1065.34 2745.81,993.089 2728.94,929.282L2725.23,929.282C2711.11,994.037 2694.23,1065.34 2677.36,1126.39L2662.2,1182.7L2793.69,1182.7Z" style="fill:white;fill-rule:nonzero;"/>
            <path d="M3109.98,1264.34C3153.03,1301.88 3209.44,1328.15 3260.16,1328.15C3317.33,1328.15 3345.49,1305.59 3345.49,1268.99C3345.49,1230.5 3311.05,1218.36 3257.32,1195.8L3178.87,1162.04C3115.06,1136.64 3055.04,1084.11 3055.04,994.988C3055.04,893.636 3146.06,812.865 3272.73,812.865C3346.41,813.095 3417.18,842.092 3469.83,893.636L3400.43,980.866C3360.04,949.866 3321.55,932.041 3272.73,932.041C3225.8,932.041 3195.23,952.708 3195.23,987.41C3195.23,1024.95 3235.53,1038.13 3289.09,1059.74L3366.59,1091.6C3440.73,1121.66 3487.66,1171.43 3487.66,1257.71C3487.66,1359.15 3403.18,1447.15 3257.74,1447.15C3173.75,1446.88 3092.77,1415.45 3030.59,1358.98L3109.98,1264.34Z" style="fill:white;fill-rule:nonzero;"/>
            <path d="M3589.7,824.144L3973.49,824.144L3973.49,940.824L3728.6,940.824L3728.6,1063.79L3936.64,1063.79L3936.64,1179.26L3728.6,1179.26L3728.6,1319.71L3982.88,1319.71L3982.88,1436.04L3589.7,1436.04L3589.7,824.144Z" style="fill:white;fill-rule:nonzero;"/>
        </g>
    </g>
</svg>
