<?xml version="1.0" encoding="utf-8"?>
<!-- Generator: Adobe Illustrator 25.4.1, SVG Export Plug-In . SVG Version: 6.00 Build 0)  -->
<svg version="1.1" id="ic_empty_transactions" xmlns="http://www.w3.org/2000/svg" xmlns:xlink="http://www.w3.org/1999/xlink"
	 x="0px" y="0px" viewBox="0 0 100 100" style="enable-background:new 0 0 100 100;" xml:space="preserve">
<style type="text/css">
	.st0{fill:#D6D6D6;}
	.st1{fill:#666666;}
	.st2{fill:none;}
	.st3{fill-rule:evenodd;clip-rule:evenodd;}
	.st4{fill-rule:evenodd;clip-rule:evenodd;fill:#353535;}
</style>
<g id="Group_9015">
	<path id="Path_18970" class="st0" d="M50,26c-13.3,0-24,10.7-24,24s10.7,24,24,24s24-10.7,24-24S63.3,26,50,26z M50,68
		c-9.9,0-18-8.1-18-18s8.1-18,18-18s18,8.1,18,18S59.9,68,50,68z"/>
	<g id="Group_9014">
		<g id="Group_9013">
			<path id="Path_18972" class="st1" d="M50,31c-10.5,0-19,8.5-19,19s8.5,19,19,19s19-8.5,19-19C69,39.5,60.5,31,50,31z M50,67
				c-9.4,0-17-7.6-17-17s7.6-17,17-17s17,7.6,17,17C67,59.4,59.4,67,50,67z"/>
			<path id="Rectangle_4664" class="st1" d="M83,56h2v4h-2V56z"/>
			<path id="Rectangle_4665" class="st1" d="M83,44h2v8h-2V44z"/>
			<path id="Rectangle_4666" class="st1" d="M15,48h2v8h-2V48z"/>
			<path id="Rectangle_4667" class="st1" d="M15,40h2v4h-2V40z"/>
			<path id="Path_18973" class="st1" d="M95.2,71H85v-7h-2v9h7.8L76,90.5L61.2,73H68v-2h-4.5c11.6-7.5,15-22.9,7.5-34.5
				c-6.4-9.9-18.9-14-29.9-9.8L24,6.5L4.8,29H15v7h2v-9H9.2L24,9.5L38.8,27H32v2h4.5c-11.6,7.5-15,22.9-7.5,34.5
				c6.4,9.9,18.9,14,29.9,9.8L76,93.5L95.2,71z M27,50c0-12.7,10.3-23,23-23s23,10.3,23,23S62.7,73,50,73C37.3,73,27,62.7,27,50z"/>
		</g>
	</g>
</g>
<path id="Rectangle_4668" class="st2" d="M0,0h100v100H0V0z"/>
<path class="st3" d="M50,56.3c3.5,0,6.3-2.8,6.3-6.3c0-3.5-2.8-6.3-6.3-6.3s-6.3,2.8-6.3,6.3c0,0,0,0,0,0.1
	C43.8,53.5,46.6,56.3,50,56.3z"/>
<path class="st3" d="M49,40.6c-2-1.8-5.4-1.3-7.8,1.3c-2,2.3-2.2,5.7-0.7,7L49,40.6z"/>
<path class="st3" d="M59.4,48.9c1.7-1.9,1.2-5.3-1.4-7.6c-2.3-2.1-5.6-2.3-7.1-0.7L59.4,48.9z"/>
<path class="st3" d="M40.6,51c-1.7,2-1.2,5.4,1.4,7.8c2.2,2,5.6,2.2,7,0.6L40.6,51z"/>
<path class="st3" d="M51,59.4c2,1.7,5.4,1.3,7.5-1.1c2.2-2.5,2.5-5.8,0.9-7.3L51,59.4z"/>
<path class="st4" d="M62.5,53.5c1.9-1.7,1.8-5.6,0-7c-0.9,1.2-1.8,2.3-2.7,3.5c0.9,1.1,1.7,2.2,2.5,3.4
	C62.4,53.4,62.5,53.5,62.5,53.5z"/>
<path class="st4" d="M37.5,46.5c-1.8,1.8-1.8,5.3,0,7.1l2.7-3.6L37.5,46.5z"/>
<path class="st4" d="M46.5,62.6c2,1.8,5.3,1.8,7.1,0L50,59.9L46.5,62.6z"/>
<path class="st4" d="M46.5,37.4l3.5,2.7l3.5-2.7C51.5,35.6,48.4,35.6,46.5,37.4z"/>
<path class="st4" d="M55.9,38.1l6,5.9C62,42.3,58,38,55.9,38.1z"/>
<path class="st4" d="M44.1,38.2c-2.3,0.2-5.8,3.8-5.9,5.9L44.1,38.2z"/>
<path class="st4" d="M61.8,56l-6,5.9C57.6,62.1,61.9,57.9,61.8,56z"/>
<path class="st4" d="M44.1,61.8L38.2,56C38.1,58,41.8,61.7,44.1,61.8z"/>
<path class="st4" d="M50,56.3c-3.5,0-6.3-2.8-6.3-6.2c0-3.5,2.8-6.3,6.2-6.3c3.4,0,6.3,2.8,6.3,6.2C56.3,53.4,53.5,56.2,50,56.3
	C50.1,56.3,50,56.3,50,56.3z"/>
<path class="st4" d="M49,40.6l-8.5,8.3c-1.5-1.3-1.3-4.7,0.7-7C43.6,39.3,47.1,38.8,49,40.6z"/>
<path class="st4" d="M59.4,48.9L51,40.6c1.5-1.6,4.8-1.4,7.1,0.7C60.6,43.6,61.1,47,59.4,48.9z"/>
<path class="st4" d="M40.6,51l8.4,8.4c-1.5,1.5-4.8,1.4-7-0.6C39.4,56.4,38.8,53,40.6,51z"/>
<path class="st4" d="M51,59.4l8.4-8.4c1.6,1.5,1.3,4.8-0.9,7.3C56.4,60.7,53,61.1,51,59.4z"/>
<path class="st4" d="M62.5,53.5c-0.1,0-0.1-0.1-0.2-0.1c-0.8-1.1-1.7-2.2-2.5-3.4c0.9-1.2,1.8-2.3,2.7-3.5
	C64.3,48,64.4,51.8,62.5,53.5z"/>
<path class="st4" d="M37.5,46.5l2.7,3.5l-2.7,3.6C35.6,51.8,35.7,48.3,37.5,46.5z"/>
<path class="st4" d="M46.5,62.6l3.5-2.7l3.5,2.7C51.8,64.4,48.5,64.4,46.5,62.6z"/>
<path class="st4" d="M46.5,37.4c1.9-1.8,5.1-1.8,7.1,0L50,40.2L46.5,37.4z"/>
<path class="st4" d="M55.9,38.1c2.1-0.1,6.1,4.2,6,5.9L55.9,38.1z"/>
<path class="st4" d="M44.1,38.2L38.2,44C38.3,41.9,41.8,38.3,44.1,38.2z"/>
<path class="st4" d="M61.8,56c0.1,2-4.3,6.2-6,5.9L61.8,56z"/>
<path class="st4" d="M44.1,61.8c-2.2-0.1-5.9-3.8-5.9-5.8L44.1,61.8z"/>
</svg>
