<?xml version="1.0" encoding="UTF-8" standalone="no"?><!DOCTYPE svg PUBLIC "-//W3C//DTD SVG 1.1//EN" "http://www.w3.org/Graphics/SVG/1.1/DTD/svg11.dtd"><svg width="100%" height="100%" viewBox="0 0 209 209" version="1.1" xmlns="http://www.w3.org/2000/svg" xmlns:xlink="http://www.w3.org/1999/xlink" xml:space="preserve" xmlns:serif="http://www.serif.com/" style="fill-rule:evenodd;clip-rule:evenodd;stroke-linejoin:round;stroke-miterlimit:2;"><g id="ic_spark"><g id="Sparkbase-Symbol-SVG.svg" serif:id="Sparkbase Symbol SVG.svg"><g id="ic_spark1" serif:id="ic_spark"><g id="Sparkbase-Symbol-SVG.svg1" serif:id="Sparkbase Symbol SVG.svg"><g><g><path d="M104.064,150.995c25.684,-0.008 46.815,-21.144 46.815,-46.828c-0,-25.69 -21.139,-46.829 -46.828,-46.829c-25.69,0 -46.829,21.139 -46.829,46.829c0,0.152 0.001,0.303 0.002,0.455c0.213,25.535 21.304,46.416 46.84,46.373Z" style="fill:#e32435;"/></g><g><path d="M96.654,33.796c-14.754,-13.398 -40.641,-9.587 -58.016,9.999c-15.154,17.043 -16.665,42.596 -5.555,52.373l63.571,-62.372Z" style="fill:#e32435;"/></g><g><path d="M174.512,96.279c12.676,-14.31 8.988,-39.696 -10.243,-57.161c-17.021,-15.454 -41.896,-17.054 -52.895,-5.233l63.138,62.394Z" style="fill:#e32435;"/></g><g><path d="M33.427,111.788c-12.91,14.998 -9.088,40.562 10.388,58.038c16.587,14.888 41.551,16.232 52.516,4.689l-62.904,-62.727Z" style="fill:#e32435;"/></g><g><path d="M111.485,174.581c14.91,12.532 40.551,9.433 56.094,-8.265c16.665,-18.987 18.809,-43.607 6.9,-54.439l-62.994,62.704Z" style="fill:#e32435;"/></g><g><path d="M197.754,130.542c13.987,-12.999 13.154,-41.663 -0.178,-52.595c-6.666,8.777 -13.365,17.554 -20.098,26.331c6.4,8.454 12.732,16.831 19.076,25.175c0.36,0.404 0.762,0.77 1.2,1.089Z" style="fill:#e32435;"/></g><g><path d="M10.13,77.681c-13.466,13.476 -13.555,39.695 -0,53.016l20.397,-26.664l-20.397,-26.352Z" style="fill:#e32435;"/></g><g><path d="M77.411,198.323c15.21,13.454 39.84,13.332 52.917,-0.155l-26.375,-20.254l-26.542,20.409Z" style="fill:#e32435;"/></g><g><path d="M77.433,10.077l26.52,20.398l26.508,-20.476c-14.954,-13.332 -38.596,-13.332 -53.028,0.078Z" style="fill:#e32435;"/></g><g><path d="M147.848,15.398l44.695,44.185c1.289,-12.832 -29.063,-45.318 -44.695,-44.185Z" style="fill:#e32435;"/></g><g><path d="M59.813,15.554c-16.943,1.278 -43.717,28.286 -44.273,43.962l44.273,-43.962Z" style="fill:#e32435;"/></g><g><path d="M192.577,148.751l-44.64,43.995c12.843,2.066 45.195,-29.152 44.64,-43.995Z" style="fill:#e32435;"/></g><g><path d="M59.535,192.468l-44.162,-43.506c-0.3,14.709 27.531,42.606 44.162,43.506Z" style="fill:#e32435;"/></g><g><path d="M104.064,150.995c-0.096,0.001 -0.191,0.001 -0.287,0.001c-25.689,0 -46.828,-21.139 -46.828,-46.828c-0,-25.69 21.139,-46.829 46.828,-46.829c25.517,0 46.577,20.856 46.826,46.372c0.003,0.208 0.005,0.415 0.005,0.622c-0,25.553 -20.991,46.598 -46.544,46.662Z" style="fill:#e32435;"/></g><g><path d="M96.654,33.796l-63.505,62.349c-11.11,-9.776 -9.621,-35.329 5.555,-52.372c17.309,-19.564 43.196,-23.375 57.95,-9.977Z" style="fill:#e32435;"/></g><g><path d="M174.512,96.279l-63.138,-62.394c10.999,-11.821 35.874,-10.221 52.895,5.233c19.231,17.465 22.919,42.851 10.243,57.161Z" style="fill:#e32435;"/></g><g><path d="M33.427,111.788l62.904,62.727c-10.965,11.543 -35.929,10.199 -52.516,-4.689c-19.476,-17.476 -23.298,-43.04 -10.388,-58.038Z" style="fill:#e32435;"/></g><g><path d="M111.485,174.581l62.994,-62.76c11.909,10.888 9.765,35.552 -6.9,54.439c-15.554,17.754 -41.184,20.853 -56.094,8.321Z" style="fill:#e32435;"/></g><g><path d="M197.754,130.542c-0.447,-0.326 -0.857,-0.698 -1.222,-1.111c-6.344,-8.344 -12.677,-16.721 -19.076,-25.175c6.666,-8.792 13.365,-17.569 20.098,-26.331c13.354,10.954 14.187,39.618 0.2,52.617Z" style="fill:#e32435;"/></g><g><path d="M10.13,77.681l20.397,26.308l-20.397,26.664c-13.555,-13.277 -13.466,-39.496 -0,-52.972Z" style="fill:#e32435;"/></g><g><path d="M77.411,198.323l26.542,-20.409l26.375,20.254c-13.077,13.443 -37.707,13.609 -52.917,0.155Z" style="fill:#e32435;"/></g><g><path d="M77.433,10.077c14.443,-13.41 38.074,-13.443 53.028,-0l-26.508,20.442l-26.52,-20.442Z" style="fill:#e32435;"/></g><g><path d="M147.848,15.398c15.632,-1.111 45.984,31.353 44.695,44.185l-44.695,-44.185Z" style="fill:#e32435;"/></g><g><path d="M59.813,15.554l-44.306,43.94c0.555,-15.676 27.33,-42.685 44.306,-43.94Z" style="fill:#e32435;"/></g><g><path d="M192.577,148.751c0.555,14.843 -31.797,46.061 -44.64,43.995l44.64,-43.995Z" style="fill:#e32435;"/></g><g><path d="M59.535,192.468c-16.665,-0.9 -44.439,-28.797 -44.139,-43.506l44.139,43.506Z" style="fill:#e32435;"/></g></g></g></g></g></g></svg>