<?xml version="1.0" encoding="utf-8"?>
<!-- Generator: Adobe Illustrator 26.0.1, SVG Export Plug-In . SVG Version: 6.00 Build 0)  -->
<svg version="1.1" id="ic_empty_contacts" xmlns="http://www.w3.org/2000/svg" xmlns:xlink="http://www.w3.org/1999/xlink" x="0px"
	 y="0px" viewBox="0 0 100 100" style="enable-background:new 0 0 100 100;" xml:space="preserve">
<style type="text/css">
	.st0{fill:none;stroke:#ABABAB;stroke-miterlimit:10;}
	.st1{fill:#ABABAB;}
</style>
<g id="Digital_Ledger_Dark">
	<g>
		<path class="st0" d="M74.4,74.8h2.3c4.9,0,8.6-3.8,8.6-8.6V23.8v-9c0-4.9-3.8-8.6-8.6-8.6H36.1c-4.9,0-8.6,3.8-8.6,8.6v3.8"/>
		<path class="st1" d="M82.6,8.8l-5.6-3H36.1l-6.4,3.4l-2.3,5.3h57.8L82.6,8.8z M35.4,11.8c-1.1,0-2.3-1.1-2.3-2.3s1.1-2.3,2.3-2.3
			c1.1,0,2.3,1.1,2.3,2.3S36.9,11.8,35.4,11.8z M42.1,11.8c-1.1,0-2.3-1.1-2.3-2.3s1.1-2.3,2.3-2.3s2.3,1.1,2.3,2.3
			S43.2,11.8,42.1,11.8z M48.9,11.8c-1.1,0-2.3-1.1-2.3-2.3s1.1-2.3,2.3-2.3c1.1,0,2.3,1.1,2.3,2.3S50,11.8,48.9,11.8z"/>
	</g>
	<path class="st1" d="M62.4,21.1H21.9c-5.3,0-9.8,4.1-9.8,9.8v51.4c0,5.3,4.1,9.8,9.8,9.8h40.5c5.3,0,9.8-4.1,9.8-9.8V30.9
		C72.1,25.6,67.6,21.1,62.4,21.1z M34.6,23.4c1.1,0,2.3,1.1,2.3,2.3s-1.1,2.6-2.3,2.6c-1.1,0-2.3-1.1-2.3-2.3
		C32.4,24.9,33.1,23.4,34.6,23.4z M27.9,23.4c1.5,0,2.3,1.1,2.3,2.6s-0.8,2.3-2.3,2.3c-1.1,0-2.3-1.1-2.3-2.3
		C25.6,24.9,26.7,23.4,27.9,23.4z M21.1,23.4c1.1,0,2.3,1.1,2.3,2.3s-0.8,2.6-2.3,2.6c-1.1,0-2.3-1.1-2.3-2.3
		C18.9,24.9,20,23.4,21.1,23.4z M39.9,84.1H18.1v-1.9h21.8V84.1z M39.9,76.3H18.1v-1.9h21.8V76.3z M39.9,68.4H18.1v-1.9h21.8V68.4z
		 M39.9,60.5H18.1v-1.9h21.8V60.5z M39.9,52.6H18.1v-1.9h21.8V52.6z M39.9,44.8H18.1v-1.9h21.8V44.8z M66.1,84.1H44.4v-1.9h21.8
		V84.1z M66.1,76.3H44.4v-1.9h21.8V76.3z M66.1,68.4H44.4v-1.9h21.8V68.4z M66.1,60.5H44.4v-1.9h21.8V60.5z M66.1,52.6H44.4v-1.9
		h21.8V52.6z M66.1,44.8H44.4v-1.9h21.8V44.8z M66.1,36.9h-48V35h48V36.9z"/>
</g>
</svg>
