<?xml version="1.0" encoding="utf-8"?>
<!-- Generator: Adobe Illustrator 25.4.1, SVG Export Plug-In . SVG Version: 6.00 Build 0)  -->
<svg version="1.1" id="Ebene_1" xmlns="http://www.w3.org/2000/svg" xmlns:xlink="http://www.w3.org/1999/xlink" x="0px" y="0px"
	 viewBox="0 0 100 100" style="enable-background:new 0 0 100 100;" xml:space="preserve">
<style type="text/css">
	.st0{fill:#7C7C7C;}
</style>
<path id="Network_Dark" class="st0" d="M86.7,55.1c-2.3,0-4.3,1.3-5.3,3.3l-13.9-4.4c0.3-1.2,0.5-2.5,0.5-3.8
	c0-4.4-1.8-8.3-4.7-11.2l12-13.8c1.8,1.3,4,2.1,6.4,2.1c6.1,0,11.1-5,11.1-11.1s-5-11.1-11.1-11.1c-6.1,0-11.1,5-11.1,11.1
	c0,2.9,1.2,5.6,3.1,7.6l-12,13.9c-2.7-2-5.9-3.2-9.5-3.2c-3.5,0-6.8,1.2-9.5,3.2L27.6,20c0.9-1,1.4-2.4,1.4-3.8
	c0-3.3-2.7-6.1-6.1-6.1s-6.1,2.7-6.1,6.1s2.7,6.1,6.1,6.1c1.1,0,2.2-0.3,3.1-0.9l15.1,17.6c-2.5,2.4-4.1,5.7-4.6,9.3L26,47.5
	c-0.5-5.6-5.2-10.1-11-10.1C9,37.5,4,42.4,4,48.5s5,11.1,11.1,11.1c5.7,0,10.4-4.4,10.9-10l10.3,0.6c0,4.7,2.1,8.9,5.4,11.8
	L29.4,77.9c-0.8-0.4-1.8-0.7-2.8-0.7c-3.3,0-6.1,2.7-6.1,6.1c0,3.3,2.7,6.1,6.1,6.1c3.3,0,6.1-2.7,6.1-6.1c0-1.6-0.6-3-1.6-4.1
	l12.3-15.9c2.5,1.7,5.5,2.7,8.7,2.7c2.1,0,4-0.4,5.8-1.1l5.9,12.5c-3.2,1.9-5.4,5.4-5.4,9.5c0,6.1,5,11.1,11.1,11.1
	s11.1-5,11.1-11.1c0-6.1-5-11.1-11.1-11.1c-1.3,0-2.6,0.3-3.8,0.7l-5.9-12.5c3.2-1.8,5.6-4.6,7-8l13.9,4.4c0,0.3-0.1,0.5-0.1,0.8
	c0,3.3,2.7,6.1,6.1,6.1s6.1-2.7,6.1-6.1C92.7,57.8,90,55.1,86.7,55.1z"/>
</svg>
