<?xml version="1.0" encoding="utf-8"?>
<!-- Generator: Adobe Illustrator 25.4.1, SVG Export Plug-In . SVG Version: 6.00 Build 0)  -->
<svg version="1.1" id="ic_dark_staking_off" xmlns="http://www.w3.org/2000/svg" xmlns:xlink="http://www.w3.org/1999/xlink"
	 x="0px" y="0px" viewBox="0 0 100 100" style="enable-background:new 0 0 100 100;" xml:space="preserve">
<style type="text/css">
	.st0{fill:#777777;}
	.st1{fill:#A0A0A0;}
	.st2{fill:none;}
</style>
<g id="Group_9043">
	<g id="Group_9038">
		<circle id="Ellipse_629" class="st0" cx="50" cy="70" r="14"/>
		<path id="Rectangle_4698" class="st0" d="M41,28h18v18H41V28z"/>
	</g>
	<g id="Group_9042">
		<g id="Group_9039">
			<path id="Rectangle_4699" class="st0" d="M81,58h2v4h-2V58z"/>
			<path id="Path_18992" class="st0" d="M81,91H19v-7h-2v9h66V66h-2V91z"/>
			<path id="Rectangle_4700" class="st0" d="M17,76h2v4h-2V76z"/>
			<path id="Path_18993" class="st0" d="M80,27v2h7v16H60V29h16v-2h-9.7c5-3.5,6.2-10.3,2.7-15.3S58.7,5.5,53.7,9
				c-1.6,1.1-2.9,2.7-3.7,4.5c-2.5-5.5-9-8-14.6-5.5c-5.5,2.5-8,9-5.5,14.6c0.8,1.8,2.1,3.3,3.7,4.5H11v20h6v25h2V47h62v7h2v-7h6V27
				H80z M60,9c5,0,9,4,9,9s-4,9-9,9h-9v-9C51,13,55,9,60,9z M31,18c0-5,4-9,9-9s9,4,9,9v9h-9C35,27,31,23,31,18z M17,45h-4V29h27v16
				H17z M42,45V29h16v16H42z"/>
		</g>
		<g id="Group_9041">
			<path id="Path_18994" class="st1" d="M55,55.9V58c6.6,2.8,9.8,10.4,7,17c-2.8,6.6-10.4,9.8-17,7s-9.8-10.4-7-17
				c1.3-3.2,3.8-5.7,7-7v-2.1c-7.8,2.8-11.9,11.3-9.1,19.1S47.2,86.9,55,84.2S66.9,72.8,64.1,65C62.6,60.7,59.3,57.4,55,55.9z"/>
			<g id="Group_9040">
				<path id="Rectangle_4701" class="st1" d="M49,52h2v20h-2V52z"/>
			</g>
		</g>
	</g>
</g>
<path id="Rectangle_4702" class="st2" d="M0,0h100v100H0V0z"/>
</svg>
