<?xml version="1.0" encoding="utf-8"?>
<!-- Generator: Adobe Illustrator 26.0.1, SVG Export Plug-In . SVG Version: 6.00 Build 0)  -->
<svg version="1.1" id="ic_dark_staking_on" xmlns="http://www.w3.org/2000/svg" xmlns:xlink="http://www.w3.org/1999/xlink" x="0px"
	 y="0px" viewBox="0 0 100 100" style="enable-background:new 0 0 100 100;" xml:space="preserve">
<style type="text/css">
	.st0{fill:none;}
	.st1{fill:#CACACA;}
	.st2{fill-rule:evenodd;clip-rule:evenodd;fill:#CACACA;}
</style>
<path id="Rectangle_4527" class="st0" d="M3.7,4.6h96.2v96.2H3.7C3.7,100.7,3.7,4.6,3.7,4.6z"/>
<g id="Bitcoin_Dark">
	<g>
		<path class="st1" d="M33.3,36.6c-14.8,0-26.9,12-26.9,26.9s12,26.9,26.9,26.9s26.9-12,26.9-26.9S47.7,36.6,33.3,36.6z M53.4,63.1
			c0,11.2-9.2,20-20,20c-11.2,0-20-9.2-20-20s9.2-20,20-20S53.4,51.8,53.4,63.1z"/>
		<path class="st1" d="M91,26.6c-0.8-3.6-11.2-6.8-24-6.8s-23.2,2.8-24,6.8l0,0v5.6l0,0c0.8,3.6,11.2,6.8,24,6.8s23.2-2.8,24-6.8
			l0,0V26.6L91,26.6z"/>
		<path class="st1" d="M67,41c-5.6,0-10.8-0.4-15.6-1.6c2.4,2,4.4,4.4,6.4,6.8c2.8,0.4,6,0.4,9.2,0.4c12.8,0,23.2-2.8,24-6.8l0,0
			v-4.4C87.8,39,77.4,41,67,41z"/>
		<path class="st1" d="M67,49.4c-2.4,0-4.8,0-7.2-0.4c0.8,1.6,1.6,3.6,2,5.2c1.6,0,3.6,0,5.2,0c12.8,0,23.2-2.8,24-6.8l0,0v-3.6
			C87.8,47.8,77.4,49.4,67,49.4z"/>
		<path class="st1" d="M67,57.9c-1.6,0-3.2,0-4.4,0c0.4,1.6,0.4,3.6,0.4,5.2c1.2,0,2.8,0,4,0c12.8,0,23.2-2.8,24-6.8l0,0v-4.4
			C87.8,55.9,77.4,57.9,67,57.9z"/>
		<path class="st1" d="M67,65.5c-1.2,0-2.8,0-4,0c0,2-0.4,3.6-0.8,5.2c1.6,0,3.2,0,5.2,0c12.8,0,23.2-2.8,24-6.8l0,0v-4.4
			C87.8,63.5,77.4,65.5,67,65.5z"/>
		<path class="st1" d="M67,73.9c-2,0-4,0-6-0.4c-0.8,1.6-1.6,3.2-2.4,4.8c2.8,0.4,5.6,0.4,8.4,0.4c12.8,0,23.2-2.8,24-6.8l0,0v-4.4
			C87.8,71.9,77.4,73.9,67,73.9z"/>
	</g>
</g>
<path class="st2" d="M33.3,71.3c4.6,0,8.3-3.7,8.3-8.3s-3.7-8.3-8.3-8.3S25,58.4,25,63v0.1C25.1,67.7,28.8,71.4,33.3,71.3z"/>
<path class="st2" d="M32,50.6c-2.6-2.4-7.2-1.7-10.3,1.8c-2.7,3-2.9,7.5-1,9.3L32,50.6z"/>
<path class="st2" d="M45.8,61.7c2.2-2.5,1.6-7-1.8-10.1c-3-2.7-7.4-3-9.3-0.9L45.8,61.7z"/>
<path class="st2" d="M20.9,64.4c-2.3,2.7-1.6,7.2,1.8,10.3c2.9,2.6,7.3,2.9,9.3,0.8L20.9,64.4z"/>
<path class="st2" d="M34.7,75.5c2.6,2.2,7.2,1.7,9.9-1.5c2.9-3.4,3.3-7.7,1.2-9.6L34.7,75.5z"/>
<path class="st2" d="M49.9,67.7c2.5-2.3,2.3-7.4,0-9.3c-1.2,1.6-2.4,3.1-3.6,4.7c1.1,1.5,2.3,3,3.4,4.4
	C49.8,67.6,49.8,67.7,49.9,67.7z"/>
<path class="st2" d="M16.7,58.4c-2.4,2.4-2.4,7,0,9.4l3.6-4.7L16.7,58.4z"/>
<path class="st2" d="M28.6,79.7c2.7,2.4,7,2.4,9.4,0l-4.7-3.6L28.6,79.7z"/>
<path class="st2" d="M28.6,46.4l4.7,3.6l4.7-3.6C35.4,44.1,31.2,44.1,28.6,46.4z"/>
<path class="st2" d="M41.1,47.4l7.9,7.8C49.2,52.9,43.8,47.2,41.1,47.4z"/>
<path class="st2" d="M25.5,47.4c-3,0.2-7.7,5-7.8,7.8L25.5,47.4z"/>
<path class="st2" d="M49,70.9l-7.9,7.8C43.4,79.1,49.1,73.6,49,70.9z"/>
<path class="st2" d="M25.5,78.7L17.7,71C17.6,73.6,22.5,78.5,25.5,78.7z"/>
<path class="st2" d="M33.3,71.3c-4.6,0-8.3-3.7-8.3-8.2s3.7-8.3,8.2-8.3c4.6,0,8.3,3.6,8.3,8.2C41.6,67.5,38,71.3,33.3,71.3
	C33.4,71.3,33.4,71.3,33.3,71.3z"/>
<path class="st2" d="M32,50.6l-11.2,11c-2-1.7-1.7-6.2,1-9.3C24.8,48.9,29.4,48.3,32,50.6z"/>
<path class="st2" d="M45.8,61.7l-11.2-11c1.9-2.1,6.3-1.8,9.3,0.9C47.4,54.7,48,59.1,45.8,61.7z"/>
<path class="st2" d="M20.9,64.4L32,75.5c-1.9,2-6.4,1.8-9.3-0.8C19.2,71.6,18.6,67.1,20.9,64.4z"/>
<path class="st2" d="M34.7,75.5l11.1-11.1c2.1,1.9,1.7,6.3-1.2,9.6C41.8,77.2,37.3,77.7,34.7,75.5z"/>
<path class="st2" d="M49.9,67.7c-0.1-0.1-0.2-0.1-0.2-0.2c-1.1-1.5-2.2-3-3.4-4.4c1.2-1.6,2.4-3.1,3.6-4.7
	C52.2,60.4,52.4,65.4,49.9,67.7z"/>
<path class="st2" d="M16.7,58.4l3.6,4.7l-3.6,4.7C14.3,65.4,14.4,60.8,16.7,58.4z"/>
<path class="st2" d="M28.6,79.7l4.7-3.6l4.7,3.6C35.7,82.1,31.3,82.1,28.6,79.7z"/>
<path class="st2" d="M28.6,46.4c2.6-2.4,6.7-2.4,9.4,0L33.3,50L28.6,46.4z"/>
<path class="st2" d="M41.1,47.4c2.8-0.2,8.1,5.5,7.9,7.8L41.1,47.4z"/>
<path class="st2" d="M25.5,47.4l-7.8,7.8C17.8,52.4,22.5,47.6,25.5,47.4z"/>
<path class="st2" d="M49,70.9c0.1,2.6-5.6,8.1-7.9,7.8L49,70.9z"/>
<path class="st2" d="M25.5,78.7c-2.9-0.2-7.9-5.1-7.8-7.7L25.5,78.7z"/>
</svg>
