<?xml version="1.0" encoding="utf-8"?>
<!-- Generator: Adobe Illustrator 25.4.1, SVG Export Plug-In . SVG Version: 6.00 Build 0)  -->
<svg version="1.1" id="ic_empty_Dark_zsparks" xmlns="http://www.w3.org/2000/svg" xmlns:xlink="http://www.w3.org/1999/xlink"
	 x="0px" y="0px" viewBox="0 0 100 100" style="enable-background:new 0 0 100 100;" xml:space="preserve">
<style type="text/css">
	.st0{fill:#413D4A;}
	.st1{fill:#A09EA5;}
	.st2{fill:none;}
	.st3{fill-rule:evenodd;clip-rule:evenodd;fill:#E32435;}
	.st4{fill:#FFFFFF;}
	.st5{font-family:'MyriadPro-Regular';}
	.st6{font-size:12.3934px;}
</style>
<g id="Group_9081">
	<path id="Path_19026" class="st0" d="M50,26c-13.3,0-24,10.7-24,24s10.7,24,24,24s24-10.7,24-24S63.3,26,50,26z M50,68
		c-9.9,0-18-8.1-18-18s8.1-18,18-18s18,8.1,18,18S59.9,68,50,68z"/>
	<g id="Group_9080">
		<g id="Group_9078">
			<path id="Path_19027" class="st1" d="M50,31c-10.5,0-19,8.5-19,19s8.5,19,19,19s19-8.5,19-19C69,39.5,60.5,31,50,31z M50,67
				c-9.4,0-17-7.6-17-17s7.6-17,17-17s17,7.6,17,17C67,59.4,59.4,67,50,67z"/>
			<path id="Rectangle_4744" class="st1" d="M83,56h2v4h-2V56z"/>
			<path id="Rectangle_4745" class="st1" d="M83,44h2v8h-2V44z"/>
			<path id="Rectangle_4746" class="st1" d="M15,48h2v8h-2V48z"/>
			<path id="Rectangle_4747" class="st1" d="M15,40h2v4h-2V40z"/>
			<path id="Path_19028" class="st1" d="M95.2,71H85v-7h-2v9h7.8L76,90.5L61.2,73H68v-2h-4.5c11.6-7.5,15-22.9,7.5-34.5
				c-6.4-9.9-18.9-14-29.9-9.8L24,6.5L4.8,29H15v7h2v-9H9.2L24,9.5L38.8,27H32v2h4.5c-11.6,7.5-15,22.9-7.5,34.5
				c6.4,9.9,18.9,14,29.9,9.8L76,93.5L95.2,71z M27,50c0-12.7,10.3-23,23-23s23,10.3,23,23S62.7,73,50,73C37.3,73,27,62.7,27,50z"/>
		</g>
	</g>
</g>
<path id="Rectangle_4748" class="st2" d="M0,0h100v100H0V0z"/>
<path id="Rectangle_4542" class="st2" d="M31,31.1h37.9V69H31V31.1z"/>
<path id="Rectangle_4543" class="st2" d="M31.3,31h37.9v37.9H31.3V31z"/>
<path class="st3" d="M49.9,56.4c3.4,0,6.2-2.8,6.2-6.2c0-3.4-2.8-6.2-6.2-6.2c-3.4,0-6.2,2.8-6.2,6.2c0,0,0,0,0,0.1
	C43.7,53.7,46.5,56.4,49.9,56.4z"/>
<path class="st3" d="M48.9,41c-1.9-1.8-5.4-1.3-7.7,1.3c-2,2.2-2.2,5.6-0.7,6.9L48.9,41z"/>
<path class="st3" d="M59.2,49.2c1.7-1.9,1.2-5.2-1.4-7.5c-2.2-2-5.5-2.2-7-0.7L59.2,49.2z"/>
<path class="st3" d="M40.6,51.3c-1.7,2-1.2,5.4,1.4,7.7c2.2,2,5.5,2.1,6.9,0.6L40.6,51.3z"/>
<path class="st3" d="M50.9,59.6c2,1.7,5.4,1.2,7.4-1.1c2.2-2.5,2.5-5.8,0.9-7.2L50.9,59.6z"/>
<path class="st3" d="M62.2,53.7c1.8-1.7,1.7-5.5,0-6.9c-0.9,1.2-1.8,2.3-2.7,3.5c0.8,1.1,1.7,2.2,2.5,3.3
	C62.1,53.7,62.2,53.7,62.2,53.7z"/>
<path class="st3" d="M37.5,46.8c-1.8,1.8-1.8,5.2,0,7l2.7-3.5L37.5,46.8z"/>
<path class="st3" d="M46.4,62.7c2,1.8,5.3,1.8,7,0L49.9,60L46.4,62.7z"/>
<path class="st3" d="M46.4,37.8l3.5,2.7l3.5-2.7C51.4,36.1,48.3,36.1,46.4,37.8z"/>
<path class="st3" d="M55.7,38.6l5.9,5.8C61.7,42.7,57.7,38.4,55.7,38.6z"/>
<path class="st3" d="M44,38.6c-2.2,0.2-5.8,3.7-5.8,5.8L44,38.6z"/>
<path class="st3" d="M61.6,56.1l-5.9,5.8C57.4,62.2,61.6,58.1,61.6,56.1z"/>
<path class="st3" d="M44,61.9l-5.8-5.7C38.1,58.1,41.8,61.8,44,61.9z"/>
<path class="st3" d="M49.9,56.4c-3.4,0-6.2-2.7-6.2-6.1c0-3.4,2.7-6.2,6.1-6.2c3.4,0,6.2,2.7,6.2,6.1C56.1,53.6,53.4,56.4,49.9,56.4
	C49.9,56.4,49.9,56.4,49.9,56.4z"/>
<path class="st3" d="M48.9,41l-8.4,8.2c-1.5-1.3-1.3-4.7,0.7-6.9C43.5,39.7,47,39.2,48.9,41z"/>
<path class="st3" d="M59.2,49.2L50.8,41c1.5-1.6,4.7-1.3,7,0.7C60.4,44,60.9,47.3,59.2,49.2z"/>
<path class="st3" d="M40.6,51.3l8.3,8.3c-1.4,1.5-4.7,1.3-6.9-0.6C39.4,56.6,38.9,53.2,40.6,51.3z"/>
<path class="st3" d="M50.9,59.6l8.3-8.3c1.6,1.4,1.3,4.7-0.9,7.2C56.2,60.8,52.8,61.2,50.9,59.6z"/>
<path class="st3" d="M62.2,53.7c-0.1,0-0.1-0.1-0.2-0.1c-0.8-1.1-1.7-2.2-2.5-3.3c0.9-1.2,1.8-2.3,2.7-3.5
	C64,48.2,64.1,52,62.2,53.7z"/>
<path class="st3" d="M37.5,46.8l2.7,3.5l-2.7,3.5C35.7,52,35.7,48.5,37.5,46.8z"/>
<path class="st3" d="M46.4,62.7l3.5-2.7l3.5,2.7C51.6,64.4,48.4,64.5,46.4,62.7z"/>
<path class="st3" d="M46.4,37.8c1.9-1.8,5-1.8,7,0l-3.5,2.7L46.4,37.8z"/>
<path class="st3" d="M55.7,38.6c2.1-0.1,6.1,4.1,5.9,5.8L55.7,38.6z"/>
<path class="st3" d="M44,38.6l-5.8,5.8C38.3,42.3,41.8,38.7,44,38.6z"/>
<path class="st3" d="M61.6,56.1c0.1,2-4.2,6.1-5.9,5.8L61.6,56.1z"/>
<path class="st3" d="M44,61.9c-2.2-0.1-5.9-3.8-5.8-5.7L44,61.9z"/>
<text transform="matrix(1 0 0 1 46.3677 54.2412)" class="st4 st5 st6">Z</text>
</svg>
