<?xml version="1.0" encoding="utf-8"?>
<!-- Generator: Adobe Illustrator 25.4.1, SVG Export Plug-In . SVG Version: 6.00 Build 0)  -->
<svg version="1.1" id="ic_empty_dark_multisend" xmlns="http://www.w3.org/2000/svg" xmlns:xlink="http://www.w3.org/1999/xlink"
	 x="0px" y="0px" viewBox="0 0 100 100" style="enable-background:new 0 0 100 100;" xml:space="preserve">
<style type="text/css">
	.st0{fill:#3F3F3F;}
	.st1{fill:#777777;}
	.st2{fill:#A09EA5;}
	.st3{fill:none;}
	.st4{fill-rule:evenodd;clip-rule:evenodd;}
	.st5{fill-rule:evenodd;clip-rule:evenodd;fill:#353535;}
</style>
<g id="Group_9062">
	<g id="Group_9060">
		<path id="Rectangle_4717" class="st0" d="M45,18h10v9H45V18z"/>
		<g id="Group_9059">
			<path id="Rectangle_4718" class="st0" d="M14,66h6v10h-6V66z"/>
			<path id="Rectangle_4719" class="st0" d="M80,66h6v10h-6V66z"/>
			<path id="Rectangle_4720" class="st0" d="M47,66h6v10h-6V66z"/>
		</g>
	</g>
	<g id="Group_9061">
		<path id="Rectangle_4722" class="st1" d="M67,40h2v4h-2V40z"/>
		<circle id="Ellipse_643" class="st2" cx="50" cy="73" r="1"/>
		<circle id="Ellipse_644" class="st2" cx="83" cy="73" r="1"/>
		<path id="Rectangle_4723" class="st1" d="M32,58h4v2h-4V58z"/>
		<path id="Path_19007" class="st1" d="M16,65h-3v3H7v4h2v-2h4v7h8v-7h4v21H9V76H7v17h20V68h-6v-3h-3v-5h10v-2H16V65z M19,67v8h-4
			v-8H19z"/>
		<circle id="Ellipse_645" class="st2" cx="17" cy="73" r="1"/>
		<path id="Path_19008" class="st1" d="M87,68v-3h-3v-7H51v-5h18v-5h-2v3H33V28h34v8h2v-8h4V17H59.5c2.2-2.5,2-6.3-0.5-8.5
			s-6.3-2-8.5,0.5c-0.2,0.2-0.4,0.5-0.5,0.7c-1.8-2.8-5.5-3.5-8.3-1.7c-2.8,1.8-3.5,5.5-1.7,8.3c0.2,0.3,0.4,0.5,0.6,0.7H27v11h4v25
			h18v5h-9v2h9v5h-3v3h-6v16h2V70h4v7h8v-7h4v21H42v-3h-2v5h20V68h-6v-3h-3v-5h31v5h-3v3h-6v12h2V70h4v7h8v-7h4v21H75v-7h-2v9h20V68
			H87z M71,19v7H56v-7H71z M51,13c0-2.2,1.8-4,4-4s4,1.8,4,4s-1.8,4-4,4h-4V13z M51,19h3v7h-8v-7H51z M45,9c2.2,0,4,1.8,4,4v4h-4
			c-2.2,0-4-1.8-4-4S42.8,9,45,9z M29,26v-7h15v7H29z M52,67v8h-4v-8H52z M85,75h-4v-8h4V75z"/>
	</g>
</g>
<path id="Rectangle_4724" class="st3" d="M0,0h100v100H0V0z"/>
<path class="st4" d="M50,43.5c2.2,0,3.9-1.8,3.9-3.9c0-2.2-1.8-3.9-3.9-3.9S46,37.3,46,39.5c0,0,0,0,0,0.1
	C46.1,41.7,47.8,43.5,50,43.5z"/>
<path class="st4" d="M49.3,33.6c-1.3-1.1-3.4-0.8-4.9,0.8c-1.3,1.4-1.4,3.6-0.4,4.4L49.3,33.6z"/>
<path class="st4" d="M55.9,38.8c1.1-1.2,0.8-3.3-0.9-4.8c-1.4-1.3-3.5-1.4-4.4-0.4L55.9,38.8z"/>
<path class="st4" d="M44.1,40.2C43,41.4,43.3,43.5,45,45c1.4,1.3,3.5,1.4,4.4,0.4L44.1,40.2z"/>
<path class="st4" d="M50.6,45.4c1.3,1.1,3.4,0.8,4.7-0.7c1.4-1.6,1.6-3.6,0.6-4.6L50.6,45.4z"/>
<path class="st5" d="M57.8,41.7c1.2-1.1,1.1-3.5,0-4.4c-0.6,0.8-1.1,1.4-1.7,2.2c0.6,0.7,1.1,1.4,1.6,2.1
	C57.7,41.7,57.8,41.7,57.8,41.7z"/>
<path class="st5" d="M42.1,37.3c-1.1,1.1-1.1,3.3,0,4.4l1.7-2.3L42.1,37.3z"/>
<path class="st5" d="M47.8,47.4c1.3,1.1,3.3,1.1,4.4,0L50,45.7L47.8,47.4z"/>
<path class="st5" d="M47.8,31.6l2.2,1.7l2.2-1.7C50.9,30.5,49,30.5,47.8,31.6z"/>
<path class="st5" d="M53.7,32.1l3.8,3.7C57.5,34.7,55,32,53.7,32.1z"/>
<path class="st5" d="M46.3,32.1c-1.4,0.1-3.6,2.4-3.7,3.7L46.3,32.1z"/>
<path class="st5" d="M57.4,43.3L53.6,47C54.7,47.1,57.4,44.5,57.4,43.3z"/>
<path class="st5" d="M46.3,46.9l-3.7-3.6C42.5,44.5,44.8,46.9,46.3,46.9z"/>
<path class="st5" d="M50,43.5c-2.2,0-3.9-1.8-3.9-3.9c0-2.2,1.8-3.9,3.9-3.9c2.1,0,3.9,1.8,3.9,3.9C53.9,41.7,52.2,43.4,50,43.5
	C50,43.5,50,43.5,50,43.5z"/>
<path class="st5" d="M49.3,33.6L44,38.8c-0.9-0.8-0.8-2.9,0.4-4.4C46,32.8,48.2,32.5,49.3,33.6z"/>
<path class="st5" d="M55.9,38.8l-5.3-5.2c0.9-1,3-0.9,4.4,0.4C56.6,35.5,56.9,37.6,55.9,38.8z"/>
<path class="st5" d="M44.1,40.2l5.3,5.3c-0.9,0.9-3,0.9-4.4-0.4C43.3,43.5,43,41.4,44.1,40.2z"/>
<path class="st5" d="M50.6,45.4l5.3-5.3c1,0.9,0.8,3-0.6,4.6C54,46.2,51.8,46.5,50.6,45.4z"/>
<path class="st5" d="M57.8,41.7c-0.1,0-0.1-0.1-0.1-0.1c-0.5-0.7-1.1-1.4-1.6-2.1c0.6-0.8,1.1-1.4,1.7-2.2
	C58.9,38.3,59,40.7,57.8,41.7z"/>
<path class="st5" d="M42.1,37.3l1.7,2.2l-1.7,2.3C40.9,40.7,41,38.5,42.1,37.3z"/>
<path class="st5" d="M47.8,47.4l2.2-1.7l2.2,1.7C51.1,48.5,49,48.5,47.8,47.4z"/>
<path class="st5" d="M47.8,31.6c1.2-1.1,3.2-1.1,4.4,0L50,33.4L47.8,31.6z"/>
<path class="st5" d="M53.7,32.1c1.3-0.1,3.8,2.6,3.8,3.7L53.7,32.1z"/>
<path class="st5" d="M46.3,32.1l-3.7,3.6C42.6,34.4,44.8,32.2,46.3,32.1z"/>
<path class="st5" d="M57.4,43.3c0.1,1.3-2.7,3.9-3.8,3.7L57.4,43.3z"/>
<path class="st5" d="M46.3,46.9c-1.4-0.1-3.7-2.4-3.7-3.6L46.3,46.9z"/>
</svg>
