<?xml version="1.0" encoding="utf-8"?>
<!-- Generator: Adobe Illustrator 26.0.1, SVG Export Plug-In . SVG Version: 6.00 Build 0)  -->
<svg version="1.1" id="ic_empty_Dark_masternode" xmlns="http://www.w3.org/2000/svg" xmlns:xlink="http://www.w3.org/1999/xlink"
	 x="0px" y="0px" viewBox="0 0 100 100" style="enable-background:new 0 0 100 100;" xml:space="preserve">
<style type="text/css">
	.st0{fill:#FFFFFF;}
</style>
<g id="Network_Dark_1_">
	<path class="st0" d="M35.6,27.3c1.3,0.9,2.2,2.4,2.2,4.2c0,0.4-0.1,0.9-0.2,1.3c8.7,3.5,16.3,9,22.3,15.4c0.7-0.4,1.5-0.6,2.4-0.6
		c0.5,0,0.9,0.1,1.3,0.2c6.1-12.9,6.5-26.4,0.8-37.1c-3.4-1.2-7-1.9-10.7-2.2C46,13.6,39.9,20,35.6,27.3z"/>
	<path class="st0" d="M41.7,91.8c-2.3-2.9-4.3-5.8-6.1-8.8c-0.5,0.1-0.9,0.2-1.4,0.2c-2.3,0-4.2-1.6-4.8-3.7
		c-2.7,0.7-5.5,1.1-8.2,1.3C26.8,86.2,33.9,90.2,41.7,91.8z"/>
	<path class="st0" d="M52.9,78.8c5.7-0.4,11.3-1.7,16.4-3.6c0-0.1,0-0.1,0-0.2c0-1.8,1-3.4,2.4-4.3c-1-3-2.3-6.1-4.2-9.2
		c-0.9-1.5-1.8-3-2.9-4.4c-0.7,0.4-1.5,0.6-2.3,0.6c-0.7,0-1.4-0.1-2-0.4c-5.8,8.3-13.4,14.9-21.7,19c0.3,0.6,0.5,1.2,0.5,1.9
		C44.5,79,49.3,79,52.9,78.8z"/>
	<path class="st0" d="M65.3,48.6c1.2,0.9,2,2.3,2,4c0,1.2-0.4,2.3-1.2,3.2c1.1,1.6,2.1,3.1,3,4.7c1.9,3.3,3.3,6.5,4.3,9.5
		c0.2,0,0.5-0.1,0.7-0.1c1.3,0,2.4,0.5,3.3,1.3c6.3-3.7,11.4-8.6,14.4-14.1l0.3,0.2c0.4-2.2,0.5-4.4,0.5-6.7
		c0-17.5-10.6-32.5-25.8-38.9C72,22.6,71.4,35.9,65.3,48.6z"/>
	<path class="st0" d="M29.3,77.7c0-0.2,0.1-0.4,0.1-0.6C21.7,73.9,15,68.8,9.9,62l1.6-1.2c5.6,7.5,12.2,12,18.8,14.6
		c0.3-0.4,0.6-0.7,1-1c-3.9-9.5-5.3-19.3-4-28.8c0.5-3.5,1.3-6.9,2.5-10.2c-1.1-0.9-1.8-2.2-1.9-3.7c-4.7-1-9.7-1.3-14.7-0.8
		c-3.1,5.8-4.9,12.5-4.9,19.7c0,11,4.2,21,11.1,28.5C22.7,79,26,78.5,29.3,77.7z"/>
	<path class="st0" d="M73.2,79.8c-1.5-0.3-2.8-1.4-3.5-2.8c-5.2,2-10.9,3.3-16.7,3.7c-1.4,0.1-2.7,0.1-4.1,0.1c-3.4,0-6.8-0.3-10-1
		c-0.3,0.9-0.9,1.7-1.6,2.3c2.1,3.5,4.5,6.9,7.3,10.2c1.9,0.3,3.9,0.4,5.9,0.4c7.5,0,14.5-2,20.6-5.4C72.5,85.2,73.2,82.7,73.2,79.8
		z"/>
	<path class="st0" d="M33,73.5c0.4-0.1,0.8-0.2,1.2-0.2c1.2,0,2.4,0.5,3.3,1.2c8.1-3.9,15.6-10.3,21.3-18.5
		c-0.9-0.8-1.5-2.1-1.5-3.4c0-1.2,0.4-2.3,1.1-3.1c-5.9-6.2-13.3-11.6-21.6-15c-0.9,1.2-2.3,2-4,2c-0.5,0-0.9-0.1-1.4-0.2
		c-1.1,3.1-1.9,6.3-2.3,9.6C28,55,29.3,64.3,33,73.5z"/>
	<path class="st0" d="M78.8,72.7c0.3,0.7,0.5,1.4,0.5,2.2c0,2.5-1.8,4.5-4.1,4.9c0,2.1-0.3,4-0.9,5.7c8.3-5.6,14.4-14.1,17.1-23.9
		C88.2,65.8,83.9,69.7,78.8,72.7z"/>
	<path class="st0" d="M28.2,29.8c0.7-1.9,2.5-3.3,4.7-3.3c0.3,0,0.6,0,1,0.1c4-7,9.6-13.1,16.6-18.2c-15.3,0-28.8,8.3-36.1,20.5
		C19.1,28.5,23.7,28.8,28.2,29.8z"/>
</g>
</svg>
