<?xml version="1.0" encoding="utf-8"?>
<!-- Generator: Adobe Illustrator 25.4.1, SVG Export Plug-In . SVG Version: 6.00 Build 0)  -->
<svg version="1.1" id="ic_empty_dark_error" xmlns="http://www.w3.org/2000/svg" xmlns:xlink="http://www.w3.org/1999/xlink"
	 x="0px" y="0px" viewBox="0 0 100 100" style="enable-background:new 0 0 100 100;" xml:space="preserve">
<style type="text/css">
	.st0{fill:#4F4F4F;}
	.st1{fill:#A3A3A3;}
	.st2{fill:#A09EA5;}
	.st3{fill:none;}
</style>
<g id="Group_9065">
	<g id="Group_9063">
		<path id="Path_19009" class="st0" d="M50,24L28,64h44L50,24z M53,37l-1,12h-4l-1-12H53z M50,59c-1.7,0-3-1.3-3-3s1.3-3,3-3
			s3,1.3,3,3S51.7,59,50,59z"/>
		<path id="Path_19010" class="st0" d="M50,8l-34,8v49.2c0,2.3,1,4.4,2.6,5.9c7.7,7.9,16.8,14.4,26.9,19l0.1,0.1
			c1.4,0.7,2.9,1.3,4.3,1.8l0,0l0,0c1.5-0.6,2.9-1.2,4.3-1.8l0.1-0.1c10.1-4.6,19.2-11.1,26.9-19c1.7-1.5,2.6-3.7,2.6-5.9V64h0V16
			L50,8z M79.8,62.2L79.8,62.2l0,1c0,2-0.8,3.9-2.3,5.2C70.7,75.4,62.7,81,53.9,85.1l-0.1,0.1c-1.2,0.6-2.5,1.1-3.8,1.6h0
			c-1.3-0.5-2.5-1-3.8-1.6l-0.1-0.1c-8.8-4-16.8-9.7-23.5-16.6c-1.5-1.3-2.3-3.2-2.3-5.2v-43l29.8-7l29.8,7L79.8,62.2z"/>
	</g>
	<g id="Group_9064">
		<path id="Path_19011" class="st1" d="M50,7l-35,8.2V48h2V16.8L50,9l33,7.8l0,48.4c0,2-0.9,3.9-2.3,5.2C73,78.3,64,84.6,54,89.2
			l-0.1,0.1c-1.3,0.6-2.6,1.1-3.9,1.7l0,0c-1.3-0.5-2.6-1.1-3.9-1.7L46,89.2c-10-4.6-19-11-26.7-18.8C17.8,69,17,67.2,17,65.2V60h-2
			v5.2c0,2.5,1.1,4.9,2.9,6.6c7.8,8,17,14.5,27.2,19.2l0.1,0.1c1.4,0.7,2.9,1.3,4.4,1.9l0.4,0.1l0.4-0.1c1.5-0.6,2.9-1.2,4.4-1.9
			l0.1-0.1C65,86.3,74.2,79.9,82,71.8c1.9-1.7,2.9-4.1,3-6.7l0-50L50,7z"/>
		<path id="Rectangle_4725" class="st1" d="M15,52h2v4h-2V52z"/>
		<path id="Path_19012" class="st1" d="M64,65h9.7L50,21.9L26.3,65H60v-2H29.7L50,26.1L70.3,63H64V65z"/>
		<path id="Path_19013" class="st1" d="M45.9,36l1.2,14h5.8l1.2-14H45.9z M51.1,48h-2.2l-0.8-10h3.8L51.1,48z"/>
		<path id="Path_19014" class="st1" d="M50,52c-2.2,0-4,1.8-4,4s1.8,4,4,4s4-1.8,4-4S52.2,52,50,52z M50,58c-1.1,0-2-0.9-2-2
			s0.9-2,2-2s2,0.9,2,2S51.1,58,50,58z"/>
		<path id="Rectangle_4726" class="st2" d="M78.8,32h2v4h-2V32z"/>
		<path id="Path_19015" class="st1" d="M80.8,19.5L50,12.2l-30.8,7.2v43.8c0,2.2,0.9,4.4,2.6,5.9c6.8,7,14.9,12.7,23.9,16.8l0.1,0
			c1.3,0.6,2.5,1.1,3.8,1.6l0.3,0.2l0,0l0.4-0.1c1.3-0.5,2.6-1.1,3.8-1.6l0.1-0.1c8.9-4.1,17-9.8,23.8-16.8c1.7-1.5,2.6-3.7,2.6-5.9
			l0-23.3h-2l0,23.3c0,1.7-0.7,3.3-2,4.5C70,74.6,62.2,80.2,53.5,84.2l-0.1,0.1c-1.1,0.5-2.2,1-3.4,1.5c-1.1-0.5-2.2-0.9-3.3-1.4
			l-0.1-0.1c-8.7-4-16.6-9.6-23.3-16.4c-1.3-1.1-2-2.7-2-4.4V21L50,14.3L78.8,21v7h2V19.5z"/>
	</g>
</g>
<path id="Rectangle_4727" class="st3" d="M0,0h100v100H0V0z"/>
</svg>
