<?xml version="1.0" encoding="utf-8"?>
<!-- Generator: Adobe Illustrator 25.4.1, SVG Export Plug-In . SVG Version: 6.00 Build 0)  -->
<svg version="1.1" id="ic_staking_on" xmlns="http://www.w3.org/2000/svg" xmlns:xlink="http://www.w3.org/1999/xlink" x="0px"
	 y="0px" viewBox="0 0 100 100" style="enable-background:new 0 0 100 100;" xml:space="preserve">
<style type="text/css">
	.st0{fill:none;}
	.st1{fill-rule:evenodd;clip-rule:evenodd;}
</style>
<path id="Rectangle_4527" class="st0" d="M3.8,1.5H100v96.2H3.8C3.8,97.6,3.8,1.5,3.8,1.5z"/>
<g id="Bitcoin_Dark">
	<g>
		<path d="M33.4,33.5c-14.8,0-26.9,12-26.9,26.9s12,26.9,26.9,26.9s26.9-12,26.9-26.9S47.8,33.5,33.4,33.5z M53.5,60
			c0,11.2-9.2,20-20,20c-11.2,0-20-9.2-20-20s9.2-20,20-20S53.5,48.7,53.5,60z"/>
		<path d="M91.1,23.5c-0.8-3.6-11.2-6.8-24-6.8s-23.2,2.8-24,6.8l0,0v5.6l0,0c0.8,3.6,11.2,6.8,24,6.8s23.2-2.8,24-6.8l0,0V23.5
			L91.1,23.5z"/>
		<path d="M67.1,37.9c-5.6,0-10.8-0.4-15.6-1.6c2.4,2,4.4,4.4,6.4,6.8c2.8,0.4,6,0.4,9.2,0.4c12.8,0,23.2-2.8,24-6.8l0,0v-4.4
			C87.9,35.9,77.5,37.9,67.1,37.9z"/>
		<path d="M67.1,46.3c-2.4,0-4.8,0-7.2-0.4c0.8,1.6,1.6,3.6,2,5.2c1.6,0,3.6,0,5.2,0c12.8,0,23.2-2.8,24-6.8l0,0v-3.6
			C87.9,44.7,77.5,46.3,67.1,46.3z"/>
		<path d="M67.1,54.8c-1.6,0-3.2,0-4.4,0c0.4,1.6,0.4,3.6,0.4,5.2c1.2,0,2.8,0,4,0c12.8,0,23.2-2.8,24-6.8l0,0v-4.4
			C87.9,52.8,77.5,54.8,67.1,54.8z"/>
		<path d="M67.1,62.4c-1.2,0-2.8,0-4,0c0,2-0.4,3.6-0.8,5.2c1.6,0,3.2,0,5.2,0c12.8,0,23.2-2.8,24-6.8l0,0v-4.4
			C87.9,60.4,77.5,62.4,67.1,62.4z"/>
		<path d="M67.1,70.8c-2,0-4,0-6-0.4c-0.8,1.6-1.6,3.2-2.4,4.8c2.8,0.4,5.6,0.4,8.4,0.4c12.8,0,23.2-2.8,24-6.8l0,0v-4.4
			C87.9,68.8,77.5,70.8,67.1,70.8z"/>
	</g>
</g>
<path class="st1" d="M33.4,68.2c4.6,0,8.3-3.7,8.3-8.3s-3.7-8.3-8.3-8.3s-8.3,3.7-8.3,8.3V60C25.2,64.6,28.9,68.3,33.4,68.2z"/>
<path class="st1" d="M32.1,47.5c-2.6-2.4-7.2-1.7-10.3,1.8c-2.7,3-2.9,7.5-1,9.3L32.1,47.5z"/>
<path class="st1" d="M45.9,58.6c2.2-2.5,1.6-7-1.8-10.1c-3-2.7-7.4-3-9.3-0.9L45.9,58.6z"/>
<path class="st1" d="M21,61.3c-2.3,2.7-1.6,7.2,1.8,10.3c2.9,2.6,7.3,2.9,9.3,0.8L21,61.3z"/>
<path class="st1" d="M34.8,72.4c2.6,2.2,7.2,1.7,9.9-1.5c2.9-3.4,3.3-7.7,1.2-9.6L34.8,72.4z"/>
<path class="st1" d="M50,64.6c2.5-2.3,2.3-7.4,0-9.3c-1.2,1.6-2.4,3.1-3.6,4.7c1.1,1.5,2.3,3,3.4,4.4C49.9,64.5,49.9,64.6,50,64.6z"
	/>
<path class="st1" d="M16.8,55.3c-2.4,2.4-2.4,7,0,9.4l3.6-4.7L16.8,55.3z"/>
<path class="st1" d="M28.7,76.6c2.7,2.4,7,2.4,9.4,0L33.4,73L28.7,76.6z"/>
<path class="st1" d="M28.7,43.3l4.7,3.6l4.7-3.6C35.5,41,31.3,41,28.7,43.3z"/>
<path class="st1" d="M41.2,44.3l7.9,7.8C49.3,49.8,43.9,44.1,41.2,44.3z"/>
<path class="st1" d="M25.6,44.3c-3,0.2-7.7,5-7.8,7.8L25.6,44.3z"/>
<path class="st1" d="M49.1,67.8l-7.9,7.8C43.5,76,49.2,70.5,49.1,67.8z"/>
<path class="st1" d="M25.6,75.6l-7.8-7.7C17.7,70.5,22.6,75.4,25.6,75.6z"/>
<path class="st1" d="M33.4,68.2c-4.6,0-8.3-3.7-8.3-8.2s3.7-8.3,8.2-8.3c4.6,0,8.3,3.6,8.3,8.2C41.7,64.4,38.1,68.2,33.4,68.2
	C33.5,68.2,33.5,68.2,33.4,68.2z"/>
<path class="st1" d="M32.1,47.5l-11.2,11c-2-1.7-1.7-6.2,1-9.3C24.9,45.8,29.5,45.2,32.1,47.5z"/>
<path class="st1" d="M45.9,58.6l-11.2-11c1.9-2.1,6.3-1.8,9.3,0.9C47.5,51.6,48.1,56,45.9,58.6z"/>
<path class="st1" d="M21,61.3l11.1,11.1c-1.9,2-6.4,1.8-9.3-0.8C19.3,68.5,18.7,64,21,61.3z"/>
<path class="st1" d="M34.8,72.4l11.1-11.1c2.1,1.9,1.7,6.3-1.2,9.6C41.9,74.1,37.4,74.6,34.8,72.4z"/>
<path class="st1" d="M50,64.6c-0.1-0.1-0.2-0.1-0.2-0.2c-1.1-1.5-2.2-3-3.4-4.4c1.2-1.6,2.4-3.1,3.6-4.7
	C52.3,57.3,52.5,62.3,50,64.6z"/>
<path class="st1" d="M16.8,55.3l3.6,4.7l-3.6,4.7C14.4,62.3,14.5,57.7,16.8,55.3z"/>
<path class="st1" d="M28.7,76.6l4.7-3.6l4.7,3.6C35.8,79,31.4,79,28.7,76.6z"/>
<path class="st1" d="M28.7,43.3c2.6-2.4,6.7-2.4,9.4,0l-4.7,3.6L28.7,43.3z"/>
<path class="st1" d="M41.2,44.3c2.8-0.2,8.1,5.5,7.9,7.8L41.2,44.3z"/>
<path class="st1" d="M25.6,44.3l-7.8,7.8C17.9,49.3,22.6,44.5,25.6,44.3z"/>
<path class="st1" d="M49.1,67.8c0.1,2.6-5.6,8.1-7.9,7.8L49.1,67.8z"/>
<path class="st1" d="M25.6,75.6c-2.9-0.2-7.9-5.1-7.8-7.7L25.6,75.6z"/>
</svg>
